G75*
%MOIN*%
%OFA0B0*%
%FSLAX25Y25*%
%IPPOS*%
%LPD*%
%AMOC8*
5,1,8,0,0,1.08239X$1,22.5*
%
%ADD10C,0.00000*%
%ADD11R,0.07800X0.07800*%
%ADD12C,0.07800*%
%ADD13OC8,0.05600*%
%ADD14C,0.05600*%
%ADD15C,0.05550*%
%ADD16C,0.11620*%
%ADD17C,0.06337*%
D10*
X0009867Y0004867D02*
X0009867Y0201717D01*
X0206717Y0201717D01*
X0206717Y0004867D01*
X0009867Y0004867D01*
D11*
X0014867Y0069867D03*
X0202367Y0069867D03*
D12*
X0202367Y0079867D03*
X0202367Y0089867D03*
X0202367Y0099867D03*
X0202367Y0109867D03*
X0202367Y0119867D03*
X0202367Y0129867D03*
X0202367Y0139867D03*
X0202367Y0154867D03*
X0202367Y0164867D03*
X0202367Y0174867D03*
X0202367Y0184867D03*
X0202367Y0194867D03*
X0184867Y0194867D03*
X0174867Y0194867D03*
X0164867Y0194867D03*
X0069867Y0089867D03*
X0069867Y0079867D03*
X0069867Y0069867D03*
X0014867Y0079867D03*
X0014867Y0089867D03*
X0014867Y0099867D03*
X0014867Y0109867D03*
X0014867Y0119867D03*
X0014867Y0129867D03*
X0014867Y0139867D03*
X0019867Y0014867D03*
X0029867Y0014867D03*
X0039867Y0014867D03*
D13*
X0039867Y0024867D03*
X0049867Y0024867D03*
X0064867Y0019867D03*
X0074867Y0019867D03*
X0049867Y0044867D03*
X0039867Y0044867D03*
X0064867Y0049867D03*
X0074867Y0049867D03*
X0104867Y0014867D03*
X0114867Y0014867D03*
X0124867Y0014867D03*
X0144867Y0014867D03*
X0139867Y0089867D03*
X0139867Y0109867D03*
X0139867Y0149867D03*
X0139867Y0159867D03*
X0144867Y0189867D03*
X0154867Y0189867D03*
X0129867Y0189867D03*
X0124867Y0197367D03*
X0119867Y0189867D03*
X0104867Y0194867D03*
X0104867Y0184867D03*
X0079867Y0179867D03*
X0079867Y0159867D03*
X0059867Y0159867D03*
X0059867Y0179867D03*
D14*
X0092267Y0159867D02*
X0097467Y0159867D01*
X0097467Y0149867D02*
X0092267Y0149867D01*
X0092267Y0139867D02*
X0097467Y0139867D01*
X0097467Y0129867D02*
X0092267Y0129867D01*
X0092267Y0119867D02*
X0097467Y0119867D01*
X0097467Y0109867D02*
X0092267Y0109867D01*
X0092267Y0099867D02*
X0097467Y0099867D01*
X0097467Y0089867D02*
X0092267Y0089867D01*
X0092267Y0079867D02*
X0097467Y0079867D01*
X0097467Y0069867D02*
X0092267Y0069867D01*
X0092267Y0059867D02*
X0097467Y0059867D01*
X0097467Y0049867D02*
X0092267Y0049867D01*
X0092267Y0039867D02*
X0097467Y0039867D01*
X0097467Y0029867D02*
X0092267Y0029867D01*
X0122267Y0029867D02*
X0127467Y0029867D01*
X0127467Y0039867D02*
X0122267Y0039867D01*
X0122267Y0049867D02*
X0127467Y0049867D01*
X0127467Y0059867D02*
X0122267Y0059867D01*
X0122267Y0069867D02*
X0127467Y0069867D01*
X0127467Y0079867D02*
X0122267Y0079867D01*
X0122267Y0089867D02*
X0127467Y0089867D01*
X0127467Y0099867D02*
X0122267Y0099867D01*
X0122267Y0109867D02*
X0127467Y0109867D01*
X0127467Y0119867D02*
X0122267Y0119867D01*
X0122267Y0129867D02*
X0127467Y0129867D01*
X0127467Y0139867D02*
X0122267Y0139867D01*
X0122267Y0149867D02*
X0127467Y0149867D01*
X0127467Y0159867D02*
X0122267Y0159867D01*
D15*
X0082741Y0194867D03*
X0074867Y0194867D03*
X0066993Y0194867D03*
X0044945Y0186166D03*
X0040221Y0183016D03*
X0044945Y0179867D03*
X0040221Y0176717D03*
X0044945Y0173567D03*
D16*
X0024867Y0165497D03*
X0024867Y0194237D03*
D17*
X0059119Y0194867D03*
X0090615Y0194867D03*
M02*
