%
M48
M72
T01C0.02362
T02C0.03150
T03C0.03200
T04C0.03937
T05C0.04000
T06C0.07480
%
T01
X44867Y34867
X104867Y99867
X104867Y114867
X49867Y149867
X39867Y149867
X29867Y109867
X179867Y79867
X194867Y139867
T02
X40221Y183016
X44945Y179867
X40221Y176717
X44945Y173567
X44945Y186166
X66993Y194867
X74867Y194867
X82741Y194867
X69867Y89867
X69867Y79867
X69867Y69867
T03
X39867Y24867
X49867Y24867
X64867Y19867
X74867Y19867
X94867Y29867
X94867Y39867
X94867Y49867
X94867Y59867
X94867Y69867
X94867Y79867
X94867Y89867
X94867Y99867
X94867Y109867
X94867Y119867
X94867Y129867
X94867Y139867
X94867Y149867
X94867Y159867
X79867Y159867
X79867Y179867
X59867Y179867
X59867Y159867
X104867Y184867
X104867Y194867
X119867Y189867
X124867Y197367
X129867Y189867
X144867Y189867
X154867Y189867
X139867Y159867
X139867Y149867
X124867Y149867
X124867Y159867
X124867Y139867
X124867Y129867
X124867Y119867
X124867Y109867
X124867Y99867
X124867Y89867
X124867Y79867
X124867Y69867
X124867Y59867
X124867Y49867
X124867Y39867
X124867Y29867
X124867Y14867
X114867Y14867
X104867Y14867
X74867Y49867
X64867Y49867
X49867Y44867
X39867Y44867
X139867Y89867
X139867Y109867
X144867Y14867
T04
X59119Y194867
X90615Y194867
T05
X14867Y139867
X14867Y129867
X14867Y119867
X14867Y109867
X14867Y99867
X14867Y89867
X14867Y79867
X14867Y69867
X19867Y14867
X29867Y14867
X39867Y14867
X202367Y69867
X202367Y79867
X202367Y89867
X202367Y99867
X202367Y109867
X202367Y119867
X202367Y129867
X202367Y139867
X202367Y154867
X202367Y164867
X202367Y174867
X202367Y184867
X202367Y194867
X184867Y194867
X174867Y194867
X164867Y194867
T06
X24867Y194237
X24867Y165497
M30
