G75*
%MOIN*%
%OFA0B0*%
%FSLAX25Y25*%
%IPPOS*%
%LPD*%
%AMOC8*
5,1,8,0,0,1.08239X$1,22.5*
%
%ADD10C,0.00000*%
%ADD11C,0.00400*%
%ADD12C,0.00600*%
%ADD13C,0.00500*%
%ADD14C,0.00800*%
%ADD15C,0.01000*%
%ADD16C,0.01200*%
D10*
X0009867Y0004867D02*
X0009867Y0201717D01*
X0206717Y0201717D01*
X0206717Y0004867D01*
X0009867Y0004867D01*
D11*
X0015834Y0020067D02*
X0015067Y0020834D01*
X0015067Y0023136D01*
X0018136Y0023136D02*
X0018136Y0020067D01*
X0015834Y0020067D01*
X0019671Y0020067D02*
X0021973Y0020067D01*
X0022740Y0020834D01*
X0021973Y0021601D01*
X0020438Y0021601D01*
X0019671Y0022369D01*
X0020438Y0023136D01*
X0022740Y0023136D01*
X0024275Y0022369D02*
X0025042Y0023136D01*
X0026576Y0023136D01*
X0027344Y0022369D01*
X0027344Y0021601D01*
X0024275Y0021601D01*
X0024275Y0020834D02*
X0024275Y0022369D01*
X0024275Y0020834D02*
X0025042Y0020067D01*
X0026576Y0020067D01*
X0028878Y0020067D02*
X0028878Y0023136D01*
X0028878Y0021601D02*
X0030413Y0023136D01*
X0031180Y0023136D01*
X0032148Y0027167D02*
X0031564Y0027750D01*
X0031564Y0028918D01*
X0032148Y0029502D01*
X0032731Y0029502D01*
X0033315Y0028918D01*
X0033899Y0029502D01*
X0034483Y0029502D01*
X0035067Y0028918D01*
X0035067Y0027750D01*
X0034483Y0027167D01*
X0033315Y0028334D02*
X0033315Y0028918D01*
X0033899Y0030067D02*
X0034667Y0030834D01*
X0034667Y0032369D01*
X0033899Y0033136D01*
X0033132Y0033136D01*
X0032365Y0032369D01*
X0032365Y0031601D01*
X0032365Y0032369D02*
X0031597Y0033136D01*
X0030830Y0033136D01*
X0030063Y0032369D01*
X0030063Y0030834D01*
X0030830Y0030067D01*
X0031564Y0031342D02*
X0031564Y0032509D01*
X0032148Y0033093D01*
X0032731Y0033093D01*
X0033315Y0032509D01*
X0033899Y0033093D01*
X0034483Y0033093D01*
X0035067Y0032509D01*
X0035067Y0031342D01*
X0034483Y0030758D01*
X0033315Y0031925D02*
X0033315Y0032509D01*
X0032148Y0030758D02*
X0031564Y0031342D01*
X0032148Y0034349D02*
X0031564Y0034933D01*
X0031564Y0036100D01*
X0032148Y0036684D01*
X0034483Y0034349D01*
X0035067Y0034933D01*
X0035067Y0036100D01*
X0034483Y0036684D01*
X0032148Y0036684D01*
X0032365Y0036973D02*
X0033132Y0037740D01*
X0033899Y0037740D01*
X0034667Y0036973D01*
X0034667Y0035438D01*
X0033899Y0034671D01*
X0034483Y0034349D02*
X0032148Y0034349D01*
X0030830Y0034671D02*
X0030063Y0035438D01*
X0030063Y0036973D01*
X0030830Y0037740D01*
X0031597Y0037740D01*
X0032365Y0036973D01*
X0032365Y0036205D01*
X0033899Y0039275D02*
X0030830Y0039275D01*
X0030063Y0040042D01*
X0030063Y0041576D01*
X0030830Y0042344D01*
X0033899Y0039275D01*
X0034667Y0040042D01*
X0034667Y0041576D01*
X0033899Y0042344D01*
X0030830Y0042344D01*
X0031564Y0041531D02*
X0031564Y0043282D01*
X0032148Y0043866D01*
X0033315Y0043866D01*
X0033899Y0043282D01*
X0033899Y0041531D01*
X0033899Y0042699D02*
X0035067Y0043866D01*
X0035067Y0045122D02*
X0032731Y0047457D01*
X0032148Y0047457D01*
X0031564Y0046873D01*
X0031564Y0045706D01*
X0032148Y0045122D01*
X0035067Y0045122D02*
X0035067Y0047457D01*
X0035067Y0041531D02*
X0031564Y0041531D01*
X0035650Y0040275D02*
X0035650Y0037940D01*
X0054664Y0037536D02*
X0055248Y0038120D01*
X0056415Y0038120D01*
X0056999Y0037536D01*
X0056999Y0035785D01*
X0057365Y0036205D02*
X0057365Y0036973D01*
X0058132Y0037740D01*
X0058899Y0037740D01*
X0059667Y0036973D01*
X0059667Y0035438D01*
X0058899Y0034671D01*
X0058750Y0034529D02*
X0058750Y0032193D01*
X0059667Y0032369D02*
X0059667Y0030834D01*
X0058899Y0030067D01*
X0058167Y0030354D02*
X0058167Y0029186D01*
X0057583Y0028602D01*
X0055248Y0030938D01*
X0057583Y0030938D01*
X0058167Y0030354D01*
X0057365Y0031601D02*
X0057365Y0032369D01*
X0058132Y0033136D01*
X0058899Y0033136D01*
X0059667Y0032369D01*
X0057365Y0032369D02*
X0056597Y0033136D01*
X0055830Y0033136D01*
X0055063Y0032369D01*
X0055063Y0030834D01*
X0055830Y0030067D01*
X0055248Y0030938D02*
X0054664Y0030354D01*
X0054664Y0029186D01*
X0055248Y0028602D01*
X0057583Y0028602D01*
X0057583Y0027347D02*
X0058167Y0026763D01*
X0058167Y0025595D01*
X0057583Y0025011D01*
X0057583Y0023756D02*
X0058167Y0023172D01*
X0058167Y0022004D01*
X0057583Y0021420D01*
X0056415Y0022588D02*
X0056415Y0023172D01*
X0056999Y0023756D01*
X0057583Y0023756D01*
X0056415Y0023172D02*
X0055831Y0023756D01*
X0055248Y0023756D01*
X0054664Y0023172D01*
X0054664Y0022004D01*
X0055248Y0021420D01*
X0055248Y0025011D02*
X0054664Y0025595D01*
X0054664Y0026763D01*
X0055248Y0027347D01*
X0055831Y0027347D01*
X0056415Y0026763D01*
X0056999Y0027347D01*
X0057583Y0027347D01*
X0056415Y0026763D02*
X0056415Y0026179D01*
X0055830Y0034671D02*
X0055063Y0035438D01*
X0055063Y0036973D01*
X0055830Y0037740D01*
X0056597Y0037740D01*
X0057365Y0036973D01*
X0056999Y0036952D02*
X0058167Y0038120D01*
X0058167Y0039376D02*
X0058167Y0041711D01*
X0058899Y0042344D02*
X0055830Y0042344D01*
X0058899Y0039275D01*
X0059667Y0040042D01*
X0059667Y0041576D01*
X0058899Y0042344D01*
X0058167Y0040543D02*
X0054664Y0040543D01*
X0055831Y0039376D01*
X0055830Y0039275D02*
X0055063Y0040042D01*
X0055063Y0041576D01*
X0055830Y0042344D01*
X0055830Y0039275D02*
X0058899Y0039275D01*
X0058167Y0035785D02*
X0054664Y0035785D01*
X0054664Y0037536D01*
X0036576Y0067567D02*
X0034275Y0067567D01*
X0034275Y0072171D01*
X0036576Y0072171D01*
X0037344Y0071403D01*
X0037344Y0068334D01*
X0036576Y0067567D01*
X0032740Y0067567D02*
X0032740Y0072171D01*
X0029671Y0072171D02*
X0029671Y0067567D01*
X0028136Y0068334D02*
X0028136Y0069869D01*
X0026601Y0069869D01*
X0025067Y0071403D02*
X0025067Y0068334D01*
X0025834Y0067567D01*
X0027369Y0067567D01*
X0028136Y0068334D01*
X0028136Y0071403D02*
X0027369Y0072171D01*
X0025834Y0072171D01*
X0025067Y0071403D01*
X0029671Y0072171D02*
X0032740Y0067567D01*
X0032740Y0077567D02*
X0031973Y0078334D01*
X0032740Y0077567D02*
X0034274Y0077567D01*
X0035042Y0078334D01*
X0035042Y0079101D01*
X0034274Y0079869D01*
X0033507Y0079869D01*
X0034274Y0079869D02*
X0035042Y0080636D01*
X0035042Y0081403D01*
X0034274Y0082171D01*
X0032740Y0082171D01*
X0031973Y0081403D01*
X0030438Y0078334D02*
X0029671Y0078334D01*
X0029671Y0077567D01*
X0030438Y0077567D01*
X0030438Y0078334D01*
X0028136Y0078334D02*
X0027369Y0077567D01*
X0025834Y0077567D01*
X0025067Y0078334D01*
X0026601Y0079869D02*
X0027369Y0079869D01*
X0028136Y0079101D01*
X0028136Y0078334D01*
X0027369Y0079869D02*
X0028136Y0080636D01*
X0028136Y0081403D01*
X0027369Y0082171D01*
X0025834Y0082171D01*
X0025067Y0081403D01*
X0025067Y0087567D02*
X0025067Y0090636D01*
X0026601Y0092171D01*
X0028136Y0090636D01*
X0028136Y0087567D01*
X0028136Y0089869D02*
X0025067Y0089869D01*
X0029671Y0089869D02*
X0032740Y0089869D01*
X0031973Y0087567D02*
X0031973Y0092171D01*
X0029671Y0089869D01*
X0036576Y0082171D02*
X0036576Y0079101D01*
X0038111Y0077567D01*
X0039646Y0079101D01*
X0039646Y0082171D01*
X0031973Y0097567D02*
X0031973Y0102171D01*
X0029671Y0099869D01*
X0032740Y0099869D01*
X0028136Y0100636D02*
X0027369Y0099869D01*
X0025067Y0099869D01*
X0025067Y0097567D02*
X0025067Y0102171D01*
X0027369Y0102171D01*
X0028136Y0101403D01*
X0028136Y0100636D01*
X0027369Y0099869D02*
X0028136Y0099101D01*
X0028136Y0098334D01*
X0027369Y0097567D01*
X0025067Y0097567D01*
X0025067Y0107567D02*
X0027369Y0107567D01*
X0028136Y0108334D01*
X0028136Y0109101D01*
X0027369Y0109869D01*
X0025067Y0109869D01*
X0025067Y0107567D02*
X0025067Y0112171D01*
X0027369Y0112171D01*
X0028136Y0111403D01*
X0028136Y0110636D01*
X0027369Y0109869D01*
X0029671Y0111403D02*
X0030438Y0112171D01*
X0031973Y0112171D01*
X0032740Y0111403D01*
X0032740Y0110636D01*
X0031973Y0109869D01*
X0032740Y0109101D01*
X0032740Y0108334D01*
X0031973Y0107567D01*
X0030438Y0107567D01*
X0029671Y0108334D01*
X0031205Y0109869D02*
X0031973Y0109869D01*
X0032740Y0117567D02*
X0029671Y0117567D01*
X0032740Y0120636D01*
X0032740Y0121403D01*
X0031973Y0122171D01*
X0030438Y0122171D01*
X0029671Y0121403D01*
X0028136Y0121403D02*
X0027369Y0122171D01*
X0025067Y0122171D01*
X0025067Y0117567D01*
X0027369Y0117567D01*
X0028136Y0118334D01*
X0028136Y0119101D01*
X0027369Y0119869D01*
X0025067Y0119869D01*
X0027369Y0119869D02*
X0028136Y0120636D01*
X0028136Y0121403D01*
X0028136Y0127567D02*
X0028136Y0130636D01*
X0026601Y0132171D01*
X0025067Y0130636D01*
X0025067Y0127567D01*
X0025067Y0129869D02*
X0028136Y0129869D01*
X0029671Y0130636D02*
X0031205Y0132171D01*
X0031205Y0127567D01*
X0029671Y0127567D02*
X0032740Y0127567D01*
X0031973Y0137567D02*
X0030438Y0137567D01*
X0029671Y0138334D01*
X0032740Y0141403D01*
X0032740Y0138334D01*
X0031973Y0137567D01*
X0029671Y0138334D02*
X0029671Y0141403D01*
X0030438Y0142171D01*
X0031973Y0142171D01*
X0032740Y0141403D01*
X0028136Y0140636D02*
X0028136Y0137567D01*
X0028136Y0139869D02*
X0025067Y0139869D01*
X0025067Y0140636D02*
X0025067Y0137567D01*
X0025067Y0140636D02*
X0026601Y0142171D01*
X0028136Y0140636D01*
X0064664Y0157588D02*
X0068167Y0157588D01*
X0068167Y0156420D02*
X0068167Y0158756D01*
X0067583Y0160011D02*
X0065248Y0160011D01*
X0064664Y0160595D01*
X0064664Y0161763D01*
X0065248Y0162347D01*
X0067583Y0160011D01*
X0068167Y0160595D01*
X0068167Y0161763D01*
X0067583Y0162347D01*
X0065248Y0162347D01*
X0064664Y0163602D02*
X0068167Y0163602D01*
X0068417Y0163817D02*
X0068417Y0166886D01*
X0068750Y0167193D02*
X0068750Y0169529D01*
X0068417Y0169188D02*
X0067649Y0168421D01*
X0064580Y0171490D01*
X0067649Y0171490D01*
X0068417Y0170723D01*
X0068417Y0169188D01*
X0067649Y0168421D02*
X0064580Y0168421D01*
X0063813Y0169188D01*
X0063813Y0170723D01*
X0064580Y0171490D01*
X0064664Y0170785D02*
X0064664Y0172536D01*
X0065248Y0173120D01*
X0066415Y0173120D01*
X0066999Y0172536D01*
X0066999Y0170785D01*
X0066999Y0171952D02*
X0068167Y0173120D01*
X0068417Y0173025D02*
X0063813Y0173025D01*
X0064664Y0170785D02*
X0068167Y0170785D01*
X0066882Y0173025D02*
X0063813Y0176094D01*
X0064664Y0176127D02*
X0066415Y0174376D01*
X0066415Y0176711D01*
X0064664Y0176127D02*
X0068167Y0176127D01*
X0068417Y0176094D02*
X0066115Y0173792D01*
X0071564Y0171684D02*
X0073899Y0169349D01*
X0073315Y0169933D02*
X0075067Y0171684D01*
X0075650Y0172940D02*
X0075650Y0175275D01*
X0075067Y0176531D02*
X0071564Y0176531D01*
X0071564Y0178282D01*
X0072148Y0178866D01*
X0073315Y0178866D01*
X0073899Y0178282D01*
X0073899Y0176531D01*
X0073899Y0177699D02*
X0075067Y0178866D01*
X0074483Y0180122D02*
X0075067Y0180706D01*
X0075067Y0181873D01*
X0074483Y0182457D01*
X0073899Y0182457D01*
X0073315Y0181873D01*
X0073315Y0181290D01*
X0073315Y0181873D02*
X0072731Y0182457D01*
X0072148Y0182457D01*
X0071564Y0181873D01*
X0071564Y0180706D01*
X0072148Y0180122D01*
X0071564Y0169349D02*
X0075067Y0169349D01*
X0074483Y0168093D02*
X0075067Y0167509D01*
X0075067Y0166342D01*
X0074483Y0165758D01*
X0072148Y0168093D01*
X0074483Y0168093D01*
X0074483Y0165758D02*
X0072148Y0165758D01*
X0071564Y0166342D01*
X0071564Y0167509D01*
X0072148Y0168093D01*
X0068167Y0165938D02*
X0066415Y0164186D01*
X0066999Y0163602D02*
X0064664Y0165938D01*
X0063813Y0165351D02*
X0068417Y0165351D01*
X0065347Y0163817D02*
X0063813Y0165351D01*
X0064664Y0157588D02*
X0065831Y0156420D01*
X0072731Y0162167D02*
X0071564Y0163334D01*
X0075067Y0163334D01*
X0075067Y0162167D02*
X0075067Y0164502D01*
X0085063Y0166601D02*
X0086597Y0165067D01*
X0085063Y0166601D02*
X0089667Y0166601D01*
X0089667Y0165067D02*
X0089667Y0168136D01*
X0088899Y0169671D02*
X0089667Y0170438D01*
X0089667Y0171973D01*
X0088899Y0172740D01*
X0085830Y0172740D01*
X0088899Y0169671D01*
X0085830Y0169671D01*
X0085063Y0170438D01*
X0085063Y0171973D01*
X0085830Y0172740D01*
X0085063Y0174275D02*
X0089667Y0174275D01*
X0088132Y0174275D02*
X0085063Y0177344D01*
X0087365Y0175042D02*
X0089667Y0177344D01*
X0095830Y0185067D02*
X0095063Y0185834D01*
X0095063Y0187369D01*
X0095830Y0188136D01*
X0098899Y0185067D01*
X0099667Y0185834D01*
X0099667Y0187369D01*
X0098899Y0188136D01*
X0095830Y0188136D01*
X0095830Y0185067D02*
X0098899Y0185067D01*
X0098899Y0189671D02*
X0098899Y0190438D01*
X0099667Y0190438D01*
X0099667Y0189671D01*
X0098899Y0189671D01*
X0099667Y0191973D02*
X0099667Y0195042D01*
X0099667Y0193507D02*
X0095063Y0193507D01*
X0096597Y0191973D01*
X0096597Y0196576D02*
X0098899Y0196576D01*
X0099667Y0197344D01*
X0099667Y0199646D01*
X0096597Y0199646D01*
X0097365Y0201180D02*
X0097365Y0202715D01*
X0099667Y0201180D02*
X0095063Y0201180D01*
X0095063Y0204250D01*
X0053210Y0197482D02*
X0053210Y0195947D01*
X0052443Y0195180D01*
X0052443Y0193645D02*
X0051675Y0193645D01*
X0050908Y0192878D01*
X0050908Y0191343D01*
X0050141Y0190576D01*
X0049373Y0190576D01*
X0048606Y0191343D01*
X0048606Y0192878D01*
X0049373Y0193645D01*
X0049373Y0195180D02*
X0048606Y0195947D01*
X0048606Y0197482D01*
X0049373Y0198249D01*
X0050141Y0198249D01*
X0050908Y0197482D01*
X0051675Y0198249D01*
X0052443Y0198249D01*
X0053210Y0197482D01*
X0050908Y0197482D02*
X0050908Y0196715D01*
X0052443Y0193645D02*
X0053210Y0192878D01*
X0053210Y0191343D01*
X0052443Y0190576D01*
X0052443Y0189041D02*
X0048606Y0189041D01*
X0047839Y0192111D02*
X0053977Y0192111D01*
X0052443Y0189041D02*
X0053210Y0188274D01*
X0053210Y0186739D01*
X0052443Y0185972D01*
X0048606Y0185972D01*
X0145067Y0183903D02*
X0145067Y0180834D01*
X0148136Y0183903D01*
X0148136Y0180834D01*
X0147369Y0180067D01*
X0145834Y0180067D01*
X0145067Y0180834D01*
X0145067Y0183903D02*
X0145834Y0184671D01*
X0147369Y0184671D01*
X0148136Y0183903D01*
X0149671Y0180834D02*
X0150438Y0180834D01*
X0150438Y0180067D01*
X0149671Y0180067D01*
X0149671Y0180834D01*
X0151973Y0180067D02*
X0155042Y0180067D01*
X0153507Y0180067D02*
X0153507Y0184671D01*
X0151973Y0183136D01*
X0156576Y0183136D02*
X0156576Y0180834D01*
X0157344Y0180067D01*
X0159646Y0180067D01*
X0159646Y0183136D01*
X0161180Y0182369D02*
X0162715Y0182369D01*
X0161180Y0180067D02*
X0161180Y0184671D01*
X0164250Y0184671D01*
X0170067Y0185067D02*
X0170067Y0188136D01*
X0171601Y0188136D02*
X0172369Y0188136D01*
X0171601Y0188136D02*
X0170067Y0186601D01*
X0173903Y0186601D02*
X0176973Y0186601D01*
X0176973Y0187369D01*
X0176205Y0188136D01*
X0174671Y0188136D01*
X0173903Y0187369D01*
X0173903Y0185834D01*
X0174671Y0185067D01*
X0176205Y0185067D01*
X0178507Y0185067D02*
X0180809Y0185067D01*
X0181576Y0185834D01*
X0180809Y0186601D01*
X0179274Y0186601D01*
X0178507Y0187369D01*
X0179274Y0188136D01*
X0181576Y0188136D01*
X0183111Y0187369D02*
X0183111Y0185834D01*
X0183878Y0185067D01*
X0185413Y0185067D01*
X0186180Y0186601D02*
X0183111Y0186601D01*
X0183111Y0187369D02*
X0183878Y0188136D01*
X0185413Y0188136D01*
X0186180Y0187369D01*
X0186180Y0186601D01*
X0187715Y0188136D02*
X0189250Y0188136D01*
X0188482Y0188903D02*
X0188482Y0185834D01*
X0189250Y0185067D01*
X0192567Y0193817D02*
X0195636Y0196119D01*
X0192567Y0198421D01*
X0149667Y0166180D02*
X0145063Y0166180D01*
X0145063Y0169250D01*
X0147365Y0167715D02*
X0147365Y0166180D01*
X0146597Y0164646D02*
X0149667Y0164646D01*
X0149667Y0162344D01*
X0148899Y0161576D01*
X0146597Y0161576D01*
X0149667Y0160042D02*
X0149667Y0156973D01*
X0149667Y0158507D02*
X0145063Y0158507D01*
X0146597Y0156973D01*
X0148899Y0155438D02*
X0148899Y0154671D01*
X0149667Y0154671D01*
X0149667Y0155438D01*
X0148899Y0155438D01*
X0148899Y0153136D02*
X0145830Y0153136D01*
X0148899Y0150067D01*
X0149667Y0150834D01*
X0149667Y0152369D01*
X0148899Y0153136D01*
X0145830Y0153136D02*
X0145063Y0152369D01*
X0145063Y0150834D01*
X0145830Y0150067D01*
X0148899Y0150067D01*
X0147365Y0125363D02*
X0147365Y0122294D01*
X0145063Y0116156D02*
X0145063Y0113086D01*
X0149667Y0113086D01*
X0149667Y0111552D02*
X0146597Y0111552D01*
X0147365Y0113086D02*
X0147365Y0114621D01*
X0149667Y0111552D02*
X0149667Y0109250D01*
X0148899Y0108482D01*
X0146597Y0108482D01*
X0145830Y0106948D02*
X0145063Y0106180D01*
X0145063Y0104646D01*
X0145830Y0103878D01*
X0148899Y0103878D01*
X0145830Y0106948D01*
X0148899Y0106948D01*
X0149667Y0106180D01*
X0149667Y0104646D01*
X0148899Y0103878D01*
X0149667Y0102344D02*
X0149667Y0099275D01*
X0149667Y0100809D02*
X0145063Y0100809D01*
X0146597Y0099275D01*
X0147365Y0093136D02*
X0147365Y0090067D01*
X0148899Y0091601D02*
X0145830Y0091601D01*
X0178755Y0071403D02*
X0178755Y0068334D01*
X0179522Y0067567D01*
X0181057Y0067567D01*
X0181824Y0068334D01*
X0181824Y0069869D01*
X0180289Y0069869D01*
X0178755Y0071403D02*
X0179522Y0072171D01*
X0181057Y0072171D01*
X0181824Y0071403D01*
X0183359Y0072171D02*
X0186428Y0067567D01*
X0186428Y0072171D01*
X0187963Y0072171D02*
X0190265Y0072171D01*
X0191032Y0071403D01*
X0191032Y0068334D01*
X0190265Y0067567D01*
X0187963Y0067567D01*
X0187963Y0072171D01*
X0183359Y0072171D02*
X0183359Y0067567D01*
X0184126Y0077567D02*
X0183359Y0078334D01*
X0184126Y0077567D02*
X0185661Y0077567D01*
X0186428Y0078334D01*
X0186428Y0079869D01*
X0185661Y0080636D01*
X0184893Y0080636D01*
X0183359Y0079869D01*
X0183359Y0082171D01*
X0186428Y0082171D01*
X0187963Y0082171D02*
X0187963Y0079101D01*
X0189497Y0077567D01*
X0191032Y0079101D01*
X0191032Y0082171D01*
X0187963Y0087567D02*
X0187963Y0088334D01*
X0191032Y0091403D01*
X0191032Y0092171D01*
X0187963Y0092171D01*
X0186428Y0091403D02*
X0186428Y0090636D01*
X0185661Y0089869D01*
X0183359Y0089869D01*
X0183359Y0087567D02*
X0183359Y0092171D01*
X0185661Y0092171D01*
X0186428Y0091403D01*
X0185661Y0089869D02*
X0186428Y0089101D01*
X0186428Y0088334D01*
X0185661Y0087567D01*
X0183359Y0087567D01*
X0183359Y0097567D02*
X0185661Y0097567D01*
X0186428Y0098334D01*
X0186428Y0099101D01*
X0185661Y0099869D01*
X0183359Y0099869D01*
X0183359Y0097567D02*
X0183359Y0102171D01*
X0185661Y0102171D01*
X0186428Y0101403D01*
X0186428Y0100636D01*
X0185661Y0099869D01*
X0187963Y0100636D02*
X0187963Y0101403D01*
X0188730Y0102171D01*
X0190265Y0102171D01*
X0191032Y0101403D01*
X0191032Y0100636D01*
X0190265Y0099869D01*
X0188730Y0099869D01*
X0187963Y0100636D01*
X0188730Y0099869D02*
X0187963Y0099101D01*
X0187963Y0098334D01*
X0188730Y0097567D01*
X0190265Y0097567D01*
X0191032Y0098334D01*
X0191032Y0099101D01*
X0190265Y0099869D01*
X0190265Y0107567D02*
X0188730Y0107567D01*
X0187963Y0108334D01*
X0186428Y0108334D02*
X0186428Y0109101D01*
X0185661Y0109869D01*
X0183359Y0109869D01*
X0183359Y0107567D02*
X0183359Y0112171D01*
X0185661Y0112171D01*
X0186428Y0111403D01*
X0186428Y0110636D01*
X0185661Y0109869D01*
X0186428Y0108334D02*
X0185661Y0107567D01*
X0183359Y0107567D01*
X0187963Y0110636D02*
X0187963Y0111403D01*
X0188730Y0112171D01*
X0190265Y0112171D01*
X0191032Y0111403D01*
X0191032Y0108334D01*
X0190265Y0107567D01*
X0191032Y0109869D02*
X0188730Y0109869D01*
X0187963Y0110636D01*
X0188730Y0117567D02*
X0187963Y0118334D01*
X0188730Y0117567D02*
X0190265Y0117567D01*
X0191032Y0118334D01*
X0191032Y0119101D01*
X0190265Y0119869D01*
X0189497Y0119869D01*
X0190265Y0119869D02*
X0191032Y0120636D01*
X0191032Y0121403D01*
X0190265Y0122171D01*
X0188730Y0122171D01*
X0187963Y0121403D01*
X0184893Y0122171D02*
X0184893Y0117567D01*
X0183359Y0117567D02*
X0186428Y0117567D01*
X0183359Y0120636D02*
X0184893Y0122171D01*
X0181824Y0121403D02*
X0181824Y0120636D01*
X0181057Y0119869D01*
X0178755Y0119869D01*
X0178755Y0117567D02*
X0178755Y0122171D01*
X0181057Y0122171D01*
X0181824Y0121403D01*
X0181057Y0119869D02*
X0181824Y0119101D01*
X0181824Y0118334D01*
X0181057Y0117567D01*
X0178755Y0117567D01*
X0178755Y0127567D02*
X0181057Y0127567D01*
X0181824Y0128334D01*
X0181824Y0129101D01*
X0181057Y0129869D01*
X0178755Y0129869D01*
X0178755Y0127567D02*
X0178755Y0132171D01*
X0181057Y0132171D01*
X0181824Y0131403D01*
X0181824Y0130636D01*
X0181057Y0129869D01*
X0183359Y0130636D02*
X0184893Y0132171D01*
X0184893Y0127567D01*
X0183359Y0127567D02*
X0186428Y0127567D01*
X0187963Y0129869D02*
X0191032Y0129869D01*
X0190265Y0127567D02*
X0190265Y0132171D01*
X0187963Y0129869D01*
X0188730Y0137567D02*
X0187963Y0138334D01*
X0188730Y0137567D02*
X0190265Y0137567D01*
X0191032Y0138334D01*
X0191032Y0139869D01*
X0190265Y0140636D01*
X0189497Y0140636D01*
X0187963Y0139869D01*
X0187963Y0142171D01*
X0191032Y0142171D01*
X0184893Y0142171D02*
X0184893Y0137567D01*
X0183359Y0137567D02*
X0186428Y0137567D01*
X0183359Y0140636D02*
X0184893Y0142171D01*
X0181824Y0141403D02*
X0181824Y0140636D01*
X0181057Y0139869D01*
X0178755Y0139869D01*
X0178755Y0137567D02*
X0178755Y0142171D01*
X0181057Y0142171D01*
X0181824Y0141403D01*
X0181057Y0139869D02*
X0181824Y0139101D01*
X0181824Y0138334D01*
X0181057Y0137567D01*
X0178755Y0137567D01*
X0170438Y0052938D02*
X0170438Y0052171D01*
X0170438Y0050636D02*
X0170438Y0047567D01*
X0169671Y0047567D02*
X0171205Y0047567D01*
X0172740Y0048334D02*
X0173507Y0047567D01*
X0175809Y0047567D01*
X0177344Y0047567D02*
X0177344Y0052171D01*
X0178111Y0050636D02*
X0179646Y0050636D01*
X0180413Y0049869D01*
X0180413Y0047567D01*
X0181948Y0048334D02*
X0182715Y0049101D01*
X0185017Y0049101D01*
X0185017Y0049869D02*
X0185017Y0047567D01*
X0182715Y0047567D01*
X0181948Y0048334D01*
X0182715Y0050636D02*
X0184250Y0050636D01*
X0185017Y0049869D01*
X0186552Y0049869D02*
X0187319Y0050636D01*
X0188854Y0050636D01*
X0189621Y0049869D01*
X0189621Y0049101D01*
X0186552Y0049101D01*
X0186552Y0048334D02*
X0186552Y0049869D01*
X0186552Y0048334D02*
X0187319Y0047567D01*
X0188854Y0047567D01*
X0191156Y0047567D02*
X0192690Y0047567D01*
X0191923Y0047567D02*
X0191923Y0052171D01*
X0191156Y0052171D01*
X0186552Y0045438D02*
X0186552Y0044671D01*
X0186552Y0043136D02*
X0186552Y0040067D01*
X0187319Y0040067D02*
X0185784Y0040067D01*
X0184250Y0040067D02*
X0184250Y0042369D01*
X0183482Y0043136D01*
X0181948Y0043136D01*
X0181180Y0042369D01*
X0179646Y0043136D02*
X0178111Y0043136D01*
X0178878Y0043903D02*
X0178878Y0040834D01*
X0179646Y0040067D01*
X0181180Y0040067D02*
X0181180Y0044671D01*
X0176576Y0043136D02*
X0175809Y0043136D01*
X0174275Y0041601D01*
X0174275Y0040067D02*
X0174275Y0043136D01*
X0172740Y0042369D02*
X0172740Y0040834D01*
X0171973Y0040067D01*
X0170438Y0040067D01*
X0169671Y0040834D01*
X0169671Y0042369D01*
X0170438Y0043136D01*
X0171973Y0043136D01*
X0172740Y0042369D01*
X0168136Y0040067D02*
X0168136Y0044671D01*
X0168136Y0047567D02*
X0168136Y0052171D01*
X0166601Y0050636D01*
X0165067Y0052171D01*
X0165067Y0047567D01*
X0165067Y0044671D02*
X0165067Y0040067D01*
X0166601Y0041601D01*
X0168136Y0040067D01*
X0168136Y0037171D02*
X0168136Y0032567D01*
X0169671Y0032567D02*
X0172740Y0032567D01*
X0174275Y0034869D02*
X0177344Y0034869D01*
X0178878Y0034869D02*
X0181948Y0034869D01*
X0183482Y0036403D02*
X0184250Y0037171D01*
X0185784Y0037171D01*
X0186552Y0036403D01*
X0186552Y0035636D01*
X0185784Y0034869D01*
X0186552Y0034101D01*
X0186552Y0033334D01*
X0185784Y0032567D01*
X0184250Y0032567D01*
X0183482Y0033334D01*
X0185017Y0034869D02*
X0185784Y0034869D01*
X0188086Y0036403D02*
X0188854Y0037171D01*
X0190388Y0037171D01*
X0191156Y0036403D01*
X0191156Y0035636D01*
X0190388Y0034869D01*
X0191156Y0034101D01*
X0191156Y0033334D01*
X0190388Y0032567D01*
X0188854Y0032567D01*
X0188086Y0033334D01*
X0189621Y0034869D02*
X0190388Y0034869D01*
X0190388Y0029671D02*
X0188854Y0029671D01*
X0188086Y0028903D01*
X0186552Y0029671D02*
X0183482Y0025067D01*
X0181180Y0025067D02*
X0181180Y0029671D01*
X0178878Y0027369D01*
X0181948Y0027369D01*
X0177344Y0025067D02*
X0174275Y0025067D01*
X0175809Y0025067D02*
X0175809Y0029671D01*
X0174275Y0028136D01*
X0172740Y0029671D02*
X0169671Y0025067D01*
X0167369Y0025067D02*
X0167369Y0029671D01*
X0165067Y0027369D01*
X0168136Y0027369D01*
X0169671Y0032567D02*
X0169671Y0037171D01*
X0172740Y0037171D01*
X0171205Y0034869D02*
X0169671Y0034869D01*
X0168136Y0037171D02*
X0166601Y0035636D01*
X0165067Y0037171D01*
X0165067Y0032567D01*
X0160363Y0027369D02*
X0157294Y0027369D01*
X0151156Y0029671D02*
X0148086Y0029671D01*
X0148086Y0025067D01*
X0146552Y0025067D02*
X0146552Y0028136D01*
X0148086Y0027369D02*
X0149621Y0027369D01*
X0146552Y0025067D02*
X0144250Y0025067D01*
X0143482Y0025834D01*
X0143482Y0028136D01*
X0141948Y0028903D02*
X0141948Y0025834D01*
X0141180Y0025067D01*
X0139646Y0025067D01*
X0138878Y0025834D01*
X0141948Y0028903D01*
X0141180Y0029671D01*
X0139646Y0029671D01*
X0138878Y0028903D01*
X0138878Y0025834D01*
X0137344Y0025067D02*
X0134275Y0025067D01*
X0135809Y0025067D02*
X0135809Y0029671D01*
X0134275Y0028136D01*
X0128136Y0027369D02*
X0125067Y0027369D01*
X0126601Y0028903D02*
X0126601Y0025834D01*
X0094667Y0026180D02*
X0090063Y0026180D01*
X0090063Y0029250D01*
X0092365Y0027715D02*
X0092365Y0026180D01*
X0091597Y0024646D02*
X0094667Y0024646D01*
X0094667Y0022344D01*
X0093899Y0021576D01*
X0091597Y0021576D01*
X0094667Y0020042D02*
X0094667Y0016973D01*
X0094667Y0018507D02*
X0090063Y0018507D01*
X0091597Y0016973D01*
X0093899Y0015438D02*
X0094667Y0015438D01*
X0094667Y0014671D01*
X0093899Y0014671D01*
X0093899Y0015438D01*
X0093899Y0013136D02*
X0094667Y0012369D01*
X0094667Y0010834D01*
X0093899Y0010067D01*
X0090830Y0013136D01*
X0093899Y0013136D01*
X0090830Y0013136D02*
X0090063Y0012369D01*
X0090063Y0010834D01*
X0090830Y0010067D01*
X0093899Y0010067D01*
X0169671Y0050636D02*
X0170438Y0050636D01*
X0172740Y0049869D02*
X0172740Y0048334D01*
X0172740Y0049869D02*
X0173507Y0050636D01*
X0175809Y0050636D01*
X0177344Y0049869D02*
X0178111Y0050636D01*
X0185784Y0043136D02*
X0186552Y0043136D01*
X0188854Y0043136D02*
X0188854Y0040067D01*
X0188854Y0043136D02*
X0191156Y0043136D01*
X0191923Y0042369D01*
X0191923Y0040067D01*
X0193458Y0040834D02*
X0193458Y0042369D01*
X0194225Y0043136D01*
X0196527Y0043136D01*
X0196527Y0039299D01*
X0195759Y0038532D01*
X0194992Y0038532D01*
X0194225Y0040067D02*
X0196527Y0040067D01*
X0194225Y0040067D02*
X0193458Y0040834D01*
X0198061Y0043136D02*
X0199596Y0043136D01*
X0198829Y0043903D02*
X0198829Y0040834D01*
X0199596Y0040067D01*
X0201131Y0040834D02*
X0201131Y0042369D01*
X0201898Y0043136D01*
X0203433Y0043136D01*
X0204200Y0042369D01*
X0204200Y0040834D01*
X0203433Y0040067D01*
X0201898Y0040067D01*
X0201131Y0040834D01*
X0205735Y0040067D02*
X0205735Y0043136D01*
X0208037Y0043136D01*
X0208804Y0042369D01*
X0208804Y0040067D01*
X0204967Y0029671D02*
X0203433Y0028903D01*
X0201898Y0027369D01*
X0204200Y0027369D01*
X0204967Y0026601D01*
X0204967Y0025834D01*
X0204200Y0025067D01*
X0202665Y0025067D01*
X0201898Y0025834D01*
X0201898Y0027369D01*
X0198829Y0029671D02*
X0198829Y0025067D01*
X0200363Y0025067D02*
X0197294Y0025067D01*
X0195759Y0025834D02*
X0194992Y0025067D01*
X0193458Y0025067D01*
X0192690Y0025834D01*
X0195759Y0028903D01*
X0195759Y0025834D01*
X0197294Y0028136D02*
X0198829Y0029671D01*
X0195759Y0028903D02*
X0194992Y0029671D01*
X0193458Y0029671D01*
X0192690Y0028903D01*
X0192690Y0025834D01*
X0191156Y0025067D02*
X0188086Y0025067D01*
X0191156Y0028136D01*
X0191156Y0028903D01*
X0190388Y0029671D01*
X0181180Y0032567D02*
X0181180Y0037171D01*
X0178878Y0034869D01*
D12*
X0179555Y0013369D02*
X0175285Y0013369D01*
X0143367Y0012367D02*
X0143365Y0012280D01*
X0143359Y0012193D01*
X0143350Y0012106D01*
X0143337Y0012020D01*
X0143320Y0011934D01*
X0143299Y0011849D01*
X0143274Y0011766D01*
X0143246Y0011683D01*
X0143215Y0011602D01*
X0143180Y0011522D01*
X0143141Y0011444D01*
X0143099Y0011367D01*
X0143054Y0011292D01*
X0143005Y0011220D01*
X0142954Y0011149D01*
X0142899Y0011081D01*
X0142842Y0011016D01*
X0142781Y0010953D01*
X0142718Y0010892D01*
X0142653Y0010835D01*
X0142585Y0010780D01*
X0142514Y0010729D01*
X0142442Y0010680D01*
X0142367Y0010635D01*
X0142290Y0010593D01*
X0142212Y0010554D01*
X0142132Y0010519D01*
X0142051Y0010488D01*
X0141968Y0010460D01*
X0141885Y0010435D01*
X0141800Y0010414D01*
X0141714Y0010397D01*
X0141628Y0010384D01*
X0141541Y0010375D01*
X0141454Y0010369D01*
X0141367Y0010367D01*
X0128367Y0010367D01*
X0128280Y0010369D01*
X0128193Y0010375D01*
X0128106Y0010384D01*
X0128020Y0010397D01*
X0127934Y0010414D01*
X0127849Y0010435D01*
X0127766Y0010460D01*
X0127683Y0010488D01*
X0127602Y0010519D01*
X0127522Y0010554D01*
X0127444Y0010593D01*
X0127367Y0010635D01*
X0127292Y0010680D01*
X0127220Y0010729D01*
X0127149Y0010780D01*
X0127081Y0010835D01*
X0127016Y0010892D01*
X0126953Y0010953D01*
X0126892Y0011016D01*
X0126835Y0011081D01*
X0126780Y0011149D01*
X0126729Y0011220D01*
X0126680Y0011292D01*
X0126635Y0011367D01*
X0126593Y0011444D01*
X0126554Y0011522D01*
X0126519Y0011602D01*
X0126488Y0011683D01*
X0126460Y0011766D01*
X0126435Y0011849D01*
X0126414Y0011934D01*
X0126397Y0012020D01*
X0126384Y0012106D01*
X0126375Y0012193D01*
X0126369Y0012280D01*
X0126367Y0012367D01*
X0130167Y0013369D02*
X0134437Y0013369D01*
X0133667Y0014867D02*
X0129867Y0014867D01*
X0132302Y0015505D02*
X0132302Y0011234D01*
X0136167Y0014867D02*
X0139867Y0014867D01*
X0143367Y0017367D02*
X0143365Y0017454D01*
X0143359Y0017541D01*
X0143350Y0017628D01*
X0143337Y0017714D01*
X0143320Y0017800D01*
X0143299Y0017885D01*
X0143274Y0017968D01*
X0143246Y0018051D01*
X0143215Y0018132D01*
X0143180Y0018212D01*
X0143141Y0018290D01*
X0143099Y0018367D01*
X0143054Y0018442D01*
X0143005Y0018514D01*
X0142954Y0018585D01*
X0142899Y0018653D01*
X0142842Y0018718D01*
X0142781Y0018781D01*
X0142718Y0018842D01*
X0142653Y0018899D01*
X0142585Y0018954D01*
X0142514Y0019005D01*
X0142442Y0019054D01*
X0142367Y0019099D01*
X0142290Y0019141D01*
X0142212Y0019180D01*
X0142132Y0019215D01*
X0142051Y0019246D01*
X0141968Y0019274D01*
X0141885Y0019299D01*
X0141800Y0019320D01*
X0141714Y0019337D01*
X0141628Y0019350D01*
X0141541Y0019359D01*
X0141454Y0019365D01*
X0141367Y0019367D01*
X0128367Y0019367D01*
X0128280Y0019365D01*
X0128193Y0019359D01*
X0128106Y0019350D01*
X0128020Y0019337D01*
X0127934Y0019320D01*
X0127849Y0019299D01*
X0127766Y0019274D01*
X0127683Y0019246D01*
X0127602Y0019215D01*
X0127522Y0019180D01*
X0127444Y0019141D01*
X0127367Y0019099D01*
X0127292Y0019054D01*
X0127220Y0019005D01*
X0127149Y0018954D01*
X0127081Y0018899D01*
X0127016Y0018842D01*
X0126953Y0018781D01*
X0126892Y0018718D01*
X0126835Y0018653D01*
X0126780Y0018585D01*
X0126729Y0018514D01*
X0126680Y0018442D01*
X0126635Y0018367D01*
X0126593Y0018290D01*
X0126554Y0018212D01*
X0126519Y0018132D01*
X0126488Y0018051D01*
X0126460Y0017968D01*
X0126435Y0017885D01*
X0126414Y0017800D01*
X0126397Y0017714D01*
X0126384Y0017628D01*
X0126375Y0017541D01*
X0126369Y0017454D01*
X0126367Y0017367D01*
X0121367Y0024867D02*
X0098367Y0024867D01*
X0098367Y0164867D01*
X0105867Y0164867D01*
X0105869Y0164741D01*
X0105875Y0164616D01*
X0105885Y0164491D01*
X0105899Y0164366D01*
X0105916Y0164241D01*
X0105938Y0164117D01*
X0105963Y0163994D01*
X0105993Y0163872D01*
X0106026Y0163751D01*
X0106063Y0163631D01*
X0106103Y0163512D01*
X0106148Y0163395D01*
X0106196Y0163278D01*
X0106248Y0163164D01*
X0106303Y0163051D01*
X0106362Y0162940D01*
X0106424Y0162831D01*
X0106490Y0162724D01*
X0106559Y0162619D01*
X0106631Y0162516D01*
X0106706Y0162415D01*
X0106785Y0162317D01*
X0106867Y0162222D01*
X0106951Y0162129D01*
X0107039Y0162039D01*
X0107129Y0161951D01*
X0107222Y0161867D01*
X0107317Y0161785D01*
X0107415Y0161706D01*
X0107516Y0161631D01*
X0107619Y0161559D01*
X0107724Y0161490D01*
X0107831Y0161424D01*
X0107940Y0161362D01*
X0108051Y0161303D01*
X0108164Y0161248D01*
X0108278Y0161196D01*
X0108395Y0161148D01*
X0108512Y0161103D01*
X0108631Y0161063D01*
X0108751Y0161026D01*
X0108872Y0160993D01*
X0108994Y0160963D01*
X0109117Y0160938D01*
X0109241Y0160916D01*
X0109366Y0160899D01*
X0109491Y0160885D01*
X0109616Y0160875D01*
X0109741Y0160869D01*
X0109867Y0160867D01*
X0109993Y0160869D01*
X0110118Y0160875D01*
X0110243Y0160885D01*
X0110368Y0160899D01*
X0110493Y0160916D01*
X0110617Y0160938D01*
X0110740Y0160963D01*
X0110862Y0160993D01*
X0110983Y0161026D01*
X0111103Y0161063D01*
X0111222Y0161103D01*
X0111339Y0161148D01*
X0111456Y0161196D01*
X0111570Y0161248D01*
X0111683Y0161303D01*
X0111794Y0161362D01*
X0111903Y0161424D01*
X0112010Y0161490D01*
X0112115Y0161559D01*
X0112218Y0161631D01*
X0112319Y0161706D01*
X0112417Y0161785D01*
X0112512Y0161867D01*
X0112605Y0161951D01*
X0112695Y0162039D01*
X0112783Y0162129D01*
X0112867Y0162222D01*
X0112949Y0162317D01*
X0113028Y0162415D01*
X0113103Y0162516D01*
X0113175Y0162619D01*
X0113244Y0162724D01*
X0113310Y0162831D01*
X0113372Y0162940D01*
X0113431Y0163051D01*
X0113486Y0163164D01*
X0113538Y0163278D01*
X0113586Y0163395D01*
X0113631Y0163512D01*
X0113671Y0163631D01*
X0113708Y0163751D01*
X0113741Y0163872D01*
X0113771Y0163994D01*
X0113796Y0164117D01*
X0113818Y0164241D01*
X0113835Y0164366D01*
X0113849Y0164491D01*
X0113859Y0164616D01*
X0113865Y0164741D01*
X0113867Y0164867D01*
X0121367Y0164867D01*
X0121367Y0024867D01*
X0116367Y0019367D02*
X0103367Y0019367D01*
X0103280Y0019365D01*
X0103193Y0019359D01*
X0103106Y0019350D01*
X0103020Y0019337D01*
X0102934Y0019320D01*
X0102849Y0019299D01*
X0102766Y0019274D01*
X0102683Y0019246D01*
X0102602Y0019215D01*
X0102522Y0019180D01*
X0102444Y0019141D01*
X0102367Y0019099D01*
X0102292Y0019054D01*
X0102220Y0019005D01*
X0102149Y0018954D01*
X0102081Y0018899D01*
X0102016Y0018842D01*
X0101953Y0018781D01*
X0101892Y0018718D01*
X0101835Y0018653D01*
X0101780Y0018585D01*
X0101729Y0018514D01*
X0101680Y0018442D01*
X0101635Y0018367D01*
X0101593Y0018290D01*
X0101554Y0018212D01*
X0101519Y0018132D01*
X0101488Y0018051D01*
X0101460Y0017968D01*
X0101435Y0017885D01*
X0101414Y0017800D01*
X0101397Y0017714D01*
X0101384Y0017628D01*
X0101375Y0017541D01*
X0101369Y0017454D01*
X0101367Y0017367D01*
X0101367Y0012367D01*
X0101369Y0012280D01*
X0101375Y0012193D01*
X0101384Y0012106D01*
X0101397Y0012020D01*
X0101414Y0011934D01*
X0101435Y0011849D01*
X0101460Y0011766D01*
X0101488Y0011683D01*
X0101519Y0011602D01*
X0101554Y0011522D01*
X0101593Y0011444D01*
X0101635Y0011367D01*
X0101680Y0011292D01*
X0101729Y0011220D01*
X0101780Y0011149D01*
X0101835Y0011081D01*
X0101892Y0011016D01*
X0101953Y0010953D01*
X0102016Y0010892D01*
X0102081Y0010835D01*
X0102149Y0010780D01*
X0102220Y0010729D01*
X0102292Y0010680D01*
X0102367Y0010635D01*
X0102444Y0010593D01*
X0102522Y0010554D01*
X0102602Y0010519D01*
X0102683Y0010488D01*
X0102766Y0010460D01*
X0102849Y0010435D01*
X0102934Y0010414D01*
X0103020Y0010397D01*
X0103106Y0010384D01*
X0103193Y0010375D01*
X0103280Y0010369D01*
X0103367Y0010367D01*
X0116367Y0010367D01*
X0116454Y0010369D01*
X0116541Y0010375D01*
X0116628Y0010384D01*
X0116714Y0010397D01*
X0116800Y0010414D01*
X0116885Y0010435D01*
X0116968Y0010460D01*
X0117051Y0010488D01*
X0117132Y0010519D01*
X0117212Y0010554D01*
X0117290Y0010593D01*
X0117367Y0010635D01*
X0117442Y0010680D01*
X0117514Y0010729D01*
X0117585Y0010780D01*
X0117653Y0010835D01*
X0117718Y0010892D01*
X0117781Y0010953D01*
X0117842Y0011016D01*
X0117899Y0011081D01*
X0117954Y0011149D01*
X0118005Y0011220D01*
X0118054Y0011292D01*
X0118099Y0011367D01*
X0118141Y0011444D01*
X0118180Y0011522D01*
X0118215Y0011602D01*
X0118246Y0011683D01*
X0118274Y0011766D01*
X0118299Y0011849D01*
X0118320Y0011934D01*
X0118337Y0012020D01*
X0118350Y0012106D01*
X0118359Y0012193D01*
X0118365Y0012280D01*
X0118367Y0012367D01*
X0118367Y0017367D01*
X0118365Y0017454D01*
X0118359Y0017541D01*
X0118350Y0017628D01*
X0118337Y0017714D01*
X0118320Y0017800D01*
X0118299Y0017885D01*
X0118274Y0017968D01*
X0118246Y0018051D01*
X0118215Y0018132D01*
X0118180Y0018212D01*
X0118141Y0018290D01*
X0118099Y0018367D01*
X0118054Y0018442D01*
X0118005Y0018514D01*
X0117954Y0018585D01*
X0117899Y0018653D01*
X0117842Y0018718D01*
X0117781Y0018781D01*
X0117718Y0018842D01*
X0117653Y0018899D01*
X0117585Y0018954D01*
X0117514Y0019005D01*
X0117442Y0019054D01*
X0117367Y0019099D01*
X0117290Y0019141D01*
X0117212Y0019180D01*
X0117132Y0019215D01*
X0117051Y0019246D01*
X0116968Y0019274D01*
X0116885Y0019299D01*
X0116800Y0019320D01*
X0116714Y0019337D01*
X0116628Y0019350D01*
X0116541Y0019359D01*
X0116454Y0019365D01*
X0116367Y0019367D01*
X0069867Y0013867D02*
X0069713Y0013869D01*
X0069559Y0013875D01*
X0069405Y0013885D01*
X0069251Y0013899D01*
X0069098Y0013916D01*
X0068946Y0013938D01*
X0068794Y0013964D01*
X0068642Y0013993D01*
X0068492Y0014027D01*
X0068342Y0014064D01*
X0068194Y0014105D01*
X0068046Y0014150D01*
X0067900Y0014199D01*
X0067755Y0014251D01*
X0067612Y0014307D01*
X0067469Y0014367D01*
X0067329Y0014430D01*
X0067190Y0014497D01*
X0067053Y0014568D01*
X0066918Y0014642D01*
X0066785Y0014719D01*
X0066653Y0014800D01*
X0066524Y0014884D01*
X0066397Y0014972D01*
X0066273Y0015063D01*
X0066151Y0015156D01*
X0066031Y0015254D01*
X0065914Y0015354D01*
X0065799Y0015457D01*
X0065687Y0015563D01*
X0065578Y0015671D01*
X0065472Y0015783D01*
X0065368Y0015897D01*
X0065268Y0016014D01*
X0065170Y0016133D01*
X0065076Y0016255D01*
X0064985Y0016380D01*
X0069867Y0025867D02*
X0070019Y0025865D01*
X0070170Y0025859D01*
X0070321Y0025850D01*
X0070473Y0025836D01*
X0070623Y0025819D01*
X0070773Y0025798D01*
X0070923Y0025773D01*
X0071072Y0025745D01*
X0071220Y0025712D01*
X0071367Y0025676D01*
X0071514Y0025637D01*
X0071659Y0025593D01*
X0071803Y0025546D01*
X0071946Y0025495D01*
X0072087Y0025441D01*
X0072228Y0025383D01*
X0072366Y0025322D01*
X0072503Y0025257D01*
X0072639Y0025188D01*
X0072772Y0025117D01*
X0072904Y0025042D01*
X0073034Y0024963D01*
X0073161Y0024882D01*
X0073287Y0024797D01*
X0073411Y0024709D01*
X0073532Y0024618D01*
X0073651Y0024524D01*
X0073767Y0024426D01*
X0073881Y0024326D01*
X0073993Y0024224D01*
X0074101Y0024118D01*
X0074207Y0024010D01*
X0074311Y0023899D01*
X0074411Y0023785D01*
X0074509Y0023669D01*
X0074603Y0023550D01*
X0069867Y0025867D02*
X0069715Y0025865D01*
X0069564Y0025859D01*
X0069413Y0025850D01*
X0069261Y0025836D01*
X0069111Y0025819D01*
X0068961Y0025798D01*
X0068811Y0025773D01*
X0068662Y0025745D01*
X0068514Y0025712D01*
X0068367Y0025676D01*
X0068220Y0025637D01*
X0068075Y0025593D01*
X0067931Y0025546D01*
X0067788Y0025495D01*
X0067647Y0025441D01*
X0067506Y0025383D01*
X0067368Y0025322D01*
X0067231Y0025257D01*
X0067095Y0025188D01*
X0066962Y0025117D01*
X0066830Y0025042D01*
X0066700Y0024963D01*
X0066573Y0024882D01*
X0066447Y0024797D01*
X0066323Y0024709D01*
X0066202Y0024618D01*
X0066083Y0024524D01*
X0065967Y0024426D01*
X0065853Y0024326D01*
X0065741Y0024224D01*
X0065633Y0024118D01*
X0065527Y0024010D01*
X0065423Y0023899D01*
X0065323Y0023785D01*
X0065225Y0023669D01*
X0065131Y0023550D01*
X0069867Y0013867D02*
X0070017Y0013869D01*
X0070168Y0013875D01*
X0070318Y0013884D01*
X0070467Y0013897D01*
X0070617Y0013914D01*
X0070766Y0013935D01*
X0070914Y0013959D01*
X0071062Y0013987D01*
X0071209Y0014019D01*
X0071355Y0014054D01*
X0071500Y0014094D01*
X0071644Y0014136D01*
X0071787Y0014183D01*
X0071929Y0014233D01*
X0072070Y0014286D01*
X0072209Y0014343D01*
X0072347Y0014403D01*
X0072483Y0014467D01*
X0072617Y0014534D01*
X0072750Y0014605D01*
X0072881Y0014679D01*
X0073010Y0014756D01*
X0073137Y0014837D01*
X0073262Y0014920D01*
X0073385Y0015007D01*
X0073506Y0015096D01*
X0073624Y0015189D01*
X0073740Y0015285D01*
X0073854Y0015383D01*
X0073965Y0015484D01*
X0074074Y0015589D01*
X0074179Y0015695D01*
X0074283Y0015805D01*
X0074383Y0015917D01*
X0074481Y0016031D01*
X0074575Y0016148D01*
X0074667Y0016267D01*
X0053367Y0028867D02*
X0053367Y0029867D01*
X0052867Y0030367D01*
X0052867Y0039367D01*
X0053367Y0039867D01*
X0053367Y0040867D01*
X0053365Y0040927D01*
X0053360Y0040988D01*
X0053351Y0041047D01*
X0053338Y0041106D01*
X0053322Y0041165D01*
X0053302Y0041222D01*
X0053279Y0041277D01*
X0053252Y0041332D01*
X0053223Y0041384D01*
X0053190Y0041435D01*
X0053154Y0041484D01*
X0053116Y0041530D01*
X0053074Y0041574D01*
X0053030Y0041616D01*
X0052984Y0041654D01*
X0052935Y0041690D01*
X0052884Y0041723D01*
X0052832Y0041752D01*
X0052777Y0041779D01*
X0052722Y0041802D01*
X0052665Y0041822D01*
X0052606Y0041838D01*
X0052547Y0041851D01*
X0052488Y0041860D01*
X0052427Y0041865D01*
X0052367Y0041867D01*
X0047367Y0041867D02*
X0047307Y0041865D01*
X0047246Y0041860D01*
X0047187Y0041851D01*
X0047128Y0041838D01*
X0047069Y0041822D01*
X0047012Y0041802D01*
X0046957Y0041779D01*
X0046902Y0041752D01*
X0046850Y0041723D01*
X0046799Y0041690D01*
X0046750Y0041654D01*
X0046704Y0041616D01*
X0046660Y0041574D01*
X0046618Y0041530D01*
X0046580Y0041484D01*
X0046544Y0041435D01*
X0046511Y0041384D01*
X0046482Y0041332D01*
X0046455Y0041277D01*
X0046432Y0041222D01*
X0046412Y0041165D01*
X0046396Y0041106D01*
X0046383Y0041047D01*
X0046374Y0040988D01*
X0046369Y0040927D01*
X0046367Y0040867D01*
X0046367Y0039867D01*
X0046867Y0039367D01*
X0046867Y0030367D01*
X0046367Y0029867D01*
X0046367Y0028867D01*
X0046369Y0028807D01*
X0046374Y0028746D01*
X0046383Y0028687D01*
X0046396Y0028628D01*
X0046412Y0028569D01*
X0046432Y0028512D01*
X0046455Y0028457D01*
X0046482Y0028402D01*
X0046511Y0028350D01*
X0046544Y0028299D01*
X0046580Y0028250D01*
X0046618Y0028204D01*
X0046660Y0028160D01*
X0046704Y0028118D01*
X0046750Y0028080D01*
X0046799Y0028044D01*
X0046850Y0028011D01*
X0046902Y0027982D01*
X0046957Y0027955D01*
X0047012Y0027932D01*
X0047069Y0027912D01*
X0047128Y0027896D01*
X0047187Y0027883D01*
X0047246Y0027874D01*
X0047307Y0027869D01*
X0047367Y0027867D01*
X0043367Y0028867D02*
X0043367Y0029867D01*
X0042867Y0030367D01*
X0042867Y0039367D01*
X0043367Y0039867D01*
X0043367Y0040867D01*
X0043365Y0040927D01*
X0043360Y0040988D01*
X0043351Y0041047D01*
X0043338Y0041106D01*
X0043322Y0041165D01*
X0043302Y0041222D01*
X0043279Y0041277D01*
X0043252Y0041332D01*
X0043223Y0041384D01*
X0043190Y0041435D01*
X0043154Y0041484D01*
X0043116Y0041530D01*
X0043074Y0041574D01*
X0043030Y0041616D01*
X0042984Y0041654D01*
X0042935Y0041690D01*
X0042884Y0041723D01*
X0042832Y0041752D01*
X0042777Y0041779D01*
X0042722Y0041802D01*
X0042665Y0041822D01*
X0042606Y0041838D01*
X0042547Y0041851D01*
X0042488Y0041860D01*
X0042427Y0041865D01*
X0042367Y0041867D01*
X0037367Y0041867D02*
X0037307Y0041865D01*
X0037246Y0041860D01*
X0037187Y0041851D01*
X0037128Y0041838D01*
X0037069Y0041822D01*
X0037012Y0041802D01*
X0036957Y0041779D01*
X0036902Y0041752D01*
X0036850Y0041723D01*
X0036799Y0041690D01*
X0036750Y0041654D01*
X0036704Y0041616D01*
X0036660Y0041574D01*
X0036618Y0041530D01*
X0036580Y0041484D01*
X0036544Y0041435D01*
X0036511Y0041384D01*
X0036482Y0041332D01*
X0036455Y0041277D01*
X0036432Y0041222D01*
X0036412Y0041165D01*
X0036396Y0041106D01*
X0036383Y0041047D01*
X0036374Y0040988D01*
X0036369Y0040927D01*
X0036367Y0040867D01*
X0036367Y0039867D01*
X0036867Y0039367D01*
X0036867Y0030367D01*
X0036367Y0029867D01*
X0036367Y0028867D01*
X0036369Y0028807D01*
X0036374Y0028746D01*
X0036383Y0028687D01*
X0036396Y0028628D01*
X0036412Y0028569D01*
X0036432Y0028512D01*
X0036455Y0028457D01*
X0036482Y0028402D01*
X0036511Y0028350D01*
X0036544Y0028299D01*
X0036580Y0028250D01*
X0036618Y0028204D01*
X0036660Y0028160D01*
X0036704Y0028118D01*
X0036750Y0028080D01*
X0036799Y0028044D01*
X0036850Y0028011D01*
X0036902Y0027982D01*
X0036957Y0027955D01*
X0037012Y0027932D01*
X0037069Y0027912D01*
X0037128Y0027896D01*
X0037187Y0027883D01*
X0037246Y0027874D01*
X0037307Y0027869D01*
X0037367Y0027867D01*
X0042367Y0027867D02*
X0042427Y0027869D01*
X0042488Y0027874D01*
X0042547Y0027883D01*
X0042606Y0027896D01*
X0042665Y0027912D01*
X0042722Y0027932D01*
X0042777Y0027955D01*
X0042832Y0027982D01*
X0042884Y0028011D01*
X0042935Y0028044D01*
X0042984Y0028080D01*
X0043030Y0028118D01*
X0043074Y0028160D01*
X0043116Y0028204D01*
X0043154Y0028250D01*
X0043190Y0028299D01*
X0043223Y0028350D01*
X0043252Y0028402D01*
X0043279Y0028457D01*
X0043302Y0028512D01*
X0043322Y0028569D01*
X0043338Y0028628D01*
X0043351Y0028687D01*
X0043360Y0028746D01*
X0043365Y0028807D01*
X0043367Y0028867D01*
X0052367Y0027867D02*
X0052427Y0027869D01*
X0052488Y0027874D01*
X0052547Y0027883D01*
X0052606Y0027896D01*
X0052665Y0027912D01*
X0052722Y0027932D01*
X0052777Y0027955D01*
X0052832Y0027982D01*
X0052884Y0028011D01*
X0052935Y0028044D01*
X0052984Y0028080D01*
X0053030Y0028118D01*
X0053074Y0028160D01*
X0053116Y0028204D01*
X0053154Y0028250D01*
X0053190Y0028299D01*
X0053223Y0028350D01*
X0053252Y0028402D01*
X0053279Y0028457D01*
X0053302Y0028512D01*
X0053322Y0028569D01*
X0053338Y0028628D01*
X0053351Y0028687D01*
X0053360Y0028746D01*
X0053365Y0028807D01*
X0053367Y0028867D01*
X0069867Y0055867D02*
X0070019Y0055865D01*
X0070170Y0055859D01*
X0070321Y0055850D01*
X0070473Y0055836D01*
X0070623Y0055819D01*
X0070773Y0055798D01*
X0070923Y0055773D01*
X0071072Y0055745D01*
X0071220Y0055712D01*
X0071367Y0055676D01*
X0071514Y0055637D01*
X0071659Y0055593D01*
X0071803Y0055546D01*
X0071946Y0055495D01*
X0072087Y0055441D01*
X0072228Y0055383D01*
X0072366Y0055322D01*
X0072503Y0055257D01*
X0072639Y0055188D01*
X0072772Y0055117D01*
X0072904Y0055042D01*
X0073034Y0054963D01*
X0073161Y0054882D01*
X0073287Y0054797D01*
X0073411Y0054709D01*
X0073532Y0054618D01*
X0073651Y0054524D01*
X0073767Y0054426D01*
X0073881Y0054326D01*
X0073993Y0054224D01*
X0074101Y0054118D01*
X0074207Y0054010D01*
X0074311Y0053899D01*
X0074411Y0053785D01*
X0074509Y0053669D01*
X0074603Y0053550D01*
X0069867Y0043867D02*
X0069713Y0043869D01*
X0069559Y0043875D01*
X0069405Y0043885D01*
X0069251Y0043899D01*
X0069098Y0043916D01*
X0068946Y0043938D01*
X0068794Y0043964D01*
X0068642Y0043993D01*
X0068492Y0044027D01*
X0068342Y0044064D01*
X0068194Y0044105D01*
X0068046Y0044150D01*
X0067900Y0044199D01*
X0067755Y0044251D01*
X0067612Y0044307D01*
X0067469Y0044367D01*
X0067329Y0044430D01*
X0067190Y0044497D01*
X0067053Y0044568D01*
X0066918Y0044642D01*
X0066785Y0044719D01*
X0066653Y0044800D01*
X0066524Y0044884D01*
X0066397Y0044972D01*
X0066273Y0045063D01*
X0066151Y0045156D01*
X0066031Y0045254D01*
X0065914Y0045354D01*
X0065799Y0045457D01*
X0065687Y0045563D01*
X0065578Y0045671D01*
X0065472Y0045783D01*
X0065368Y0045897D01*
X0065268Y0046014D01*
X0065170Y0046133D01*
X0065076Y0046255D01*
X0064985Y0046380D01*
X0069867Y0043867D02*
X0070017Y0043869D01*
X0070168Y0043875D01*
X0070318Y0043884D01*
X0070467Y0043897D01*
X0070617Y0043914D01*
X0070766Y0043935D01*
X0070914Y0043959D01*
X0071062Y0043987D01*
X0071209Y0044019D01*
X0071355Y0044054D01*
X0071500Y0044094D01*
X0071644Y0044136D01*
X0071787Y0044183D01*
X0071929Y0044233D01*
X0072070Y0044286D01*
X0072209Y0044343D01*
X0072347Y0044403D01*
X0072483Y0044467D01*
X0072617Y0044534D01*
X0072750Y0044605D01*
X0072881Y0044679D01*
X0073010Y0044756D01*
X0073137Y0044837D01*
X0073262Y0044920D01*
X0073385Y0045007D01*
X0073506Y0045096D01*
X0073624Y0045189D01*
X0073740Y0045285D01*
X0073854Y0045383D01*
X0073965Y0045484D01*
X0074074Y0045589D01*
X0074179Y0045695D01*
X0074283Y0045805D01*
X0074383Y0045917D01*
X0074481Y0046031D01*
X0074575Y0046148D01*
X0074667Y0046267D01*
X0069867Y0055867D02*
X0069715Y0055865D01*
X0069564Y0055859D01*
X0069413Y0055850D01*
X0069261Y0055836D01*
X0069111Y0055819D01*
X0068961Y0055798D01*
X0068811Y0055773D01*
X0068662Y0055745D01*
X0068514Y0055712D01*
X0068367Y0055676D01*
X0068220Y0055637D01*
X0068075Y0055593D01*
X0067931Y0055546D01*
X0067788Y0055495D01*
X0067647Y0055441D01*
X0067506Y0055383D01*
X0067368Y0055322D01*
X0067231Y0055257D01*
X0067095Y0055188D01*
X0066962Y0055117D01*
X0066830Y0055042D01*
X0066700Y0054963D01*
X0066573Y0054882D01*
X0066447Y0054797D01*
X0066323Y0054709D01*
X0066202Y0054618D01*
X0066083Y0054524D01*
X0065967Y0054426D01*
X0065853Y0054326D01*
X0065741Y0054224D01*
X0065633Y0054118D01*
X0065527Y0054010D01*
X0065423Y0053899D01*
X0065323Y0053785D01*
X0065225Y0053669D01*
X0065131Y0053550D01*
X0135367Y0093367D02*
X0135367Y0106367D01*
X0135369Y0106454D01*
X0135375Y0106541D01*
X0135384Y0106628D01*
X0135397Y0106714D01*
X0135414Y0106800D01*
X0135435Y0106885D01*
X0135460Y0106968D01*
X0135488Y0107051D01*
X0135519Y0107132D01*
X0135554Y0107212D01*
X0135593Y0107290D01*
X0135635Y0107367D01*
X0135680Y0107442D01*
X0135729Y0107514D01*
X0135780Y0107585D01*
X0135835Y0107653D01*
X0135892Y0107718D01*
X0135953Y0107781D01*
X0136016Y0107842D01*
X0136081Y0107899D01*
X0136149Y0107954D01*
X0136220Y0108005D01*
X0136292Y0108054D01*
X0136367Y0108099D01*
X0136444Y0108141D01*
X0136522Y0108180D01*
X0136602Y0108215D01*
X0136683Y0108246D01*
X0136766Y0108274D01*
X0136849Y0108299D01*
X0136934Y0108320D01*
X0137020Y0108337D01*
X0137106Y0108350D01*
X0137193Y0108359D01*
X0137280Y0108365D01*
X0137367Y0108367D01*
X0139867Y0104867D02*
X0139867Y0101167D01*
X0139867Y0098667D02*
X0139867Y0094867D01*
X0142367Y0091367D02*
X0142454Y0091369D01*
X0142541Y0091375D01*
X0142628Y0091384D01*
X0142714Y0091397D01*
X0142800Y0091414D01*
X0142885Y0091435D01*
X0142968Y0091460D01*
X0143051Y0091488D01*
X0143132Y0091519D01*
X0143212Y0091554D01*
X0143290Y0091593D01*
X0143367Y0091635D01*
X0143442Y0091680D01*
X0143514Y0091729D01*
X0143585Y0091780D01*
X0143653Y0091835D01*
X0143718Y0091892D01*
X0143781Y0091953D01*
X0143842Y0092016D01*
X0143899Y0092081D01*
X0143954Y0092149D01*
X0144005Y0092220D01*
X0144054Y0092292D01*
X0144099Y0092367D01*
X0144141Y0092444D01*
X0144180Y0092522D01*
X0144215Y0092602D01*
X0144246Y0092683D01*
X0144274Y0092766D01*
X0144299Y0092849D01*
X0144320Y0092934D01*
X0144337Y0093020D01*
X0144350Y0093106D01*
X0144359Y0093193D01*
X0144365Y0093280D01*
X0144367Y0093367D01*
X0144367Y0106367D01*
X0144365Y0106454D01*
X0144359Y0106541D01*
X0144350Y0106628D01*
X0144337Y0106714D01*
X0144320Y0106800D01*
X0144299Y0106885D01*
X0144274Y0106968D01*
X0144246Y0107051D01*
X0144215Y0107132D01*
X0144180Y0107212D01*
X0144141Y0107290D01*
X0144099Y0107367D01*
X0144054Y0107442D01*
X0144005Y0107514D01*
X0143954Y0107585D01*
X0143899Y0107653D01*
X0143842Y0107718D01*
X0143781Y0107781D01*
X0143718Y0107842D01*
X0143653Y0107899D01*
X0143585Y0107954D01*
X0143514Y0108005D01*
X0143442Y0108054D01*
X0143367Y0108099D01*
X0143290Y0108141D01*
X0143212Y0108180D01*
X0143132Y0108215D01*
X0143051Y0108246D01*
X0142968Y0108274D01*
X0142885Y0108299D01*
X0142800Y0108320D01*
X0142714Y0108337D01*
X0142628Y0108350D01*
X0142541Y0108359D01*
X0142454Y0108365D01*
X0142367Y0108367D01*
X0135367Y0093367D02*
X0135369Y0093280D01*
X0135375Y0093193D01*
X0135384Y0093106D01*
X0135397Y0093020D01*
X0135414Y0092934D01*
X0135435Y0092849D01*
X0135460Y0092766D01*
X0135488Y0092683D01*
X0135519Y0092602D01*
X0135554Y0092522D01*
X0135593Y0092444D01*
X0135635Y0092367D01*
X0135680Y0092292D01*
X0135729Y0092220D01*
X0135780Y0092149D01*
X0135835Y0092081D01*
X0135892Y0092016D01*
X0135953Y0091953D01*
X0136016Y0091892D01*
X0136081Y0091835D01*
X0136149Y0091780D01*
X0136220Y0091729D01*
X0136292Y0091680D01*
X0136367Y0091635D01*
X0136444Y0091593D01*
X0136522Y0091554D01*
X0136602Y0091519D01*
X0136683Y0091488D01*
X0136766Y0091460D01*
X0136849Y0091435D01*
X0136934Y0091414D01*
X0137020Y0091397D01*
X0137106Y0091384D01*
X0137193Y0091375D01*
X0137280Y0091369D01*
X0137367Y0091367D01*
X0137367Y0146367D02*
X0142367Y0146367D01*
X0142454Y0146369D01*
X0142541Y0146375D01*
X0142628Y0146384D01*
X0142714Y0146397D01*
X0142800Y0146414D01*
X0142885Y0146435D01*
X0142968Y0146460D01*
X0143051Y0146488D01*
X0143132Y0146519D01*
X0143212Y0146554D01*
X0143290Y0146593D01*
X0143367Y0146635D01*
X0143442Y0146680D01*
X0143514Y0146729D01*
X0143585Y0146780D01*
X0143653Y0146835D01*
X0143718Y0146892D01*
X0143781Y0146953D01*
X0143842Y0147016D01*
X0143899Y0147081D01*
X0143954Y0147149D01*
X0144005Y0147220D01*
X0144054Y0147292D01*
X0144099Y0147367D01*
X0144141Y0147444D01*
X0144180Y0147522D01*
X0144215Y0147602D01*
X0144246Y0147683D01*
X0144274Y0147766D01*
X0144299Y0147849D01*
X0144320Y0147934D01*
X0144337Y0148020D01*
X0144350Y0148106D01*
X0144359Y0148193D01*
X0144365Y0148280D01*
X0144367Y0148367D01*
X0144367Y0161367D01*
X0144365Y0161454D01*
X0144359Y0161541D01*
X0144350Y0161628D01*
X0144337Y0161714D01*
X0144320Y0161800D01*
X0144299Y0161885D01*
X0144274Y0161968D01*
X0144246Y0162051D01*
X0144215Y0162132D01*
X0144180Y0162212D01*
X0144141Y0162290D01*
X0144099Y0162367D01*
X0144054Y0162442D01*
X0144005Y0162514D01*
X0143954Y0162585D01*
X0143899Y0162653D01*
X0143842Y0162718D01*
X0143781Y0162781D01*
X0143718Y0162842D01*
X0143653Y0162899D01*
X0143585Y0162954D01*
X0143514Y0163005D01*
X0143442Y0163054D01*
X0143367Y0163099D01*
X0143290Y0163141D01*
X0143212Y0163180D01*
X0143132Y0163215D01*
X0143051Y0163246D01*
X0142968Y0163274D01*
X0142885Y0163299D01*
X0142800Y0163320D01*
X0142714Y0163337D01*
X0142628Y0163350D01*
X0142541Y0163359D01*
X0142454Y0163365D01*
X0142367Y0163367D01*
X0137367Y0163367D01*
X0137280Y0163365D01*
X0137193Y0163359D01*
X0137106Y0163350D01*
X0137020Y0163337D01*
X0136934Y0163320D01*
X0136849Y0163299D01*
X0136766Y0163274D01*
X0136683Y0163246D01*
X0136602Y0163215D01*
X0136522Y0163180D01*
X0136444Y0163141D01*
X0136367Y0163099D01*
X0136292Y0163054D01*
X0136220Y0163005D01*
X0136149Y0162954D01*
X0136081Y0162899D01*
X0136016Y0162842D01*
X0135953Y0162781D01*
X0135892Y0162718D01*
X0135835Y0162653D01*
X0135780Y0162585D01*
X0135729Y0162514D01*
X0135680Y0162442D01*
X0135635Y0162367D01*
X0135593Y0162290D01*
X0135554Y0162212D01*
X0135519Y0162132D01*
X0135488Y0162051D01*
X0135460Y0161968D01*
X0135435Y0161885D01*
X0135414Y0161800D01*
X0135397Y0161714D01*
X0135384Y0161628D01*
X0135375Y0161541D01*
X0135369Y0161454D01*
X0135367Y0161367D01*
X0135367Y0148367D01*
X0135369Y0148280D01*
X0135375Y0148193D01*
X0135384Y0148106D01*
X0135397Y0148020D01*
X0135414Y0147934D01*
X0135435Y0147849D01*
X0135460Y0147766D01*
X0135488Y0147683D01*
X0135519Y0147602D01*
X0135554Y0147522D01*
X0135593Y0147444D01*
X0135635Y0147367D01*
X0135680Y0147292D01*
X0135729Y0147220D01*
X0135780Y0147149D01*
X0135835Y0147081D01*
X0135892Y0147016D01*
X0135953Y0146953D01*
X0136016Y0146892D01*
X0136081Y0146835D01*
X0136149Y0146780D01*
X0136220Y0146729D01*
X0136292Y0146680D01*
X0136367Y0146635D01*
X0136444Y0146593D01*
X0136522Y0146554D01*
X0136602Y0146519D01*
X0136683Y0146488D01*
X0136766Y0146460D01*
X0136849Y0146435D01*
X0136934Y0146414D01*
X0137020Y0146397D01*
X0137106Y0146384D01*
X0137193Y0146375D01*
X0137280Y0146369D01*
X0137367Y0146367D01*
X0107367Y0181367D02*
X0102367Y0181367D01*
X0102280Y0181369D01*
X0102193Y0181375D01*
X0102106Y0181384D01*
X0102020Y0181397D01*
X0101934Y0181414D01*
X0101849Y0181435D01*
X0101766Y0181460D01*
X0101683Y0181488D01*
X0101602Y0181519D01*
X0101522Y0181554D01*
X0101444Y0181593D01*
X0101367Y0181635D01*
X0101292Y0181680D01*
X0101220Y0181729D01*
X0101149Y0181780D01*
X0101081Y0181835D01*
X0101016Y0181892D01*
X0100953Y0181953D01*
X0100892Y0182016D01*
X0100835Y0182081D01*
X0100780Y0182149D01*
X0100729Y0182220D01*
X0100680Y0182292D01*
X0100635Y0182367D01*
X0100593Y0182444D01*
X0100554Y0182522D01*
X0100519Y0182602D01*
X0100488Y0182683D01*
X0100460Y0182766D01*
X0100435Y0182849D01*
X0100414Y0182934D01*
X0100397Y0183020D01*
X0100384Y0183106D01*
X0100375Y0183193D01*
X0100369Y0183280D01*
X0100367Y0183367D01*
X0100367Y0196367D01*
X0100369Y0196454D01*
X0100375Y0196541D01*
X0100384Y0196628D01*
X0100397Y0196714D01*
X0100414Y0196800D01*
X0100435Y0196885D01*
X0100460Y0196968D01*
X0100488Y0197051D01*
X0100519Y0197132D01*
X0100554Y0197212D01*
X0100593Y0197290D01*
X0100635Y0197367D01*
X0100680Y0197442D01*
X0100729Y0197514D01*
X0100780Y0197585D01*
X0100835Y0197653D01*
X0100892Y0197718D01*
X0100953Y0197781D01*
X0101016Y0197842D01*
X0101081Y0197899D01*
X0101149Y0197954D01*
X0101220Y0198005D01*
X0101292Y0198054D01*
X0101367Y0198099D01*
X0101444Y0198141D01*
X0101522Y0198180D01*
X0101602Y0198215D01*
X0101683Y0198246D01*
X0101766Y0198274D01*
X0101849Y0198299D01*
X0101934Y0198320D01*
X0102020Y0198337D01*
X0102106Y0198350D01*
X0102193Y0198359D01*
X0102280Y0198365D01*
X0102367Y0198367D01*
X0107367Y0198367D01*
X0107454Y0198365D01*
X0107541Y0198359D01*
X0107628Y0198350D01*
X0107714Y0198337D01*
X0107800Y0198320D01*
X0107885Y0198299D01*
X0107968Y0198274D01*
X0108051Y0198246D01*
X0108132Y0198215D01*
X0108212Y0198180D01*
X0108290Y0198141D01*
X0108367Y0198099D01*
X0108442Y0198054D01*
X0108514Y0198005D01*
X0108585Y0197954D01*
X0108653Y0197899D01*
X0108718Y0197842D01*
X0108781Y0197781D01*
X0108842Y0197718D01*
X0108899Y0197653D01*
X0108954Y0197585D01*
X0109005Y0197514D01*
X0109054Y0197442D01*
X0109099Y0197367D01*
X0109141Y0197290D01*
X0109180Y0197212D01*
X0109215Y0197132D01*
X0109246Y0197051D01*
X0109274Y0196968D01*
X0109299Y0196885D01*
X0109320Y0196800D01*
X0109337Y0196714D01*
X0109350Y0196628D01*
X0109359Y0196541D01*
X0109365Y0196454D01*
X0109367Y0196367D01*
X0109367Y0183367D01*
X0109365Y0183280D01*
X0109359Y0183193D01*
X0109350Y0183106D01*
X0109337Y0183020D01*
X0109320Y0182934D01*
X0109299Y0182849D01*
X0109274Y0182766D01*
X0109246Y0182683D01*
X0109215Y0182602D01*
X0109180Y0182522D01*
X0109141Y0182444D01*
X0109099Y0182367D01*
X0109054Y0182292D01*
X0109005Y0182220D01*
X0108954Y0182149D01*
X0108899Y0182081D01*
X0108842Y0182016D01*
X0108781Y0181953D01*
X0108718Y0181892D01*
X0108653Y0181835D01*
X0108585Y0181780D01*
X0108514Y0181729D01*
X0108442Y0181680D01*
X0108367Y0181635D01*
X0108290Y0181593D01*
X0108212Y0181554D01*
X0108132Y0181519D01*
X0108051Y0181488D01*
X0107968Y0181460D01*
X0107885Y0181435D01*
X0107800Y0181414D01*
X0107714Y0181397D01*
X0107628Y0181384D01*
X0107541Y0181375D01*
X0107454Y0181369D01*
X0107367Y0181367D01*
X0083367Y0175867D02*
X0083367Y0174867D01*
X0082867Y0174367D01*
X0082867Y0165367D01*
X0083367Y0164867D01*
X0083367Y0163867D01*
X0083365Y0163807D01*
X0083360Y0163746D01*
X0083351Y0163687D01*
X0083338Y0163628D01*
X0083322Y0163569D01*
X0083302Y0163512D01*
X0083279Y0163457D01*
X0083252Y0163402D01*
X0083223Y0163350D01*
X0083190Y0163299D01*
X0083154Y0163250D01*
X0083116Y0163204D01*
X0083074Y0163160D01*
X0083030Y0163118D01*
X0082984Y0163080D01*
X0082935Y0163044D01*
X0082884Y0163011D01*
X0082832Y0162982D01*
X0082777Y0162955D01*
X0082722Y0162932D01*
X0082665Y0162912D01*
X0082606Y0162896D01*
X0082547Y0162883D01*
X0082488Y0162874D01*
X0082427Y0162869D01*
X0082367Y0162867D01*
X0077367Y0162867D02*
X0077307Y0162869D01*
X0077246Y0162874D01*
X0077187Y0162883D01*
X0077128Y0162896D01*
X0077069Y0162912D01*
X0077012Y0162932D01*
X0076957Y0162955D01*
X0076902Y0162982D01*
X0076850Y0163011D01*
X0076799Y0163044D01*
X0076750Y0163080D01*
X0076704Y0163118D01*
X0076660Y0163160D01*
X0076618Y0163204D01*
X0076580Y0163250D01*
X0076544Y0163299D01*
X0076511Y0163350D01*
X0076482Y0163402D01*
X0076455Y0163457D01*
X0076432Y0163512D01*
X0076412Y0163569D01*
X0076396Y0163628D01*
X0076383Y0163687D01*
X0076374Y0163746D01*
X0076369Y0163807D01*
X0076367Y0163867D01*
X0076367Y0164867D01*
X0076867Y0165367D01*
X0076867Y0174367D01*
X0076367Y0174867D01*
X0076367Y0175867D01*
X0076369Y0175927D01*
X0076374Y0175988D01*
X0076383Y0176047D01*
X0076396Y0176106D01*
X0076412Y0176165D01*
X0076432Y0176222D01*
X0076455Y0176277D01*
X0076482Y0176332D01*
X0076511Y0176384D01*
X0076544Y0176435D01*
X0076580Y0176484D01*
X0076618Y0176530D01*
X0076660Y0176574D01*
X0076704Y0176616D01*
X0076750Y0176654D01*
X0076799Y0176690D01*
X0076850Y0176723D01*
X0076902Y0176752D01*
X0076957Y0176779D01*
X0077012Y0176802D01*
X0077069Y0176822D01*
X0077128Y0176838D01*
X0077187Y0176851D01*
X0077246Y0176860D01*
X0077307Y0176865D01*
X0077367Y0176867D01*
X0082367Y0176867D02*
X0082427Y0176865D01*
X0082488Y0176860D01*
X0082547Y0176851D01*
X0082606Y0176838D01*
X0082665Y0176822D01*
X0082722Y0176802D01*
X0082777Y0176779D01*
X0082832Y0176752D01*
X0082884Y0176723D01*
X0082935Y0176690D01*
X0082984Y0176654D01*
X0083030Y0176616D01*
X0083074Y0176574D01*
X0083116Y0176530D01*
X0083154Y0176484D01*
X0083190Y0176435D01*
X0083223Y0176384D01*
X0083252Y0176332D01*
X0083279Y0176277D01*
X0083302Y0176222D01*
X0083322Y0176165D01*
X0083338Y0176106D01*
X0083351Y0176047D01*
X0083360Y0175988D01*
X0083365Y0175927D01*
X0083367Y0175867D01*
X0063367Y0175867D02*
X0063367Y0174867D01*
X0062867Y0174367D01*
X0062867Y0165367D01*
X0063367Y0164867D01*
X0063367Y0163867D01*
X0063365Y0163807D01*
X0063360Y0163746D01*
X0063351Y0163687D01*
X0063338Y0163628D01*
X0063322Y0163569D01*
X0063302Y0163512D01*
X0063279Y0163457D01*
X0063252Y0163402D01*
X0063223Y0163350D01*
X0063190Y0163299D01*
X0063154Y0163250D01*
X0063116Y0163204D01*
X0063074Y0163160D01*
X0063030Y0163118D01*
X0062984Y0163080D01*
X0062935Y0163044D01*
X0062884Y0163011D01*
X0062832Y0162982D01*
X0062777Y0162955D01*
X0062722Y0162932D01*
X0062665Y0162912D01*
X0062606Y0162896D01*
X0062547Y0162883D01*
X0062488Y0162874D01*
X0062427Y0162869D01*
X0062367Y0162867D01*
X0057367Y0162867D02*
X0057307Y0162869D01*
X0057246Y0162874D01*
X0057187Y0162883D01*
X0057128Y0162896D01*
X0057069Y0162912D01*
X0057012Y0162932D01*
X0056957Y0162955D01*
X0056902Y0162982D01*
X0056850Y0163011D01*
X0056799Y0163044D01*
X0056750Y0163080D01*
X0056704Y0163118D01*
X0056660Y0163160D01*
X0056618Y0163204D01*
X0056580Y0163250D01*
X0056544Y0163299D01*
X0056511Y0163350D01*
X0056482Y0163402D01*
X0056455Y0163457D01*
X0056432Y0163512D01*
X0056412Y0163569D01*
X0056396Y0163628D01*
X0056383Y0163687D01*
X0056374Y0163746D01*
X0056369Y0163807D01*
X0056367Y0163867D01*
X0056367Y0164867D01*
X0056867Y0165367D01*
X0056867Y0174367D01*
X0056367Y0174867D01*
X0056367Y0175867D01*
X0056369Y0175927D01*
X0056374Y0175988D01*
X0056383Y0176047D01*
X0056396Y0176106D01*
X0056412Y0176165D01*
X0056432Y0176222D01*
X0056455Y0176277D01*
X0056482Y0176332D01*
X0056511Y0176384D01*
X0056544Y0176435D01*
X0056580Y0176484D01*
X0056618Y0176530D01*
X0056660Y0176574D01*
X0056704Y0176616D01*
X0056750Y0176654D01*
X0056799Y0176690D01*
X0056850Y0176723D01*
X0056902Y0176752D01*
X0056957Y0176779D01*
X0057012Y0176802D01*
X0057069Y0176822D01*
X0057128Y0176838D01*
X0057187Y0176851D01*
X0057246Y0176860D01*
X0057307Y0176865D01*
X0057367Y0176867D01*
X0062367Y0176867D02*
X0062427Y0176865D01*
X0062488Y0176860D01*
X0062547Y0176851D01*
X0062606Y0176838D01*
X0062665Y0176822D01*
X0062722Y0176802D01*
X0062777Y0176779D01*
X0062832Y0176752D01*
X0062884Y0176723D01*
X0062935Y0176690D01*
X0062984Y0176654D01*
X0063030Y0176616D01*
X0063074Y0176574D01*
X0063116Y0176530D01*
X0063154Y0176484D01*
X0063190Y0176435D01*
X0063223Y0176384D01*
X0063252Y0176332D01*
X0063279Y0176277D01*
X0063302Y0176222D01*
X0063322Y0176165D01*
X0063338Y0176106D01*
X0063351Y0176047D01*
X0063360Y0175988D01*
X0063365Y0175927D01*
X0063367Y0175867D01*
X0141367Y0187367D02*
X0141367Y0192367D01*
X0141369Y0192454D01*
X0141375Y0192541D01*
X0141384Y0192628D01*
X0141397Y0192714D01*
X0141414Y0192800D01*
X0141435Y0192885D01*
X0141460Y0192968D01*
X0141488Y0193051D01*
X0141519Y0193132D01*
X0141554Y0193212D01*
X0141593Y0193290D01*
X0141635Y0193367D01*
X0141680Y0193442D01*
X0141729Y0193514D01*
X0141780Y0193585D01*
X0141835Y0193653D01*
X0141892Y0193718D01*
X0141953Y0193781D01*
X0142016Y0193842D01*
X0142081Y0193899D01*
X0142149Y0193954D01*
X0142220Y0194005D01*
X0142292Y0194054D01*
X0142367Y0194099D01*
X0142444Y0194141D01*
X0142522Y0194180D01*
X0142602Y0194215D01*
X0142683Y0194246D01*
X0142766Y0194274D01*
X0142849Y0194299D01*
X0142934Y0194320D01*
X0143020Y0194337D01*
X0143106Y0194350D01*
X0143193Y0194359D01*
X0143280Y0194365D01*
X0143367Y0194367D01*
X0156367Y0194367D01*
X0156454Y0194365D01*
X0156541Y0194359D01*
X0156628Y0194350D01*
X0156714Y0194337D01*
X0156800Y0194320D01*
X0156885Y0194299D01*
X0156968Y0194274D01*
X0157051Y0194246D01*
X0157132Y0194215D01*
X0157212Y0194180D01*
X0157290Y0194141D01*
X0157367Y0194099D01*
X0157442Y0194054D01*
X0157514Y0194005D01*
X0157585Y0193954D01*
X0157653Y0193899D01*
X0157718Y0193842D01*
X0157781Y0193781D01*
X0157842Y0193718D01*
X0157899Y0193653D01*
X0157954Y0193585D01*
X0158005Y0193514D01*
X0158054Y0193442D01*
X0158099Y0193367D01*
X0158141Y0193290D01*
X0158180Y0193212D01*
X0158215Y0193132D01*
X0158246Y0193051D01*
X0158274Y0192968D01*
X0158299Y0192885D01*
X0158320Y0192800D01*
X0158337Y0192714D01*
X0158350Y0192628D01*
X0158359Y0192541D01*
X0158365Y0192454D01*
X0158367Y0192367D01*
X0158367Y0187367D01*
X0158365Y0187280D01*
X0158359Y0187193D01*
X0158350Y0187106D01*
X0158337Y0187020D01*
X0158320Y0186934D01*
X0158299Y0186849D01*
X0158274Y0186766D01*
X0158246Y0186683D01*
X0158215Y0186602D01*
X0158180Y0186522D01*
X0158141Y0186444D01*
X0158099Y0186367D01*
X0158054Y0186292D01*
X0158005Y0186220D01*
X0157954Y0186149D01*
X0157899Y0186081D01*
X0157842Y0186016D01*
X0157781Y0185953D01*
X0157718Y0185892D01*
X0157653Y0185835D01*
X0157585Y0185780D01*
X0157514Y0185729D01*
X0157442Y0185680D01*
X0157367Y0185635D01*
X0157290Y0185593D01*
X0157212Y0185554D01*
X0157132Y0185519D01*
X0157051Y0185488D01*
X0156968Y0185460D01*
X0156885Y0185435D01*
X0156800Y0185414D01*
X0156714Y0185397D01*
X0156628Y0185384D01*
X0156541Y0185375D01*
X0156454Y0185369D01*
X0156367Y0185367D01*
X0143367Y0185367D01*
X0143280Y0185369D01*
X0143193Y0185375D01*
X0143106Y0185384D01*
X0143020Y0185397D01*
X0142934Y0185414D01*
X0142849Y0185435D01*
X0142766Y0185460D01*
X0142683Y0185488D01*
X0142602Y0185519D01*
X0142522Y0185554D01*
X0142444Y0185593D01*
X0142367Y0185635D01*
X0142292Y0185680D01*
X0142220Y0185729D01*
X0142149Y0185780D01*
X0142081Y0185835D01*
X0142016Y0185892D01*
X0141953Y0185953D01*
X0141892Y0186016D01*
X0141835Y0186081D01*
X0141780Y0186149D01*
X0141729Y0186220D01*
X0141680Y0186292D01*
X0141635Y0186367D01*
X0141593Y0186444D01*
X0141554Y0186522D01*
X0141519Y0186602D01*
X0141488Y0186683D01*
X0141460Y0186766D01*
X0141435Y0186849D01*
X0141414Y0186934D01*
X0141397Y0187020D01*
X0141384Y0187106D01*
X0141375Y0187193D01*
X0141369Y0187280D01*
X0141367Y0187367D01*
D13*
X0142221Y0185867D02*
X0142971Y0185117D01*
X0144473Y0185117D01*
X0145223Y0185867D01*
X0146825Y0185117D02*
X0146825Y0189620D01*
X0149076Y0189620D01*
X0149827Y0188870D01*
X0149827Y0187369D01*
X0149076Y0186618D01*
X0146825Y0186618D01*
X0146307Y0184120D02*
X0143305Y0184120D01*
X0143305Y0179617D01*
X0141703Y0180367D02*
X0141703Y0184120D01*
X0140619Y0185117D02*
X0140619Y0189620D01*
X0139118Y0188119D01*
X0137617Y0189620D01*
X0137617Y0185117D01*
X0138701Y0184120D02*
X0138701Y0180367D01*
X0139452Y0179617D01*
X0140953Y0179617D01*
X0141703Y0180367D01*
X0143305Y0181869D02*
X0144806Y0181869D01*
X0147909Y0178866D02*
X0150911Y0178866D01*
X0152513Y0181869D02*
X0155515Y0181869D01*
X0154765Y0184120D02*
X0154765Y0179617D01*
X0152513Y0181869D02*
X0154765Y0184120D01*
X0154431Y0185117D02*
X0151428Y0185117D01*
X0152930Y0185117D02*
X0152930Y0189620D01*
X0151428Y0188119D01*
X0149827Y0192617D02*
X0146825Y0192617D01*
X0149827Y0195619D01*
X0149827Y0196370D01*
X0149076Y0197120D01*
X0147575Y0197120D01*
X0146825Y0196370D01*
X0145223Y0196370D02*
X0144473Y0197120D01*
X0142971Y0197120D01*
X0142221Y0196370D01*
X0142221Y0195619D01*
X0142971Y0194869D01*
X0144473Y0194869D01*
X0145223Y0194118D01*
X0145223Y0193367D01*
X0144473Y0192617D01*
X0142971Y0192617D01*
X0142221Y0193367D01*
X0140619Y0193367D02*
X0139869Y0192617D01*
X0138367Y0192617D01*
X0137617Y0193367D01*
X0137617Y0197120D01*
X0140619Y0197120D02*
X0140619Y0193367D01*
X0143722Y0191866D02*
X0143722Y0197871D01*
X0144473Y0189620D02*
X0142971Y0189620D01*
X0142221Y0188870D01*
X0142221Y0185867D01*
X0145223Y0188870D02*
X0144473Y0189620D01*
X0135319Y0188867D02*
X0133739Y0188867D01*
X0135598Y0184120D02*
X0134097Y0182619D01*
X0133113Y0183367D02*
X0116621Y0183367D01*
X0115117Y0183305D02*
X0110613Y0183305D01*
X0110613Y0186307D01*
X0112865Y0184806D02*
X0112865Y0183305D01*
X0114366Y0181703D02*
X0110613Y0181703D01*
X0110613Y0178701D02*
X0114366Y0178701D01*
X0115117Y0179452D01*
X0115117Y0180953D01*
X0114366Y0181703D01*
X0115117Y0177100D02*
X0115117Y0174097D01*
X0115117Y0175598D02*
X0110613Y0175598D01*
X0112114Y0174097D01*
X0114366Y0172546D02*
X0115117Y0172546D01*
X0115117Y0171795D01*
X0114366Y0171795D01*
X0114366Y0172546D01*
X0114366Y0170194D02*
X0111363Y0170194D01*
X0114366Y0167191D01*
X0115117Y0167942D01*
X0115117Y0169443D01*
X0114366Y0170194D01*
X0111363Y0170194D02*
X0110613Y0169443D01*
X0110613Y0167942D01*
X0111363Y0167191D01*
X0114366Y0167191D01*
X0110827Y0166117D02*
X0107825Y0166117D01*
X0109326Y0166117D02*
X0109326Y0170620D01*
X0107825Y0169119D01*
X0106223Y0169870D02*
X0105473Y0170620D01*
X0103971Y0170620D01*
X0103221Y0169870D01*
X0103221Y0169119D01*
X0103971Y0168369D01*
X0105473Y0168369D01*
X0106223Y0167618D01*
X0106223Y0166867D01*
X0105473Y0166117D01*
X0103971Y0166117D01*
X0103221Y0166867D01*
X0101619Y0166867D02*
X0101619Y0170620D01*
X0098617Y0170620D02*
X0098617Y0166867D01*
X0099367Y0166117D01*
X0100869Y0166117D01*
X0101619Y0166867D01*
X0104722Y0165366D02*
X0104722Y0171371D01*
X0115867Y0187909D02*
X0115867Y0190911D01*
X0115117Y0192513D02*
X0115117Y0195515D01*
X0115117Y0194014D02*
X0110613Y0194014D01*
X0112114Y0192513D01*
X0114414Y0188867D02*
X0115994Y0188867D01*
X0123739Y0188867D02*
X0125994Y0188867D01*
X0116621Y0183366D02*
X0116468Y0183565D01*
X0116320Y0183767D01*
X0116177Y0183972D01*
X0116039Y0184181D01*
X0115906Y0184393D01*
X0115778Y0184608D01*
X0115656Y0184826D01*
X0115538Y0185047D01*
X0115426Y0185271D01*
X0115319Y0185497D01*
X0115218Y0185726D01*
X0115122Y0185957D01*
X0115031Y0186191D01*
X0114946Y0186426D01*
X0114867Y0186664D01*
X0114794Y0186903D01*
X0114726Y0187144D01*
X0114664Y0187386D01*
X0114608Y0187630D01*
X0114557Y0187876D01*
X0114513Y0188122D01*
X0114474Y0188369D01*
X0114442Y0188617D01*
X0114415Y0188866D01*
X0127963Y0199900D02*
X0128205Y0199822D01*
X0128445Y0199738D01*
X0128683Y0199649D01*
X0128919Y0199553D01*
X0129153Y0199452D01*
X0129384Y0199346D01*
X0129612Y0199233D01*
X0129838Y0199116D01*
X0130061Y0198993D01*
X0130280Y0198864D01*
X0130497Y0198730D01*
X0130710Y0198591D01*
X0130920Y0198447D01*
X0131126Y0198298D01*
X0131328Y0198144D01*
X0131527Y0197985D01*
X0131722Y0197821D01*
X0131913Y0197652D01*
X0132099Y0197479D01*
X0132282Y0197302D01*
X0132460Y0197120D01*
X0132633Y0196934D01*
X0132802Y0196743D01*
X0132966Y0196549D01*
X0133126Y0196351D01*
X0133281Y0196149D01*
X0133430Y0195943D01*
X0133575Y0195734D01*
X0133715Y0195521D01*
X0133849Y0195305D01*
X0133978Y0195085D01*
X0134102Y0194863D01*
X0134221Y0194638D01*
X0134333Y0194410D01*
X0134441Y0194179D01*
X0134542Y0193946D01*
X0134638Y0193710D01*
X0134729Y0193472D01*
X0134813Y0193232D01*
X0134892Y0192990D01*
X0134965Y0192746D01*
X0135031Y0192500D01*
X0135092Y0192253D01*
X0135147Y0192005D01*
X0135196Y0191755D01*
X0135239Y0191504D01*
X0135275Y0191252D01*
X0135306Y0191000D01*
X0135330Y0190746D01*
X0135348Y0190493D01*
X0135360Y0190238D01*
X0135366Y0189984D01*
X0135366Y0189729D01*
X0135360Y0189475D01*
X0135347Y0189221D01*
X0135328Y0188967D01*
X0135303Y0188714D01*
X0135272Y0188461D01*
X0135235Y0188209D01*
X0135192Y0187959D01*
X0135143Y0187709D01*
X0135088Y0187460D01*
X0135026Y0187213D01*
X0134959Y0186968D01*
X0134886Y0186724D01*
X0134807Y0186482D01*
X0134722Y0186243D01*
X0134631Y0186005D01*
X0134534Y0185769D01*
X0134432Y0185536D01*
X0134324Y0185306D01*
X0134211Y0185078D01*
X0134092Y0184853D01*
X0133968Y0184631D01*
X0133839Y0184412D01*
X0133704Y0184196D01*
X0133564Y0183983D01*
X0133418Y0183774D01*
X0133268Y0183569D01*
X0133113Y0183367D01*
X0135598Y0184120D02*
X0135598Y0179617D01*
X0134097Y0179617D02*
X0137100Y0179617D01*
X0132546Y0179617D02*
X0131795Y0179617D01*
X0131795Y0180367D01*
X0132546Y0180367D01*
X0132546Y0179617D01*
X0130194Y0180367D02*
X0130194Y0183370D01*
X0127191Y0180367D01*
X0127942Y0179617D01*
X0129443Y0179617D01*
X0130194Y0180367D01*
X0127191Y0180367D02*
X0127191Y0183370D01*
X0127942Y0184120D01*
X0129443Y0184120D01*
X0130194Y0183370D01*
X0114415Y0188867D02*
X0114393Y0189122D01*
X0114378Y0189378D01*
X0114370Y0189634D01*
X0114367Y0189891D01*
X0114371Y0190147D01*
X0114381Y0190403D01*
X0114397Y0190659D01*
X0114419Y0190914D01*
X0114448Y0191169D01*
X0114483Y0191423D01*
X0114524Y0191676D01*
X0114571Y0191928D01*
X0114625Y0192178D01*
X0114684Y0192427D01*
X0114750Y0192675D01*
X0114821Y0192921D01*
X0114899Y0193166D01*
X0114982Y0193408D01*
X0115071Y0193648D01*
X0115167Y0193886D01*
X0115268Y0194122D01*
X0115374Y0194355D01*
X0115487Y0194585D01*
X0115605Y0194813D01*
X0115728Y0195037D01*
X0115857Y0195259D01*
X0115991Y0195477D01*
X0116131Y0195692D01*
X0116276Y0195903D01*
X0116426Y0196111D01*
X0116580Y0196315D01*
X0116740Y0196516D01*
X0116905Y0196712D01*
X0117074Y0196904D01*
X0117249Y0197093D01*
X0117427Y0197276D01*
X0117610Y0197456D01*
X0117798Y0197631D01*
X0117989Y0197801D01*
X0118185Y0197966D01*
X0118385Y0198127D01*
X0118588Y0198283D01*
X0118795Y0198433D01*
X0119006Y0198579D01*
X0119221Y0198720D01*
X0119438Y0198855D01*
X0119659Y0198985D01*
X0119883Y0199109D01*
X0120110Y0199228D01*
X0120340Y0199341D01*
X0120573Y0199449D01*
X0120808Y0199551D01*
X0121046Y0199647D01*
X0121285Y0199737D01*
X0121527Y0199822D01*
X0121771Y0199900D01*
X0089867Y0199867D02*
X0089867Y0189867D01*
X0059867Y0189867D01*
X0059867Y0199867D01*
X0089867Y0199867D01*
X0084867Y0199867D02*
X0084867Y0204867D01*
X0079867Y0204867D01*
X0079867Y0199867D01*
X0084867Y0199867D01*
X0145613Y0159765D02*
X0145613Y0158263D01*
X0146363Y0157513D01*
X0145613Y0159765D02*
X0146363Y0160515D01*
X0147114Y0160515D01*
X0150117Y0157513D01*
X0150117Y0160515D01*
X0150867Y0155911D02*
X0150867Y0152909D01*
X0147865Y0149806D02*
X0147865Y0148305D01*
X0149366Y0146703D02*
X0145613Y0146703D01*
X0145613Y0148305D02*
X0145613Y0151307D01*
X0145613Y0148305D02*
X0150117Y0148305D01*
X0149366Y0146703D02*
X0150117Y0145953D01*
X0150117Y0144452D01*
X0149366Y0143701D01*
X0145613Y0143701D01*
X0145613Y0140598D02*
X0150117Y0140598D01*
X0150117Y0139097D02*
X0150117Y0142100D01*
X0147114Y0139097D02*
X0145613Y0140598D01*
X0149366Y0137546D02*
X0150117Y0137546D01*
X0150117Y0136795D01*
X0149366Y0136795D01*
X0149366Y0137546D01*
X0149366Y0135194D02*
X0146363Y0135194D01*
X0149366Y0132191D01*
X0150117Y0132942D01*
X0150117Y0134443D01*
X0149366Y0135194D01*
X0146363Y0135194D02*
X0145613Y0134443D01*
X0145613Y0132942D01*
X0146363Y0132191D01*
X0149366Y0132191D01*
X0134117Y0117639D02*
X0134117Y0114636D01*
X0134117Y0116138D02*
X0129613Y0116138D01*
X0131114Y0114636D01*
X0134867Y0113035D02*
X0134867Y0110032D01*
X0131865Y0106930D02*
X0131865Y0105428D01*
X0133366Y0103827D02*
X0129613Y0103827D01*
X0129613Y0105428D02*
X0129613Y0108431D01*
X0129613Y0105428D02*
X0134117Y0105428D01*
X0133366Y0103827D02*
X0134117Y0103076D01*
X0134117Y0101575D01*
X0133366Y0100825D01*
X0129613Y0100825D01*
X0130363Y0099223D02*
X0133366Y0096221D01*
X0134117Y0096971D01*
X0134117Y0098473D01*
X0133366Y0099223D01*
X0130363Y0099223D01*
X0129613Y0098473D01*
X0129613Y0096971D01*
X0130363Y0096221D01*
X0133366Y0096221D01*
X0134117Y0094619D02*
X0134117Y0091617D01*
X0134117Y0093118D02*
X0129613Y0093118D01*
X0131114Y0091617D01*
X0112117Y0107132D02*
X0107613Y0107132D01*
X0107613Y0109384D01*
X0108363Y0110134D01*
X0109865Y0110134D01*
X0110615Y0109384D01*
X0110615Y0107132D01*
X0112117Y0111736D02*
X0112117Y0113237D01*
X0112117Y0112486D02*
X0107613Y0112486D01*
X0107613Y0111736D02*
X0107613Y0113237D01*
X0108363Y0114805D02*
X0111366Y0114805D01*
X0112117Y0115555D01*
X0112117Y0117057D01*
X0111366Y0117807D01*
X0111366Y0119409D02*
X0112117Y0120159D01*
X0112117Y0121661D01*
X0111366Y0122411D01*
X0110615Y0122411D01*
X0109865Y0121661D01*
X0109865Y0120910D01*
X0109865Y0121661D02*
X0109114Y0122411D01*
X0108363Y0122411D01*
X0107613Y0121661D01*
X0107613Y0120159D01*
X0108363Y0119409D01*
X0108363Y0117807D02*
X0107613Y0117057D01*
X0107613Y0115555D01*
X0108363Y0114805D01*
X0108363Y0124013D02*
X0107613Y0124763D01*
X0107613Y0126265D01*
X0108363Y0127015D01*
X0109114Y0127015D01*
X0112117Y0124013D01*
X0112117Y0127015D01*
X0156032Y0185117D02*
X0156032Y0185867D01*
X0159035Y0188870D01*
X0159035Y0189620D01*
X0156032Y0189620D01*
X0160636Y0188870D02*
X0160636Y0185867D01*
X0163639Y0188870D01*
X0163639Y0185867D01*
X0162888Y0185117D01*
X0161387Y0185117D01*
X0160636Y0185867D01*
X0160636Y0188870D02*
X0161387Y0189620D01*
X0162888Y0189620D01*
X0163639Y0188870D01*
X0165240Y0188870D02*
X0165991Y0189620D01*
X0167492Y0189620D01*
X0168243Y0188870D01*
X0168243Y0188119D01*
X0165240Y0185117D01*
X0168243Y0185117D01*
X0167423Y0202317D02*
X0164421Y0202317D01*
X0164421Y0206820D01*
X0167423Y0206820D01*
X0169025Y0206070D02*
X0169025Y0205319D01*
X0169775Y0204569D01*
X0171276Y0204569D01*
X0172027Y0203818D01*
X0172027Y0203067D01*
X0171276Y0202317D01*
X0169775Y0202317D01*
X0169025Y0203067D01*
X0165922Y0204569D02*
X0164421Y0204569D01*
X0162819Y0204569D02*
X0162819Y0206070D01*
X0162069Y0206820D01*
X0159817Y0206820D01*
X0159817Y0202317D01*
X0159817Y0203818D02*
X0162069Y0203818D01*
X0162819Y0204569D01*
X0161318Y0203818D02*
X0162819Y0202317D01*
X0169025Y0206070D02*
X0169775Y0206820D01*
X0171276Y0206820D01*
X0172027Y0206070D01*
X0173628Y0206820D02*
X0173628Y0202317D01*
X0176631Y0202317D01*
X0175130Y0204569D02*
X0173628Y0204569D01*
X0173628Y0206820D02*
X0176631Y0206820D01*
X0178232Y0206820D02*
X0181235Y0206820D01*
X0179734Y0206820D02*
X0179734Y0202317D01*
X0209813Y0198815D02*
X0209813Y0195813D01*
X0209813Y0197314D02*
X0214317Y0197314D01*
X0214317Y0194245D02*
X0214317Y0192743D01*
X0214317Y0193494D02*
X0209813Y0193494D01*
X0209813Y0192743D02*
X0209813Y0194245D01*
X0209813Y0191142D02*
X0212815Y0188139D01*
X0212065Y0188890D02*
X0214317Y0191142D01*
X0214317Y0188139D02*
X0209813Y0188139D01*
X0210563Y0186538D02*
X0209813Y0185787D01*
X0209813Y0184286D01*
X0210563Y0183536D01*
X0213566Y0183536D01*
X0214317Y0184286D01*
X0214317Y0185787D01*
X0213566Y0186538D01*
X0214317Y0181968D02*
X0214317Y0180466D01*
X0214317Y0181217D02*
X0209813Y0181217D01*
X0209813Y0180466D02*
X0209813Y0181968D01*
X0210563Y0178865D02*
X0212065Y0178865D01*
X0212815Y0178114D01*
X0212815Y0175862D01*
X0214317Y0175862D02*
X0209813Y0175862D01*
X0209813Y0178114D01*
X0210563Y0178865D01*
X0194917Y0072423D02*
X0194917Y0069421D01*
X0194917Y0070922D02*
X0190413Y0070922D01*
X0191914Y0069421D01*
X0190413Y0067819D02*
X0190413Y0066318D01*
X0190413Y0067069D02*
X0194166Y0067069D01*
X0194917Y0066318D01*
X0194917Y0065567D01*
X0194166Y0064817D01*
X0152639Y0024370D02*
X0151888Y0025120D01*
X0150387Y0025120D01*
X0149636Y0024370D01*
X0152639Y0024370D02*
X0152639Y0023619D01*
X0149636Y0020617D01*
X0152639Y0020617D01*
X0148035Y0019866D02*
X0145032Y0019866D01*
X0141930Y0022869D02*
X0140428Y0022869D01*
X0138827Y0021367D02*
X0138076Y0020617D01*
X0136575Y0020617D01*
X0135825Y0021367D01*
X0135825Y0025120D01*
X0134223Y0024370D02*
X0134223Y0021367D01*
X0133473Y0020617D01*
X0131971Y0020617D01*
X0131221Y0021367D01*
X0134223Y0024370D01*
X0133473Y0025120D01*
X0131971Y0025120D01*
X0131221Y0024370D01*
X0131221Y0021367D01*
X0129619Y0020617D02*
X0126617Y0020617D01*
X0128118Y0020617D02*
X0128118Y0025120D01*
X0126617Y0023619D01*
X0138827Y0025120D02*
X0138827Y0021367D01*
X0140428Y0020617D02*
X0140428Y0025120D01*
X0143431Y0025120D01*
X0115515Y0008370D02*
X0115515Y0007619D01*
X0114765Y0006869D01*
X0115515Y0006118D01*
X0115515Y0005367D01*
X0114765Y0004617D01*
X0113263Y0004617D01*
X0112513Y0005367D01*
X0114014Y0006869D02*
X0114765Y0006869D01*
X0115515Y0008370D02*
X0114765Y0009120D01*
X0113263Y0009120D01*
X0112513Y0008370D01*
X0110911Y0003866D02*
X0107909Y0003866D01*
X0104806Y0006869D02*
X0103305Y0006869D01*
X0101703Y0005367D02*
X0101703Y0009120D01*
X0103305Y0009120D02*
X0106307Y0009120D01*
X0103305Y0009120D02*
X0103305Y0004617D01*
X0101703Y0005367D02*
X0100953Y0004617D01*
X0099452Y0004617D01*
X0098701Y0005367D01*
X0098701Y0009120D01*
X0095598Y0009120D02*
X0095598Y0004617D01*
X0094097Y0004617D02*
X0097100Y0004617D01*
X0094097Y0007619D02*
X0095598Y0009120D01*
X0092546Y0005367D02*
X0092546Y0004617D01*
X0091795Y0004617D01*
X0091795Y0005367D01*
X0092546Y0005367D01*
X0090194Y0005367D02*
X0090194Y0008370D01*
X0087191Y0005367D01*
X0087942Y0004617D01*
X0089443Y0004617D01*
X0090194Y0005367D01*
X0090194Y0008370D02*
X0089443Y0009120D01*
X0087942Y0009120D01*
X0087191Y0008370D01*
X0087191Y0005367D01*
X0082864Y0014067D02*
X0082864Y0017737D01*
X0082864Y0019592D02*
X0082864Y0023262D01*
X0081029Y0021427D02*
X0084699Y0021427D01*
X0084699Y0015902D02*
X0081029Y0015902D01*
X0061015Y0017370D02*
X0061015Y0014367D01*
X0060265Y0013617D01*
X0058013Y0013617D01*
X0058013Y0018120D01*
X0060265Y0018120D01*
X0061015Y0017370D01*
X0056411Y0018120D02*
X0053409Y0018120D01*
X0053409Y0013617D01*
X0056411Y0013617D01*
X0054910Y0015869D02*
X0053409Y0015869D01*
X0051807Y0013617D02*
X0048805Y0013617D01*
X0048805Y0018120D01*
X0047203Y0012866D02*
X0044201Y0012866D01*
X0042600Y0014367D02*
X0042600Y0017370D01*
X0041849Y0018120D01*
X0039597Y0018120D01*
X0039597Y0013617D01*
X0041849Y0013617D01*
X0042600Y0014367D01*
X0037996Y0013617D02*
X0034993Y0013617D01*
X0034993Y0018120D01*
X0037996Y0018120D01*
X0036494Y0015869D02*
X0034993Y0015869D01*
X0033392Y0015869D02*
X0033392Y0017370D01*
X0032641Y0018120D01*
X0030389Y0018120D01*
X0030389Y0013617D01*
X0030389Y0015118D02*
X0032641Y0015118D01*
X0033392Y0015869D01*
X0031890Y0015118D02*
X0033392Y0013617D01*
X0033857Y0007420D02*
X0032355Y0007420D01*
X0031605Y0006670D01*
X0031605Y0005919D01*
X0032355Y0005169D01*
X0033857Y0005169D01*
X0034607Y0004418D01*
X0034607Y0003667D01*
X0033857Y0002917D01*
X0032355Y0002917D01*
X0031605Y0003667D01*
X0030003Y0003667D02*
X0030003Y0007420D01*
X0027001Y0007420D02*
X0027001Y0003667D01*
X0027752Y0002917D01*
X0029253Y0002917D01*
X0030003Y0003667D01*
X0033857Y0007420D02*
X0034607Y0006670D01*
X0036209Y0007420D02*
X0036209Y0002917D01*
X0039211Y0002917D01*
X0040813Y0002917D02*
X0040813Y0007420D01*
X0043065Y0007420D01*
X0043815Y0006670D01*
X0043815Y0005169D01*
X0043065Y0004418D01*
X0040813Y0004418D01*
X0042314Y0004418D02*
X0043815Y0002917D01*
X0039211Y0007420D02*
X0036209Y0007420D01*
X0036209Y0005169D02*
X0037710Y0005169D01*
X0044201Y0042866D02*
X0047203Y0042866D01*
X0048805Y0043617D02*
X0051807Y0043617D01*
X0053409Y0043617D02*
X0056411Y0043617D01*
X0058013Y0043617D02*
X0060265Y0043617D01*
X0061015Y0044367D01*
X0061015Y0047370D01*
X0060265Y0048120D01*
X0058013Y0048120D01*
X0058013Y0043617D01*
X0054910Y0045869D02*
X0053409Y0045869D01*
X0053409Y0048120D02*
X0053409Y0043617D01*
X0053409Y0048120D02*
X0056411Y0048120D01*
X0048805Y0048120D02*
X0048805Y0043617D01*
X0042600Y0043617D02*
X0042600Y0048120D01*
X0039597Y0048120D02*
X0042600Y0043617D01*
X0039597Y0043617D02*
X0039597Y0048120D01*
X0037996Y0048120D02*
X0034993Y0048120D01*
X0034993Y0043617D01*
X0037996Y0043617D01*
X0036494Y0045869D02*
X0034993Y0045869D01*
X0033392Y0048120D02*
X0030389Y0048120D01*
X0030389Y0043617D01*
X0033392Y0043617D01*
X0031890Y0045869D02*
X0030389Y0045869D01*
X0028788Y0045869D02*
X0028037Y0045118D01*
X0025785Y0045118D01*
X0025785Y0043617D02*
X0025785Y0048120D01*
X0028037Y0048120D01*
X0028788Y0047370D01*
X0028788Y0045869D01*
X0027286Y0045118D02*
X0028788Y0043617D01*
X0024184Y0044367D02*
X0024184Y0045869D01*
X0022683Y0045869D01*
X0024184Y0047370D02*
X0023433Y0048120D01*
X0021932Y0048120D01*
X0021181Y0047370D01*
X0021181Y0044367D01*
X0021932Y0043617D01*
X0023433Y0043617D01*
X0024184Y0044367D01*
X0006666Y0064817D02*
X0007417Y0065567D01*
X0007417Y0066318D01*
X0006666Y0067069D01*
X0002913Y0067069D01*
X0002913Y0067819D02*
X0002913Y0066318D01*
X0003663Y0069421D02*
X0002913Y0070171D01*
X0002913Y0071673D01*
X0003663Y0072423D01*
X0004414Y0072423D01*
X0007417Y0069421D01*
X0007417Y0072423D01*
X0080029Y0052476D02*
X0083699Y0052476D01*
X0081864Y0050641D02*
X0081864Y0054311D01*
X0081864Y0048786D02*
X0081864Y0045117D01*
X0080029Y0046952D02*
X0083699Y0046952D01*
D14*
X0076867Y0070867D02*
X0076838Y0070696D01*
X0076805Y0070526D01*
X0076769Y0070357D01*
X0076728Y0070189D01*
X0076682Y0070022D01*
X0076633Y0069856D01*
X0076580Y0069691D01*
X0076523Y0069528D01*
X0076462Y0069366D01*
X0076397Y0069205D01*
X0076328Y0069047D01*
X0076255Y0068890D01*
X0076178Y0068735D01*
X0076098Y0068581D01*
X0076013Y0068430D01*
X0075926Y0068281D01*
X0075834Y0068134D01*
X0075739Y0067989D01*
X0075641Y0067847D01*
X0075539Y0067707D01*
X0075433Y0067570D01*
X0075325Y0067435D01*
X0075213Y0067303D01*
X0075098Y0067174D01*
X0074979Y0067048D01*
X0074858Y0066924D01*
X0074734Y0066804D01*
X0074607Y0066686D01*
X0074477Y0066572D01*
X0074344Y0066461D01*
X0074208Y0066353D01*
X0074070Y0066249D01*
X0073930Y0066148D01*
X0073787Y0066050D01*
X0073641Y0065956D01*
X0073494Y0065866D01*
X0073344Y0065779D01*
X0073192Y0065696D01*
X0073039Y0065617D01*
X0072883Y0065541D01*
X0072725Y0065469D01*
X0072566Y0065401D01*
X0072405Y0065337D01*
X0072243Y0065277D01*
X0072079Y0065221D01*
X0071914Y0065169D01*
X0071748Y0065121D01*
X0071581Y0065077D01*
X0071412Y0065038D01*
X0071243Y0065002D01*
X0071073Y0064970D01*
X0070902Y0064943D01*
X0070730Y0064920D01*
X0070558Y0064901D01*
X0070386Y0064886D01*
X0070213Y0064875D01*
X0070040Y0064869D01*
X0069867Y0064867D01*
X0069694Y0064869D01*
X0069521Y0064875D01*
X0069348Y0064886D01*
X0069176Y0064901D01*
X0069004Y0064920D01*
X0068832Y0064943D01*
X0068661Y0064970D01*
X0068491Y0065002D01*
X0068322Y0065038D01*
X0068153Y0065077D01*
X0067986Y0065121D01*
X0067820Y0065169D01*
X0067655Y0065221D01*
X0067491Y0065277D01*
X0067329Y0065337D01*
X0067168Y0065401D01*
X0067009Y0065469D01*
X0066851Y0065541D01*
X0066695Y0065617D01*
X0066542Y0065696D01*
X0066390Y0065779D01*
X0066240Y0065866D01*
X0066093Y0065956D01*
X0065947Y0066050D01*
X0065804Y0066148D01*
X0065664Y0066249D01*
X0065526Y0066353D01*
X0065390Y0066461D01*
X0065257Y0066572D01*
X0065127Y0066686D01*
X0065000Y0066804D01*
X0064876Y0066924D01*
X0064755Y0067048D01*
X0064636Y0067174D01*
X0064521Y0067303D01*
X0064409Y0067435D01*
X0064301Y0067570D01*
X0064195Y0067707D01*
X0064093Y0067847D01*
X0063995Y0067989D01*
X0063900Y0068134D01*
X0063808Y0068281D01*
X0063721Y0068430D01*
X0063636Y0068581D01*
X0063556Y0068735D01*
X0063479Y0068890D01*
X0063406Y0069047D01*
X0063337Y0069205D01*
X0063272Y0069366D01*
X0063211Y0069528D01*
X0063154Y0069691D01*
X0063101Y0069856D01*
X0063052Y0070022D01*
X0063006Y0070189D01*
X0062965Y0070357D01*
X0062929Y0070526D01*
X0062896Y0070696D01*
X0062867Y0070867D01*
X0062867Y0088866D02*
X0062896Y0089037D01*
X0062929Y0089207D01*
X0062965Y0089376D01*
X0063006Y0089544D01*
X0063052Y0089711D01*
X0063101Y0089877D01*
X0063154Y0090042D01*
X0063211Y0090205D01*
X0063272Y0090367D01*
X0063337Y0090528D01*
X0063406Y0090686D01*
X0063479Y0090843D01*
X0063556Y0090998D01*
X0063636Y0091152D01*
X0063721Y0091303D01*
X0063808Y0091452D01*
X0063900Y0091599D01*
X0063995Y0091744D01*
X0064093Y0091886D01*
X0064195Y0092026D01*
X0064301Y0092163D01*
X0064409Y0092298D01*
X0064521Y0092430D01*
X0064636Y0092559D01*
X0064755Y0092685D01*
X0064876Y0092809D01*
X0065000Y0092929D01*
X0065127Y0093047D01*
X0065257Y0093161D01*
X0065390Y0093272D01*
X0065526Y0093380D01*
X0065664Y0093484D01*
X0065804Y0093585D01*
X0065947Y0093683D01*
X0066093Y0093777D01*
X0066240Y0093867D01*
X0066390Y0093954D01*
X0066542Y0094037D01*
X0066695Y0094116D01*
X0066851Y0094192D01*
X0067009Y0094264D01*
X0067168Y0094332D01*
X0067329Y0094396D01*
X0067491Y0094456D01*
X0067655Y0094512D01*
X0067820Y0094564D01*
X0067986Y0094612D01*
X0068153Y0094656D01*
X0068322Y0094695D01*
X0068491Y0094731D01*
X0068661Y0094763D01*
X0068832Y0094790D01*
X0069004Y0094813D01*
X0069176Y0094832D01*
X0069348Y0094847D01*
X0069521Y0094858D01*
X0069694Y0094864D01*
X0069867Y0094866D01*
X0070040Y0094864D01*
X0070213Y0094858D01*
X0070386Y0094847D01*
X0070558Y0094832D01*
X0070730Y0094813D01*
X0070902Y0094790D01*
X0071073Y0094763D01*
X0071243Y0094731D01*
X0071412Y0094695D01*
X0071581Y0094656D01*
X0071748Y0094612D01*
X0071914Y0094564D01*
X0072079Y0094512D01*
X0072243Y0094456D01*
X0072405Y0094396D01*
X0072566Y0094332D01*
X0072725Y0094264D01*
X0072883Y0094192D01*
X0073039Y0094116D01*
X0073192Y0094037D01*
X0073344Y0093954D01*
X0073494Y0093867D01*
X0073641Y0093777D01*
X0073787Y0093683D01*
X0073930Y0093585D01*
X0074070Y0093484D01*
X0074208Y0093380D01*
X0074344Y0093272D01*
X0074477Y0093161D01*
X0074607Y0093047D01*
X0074734Y0092929D01*
X0074858Y0092809D01*
X0074979Y0092685D01*
X0075098Y0092559D01*
X0075213Y0092430D01*
X0075325Y0092298D01*
X0075433Y0092163D01*
X0075539Y0092026D01*
X0075641Y0091886D01*
X0075739Y0091744D01*
X0075834Y0091599D01*
X0075926Y0091452D01*
X0076013Y0091303D01*
X0076098Y0091152D01*
X0076178Y0090998D01*
X0076255Y0090843D01*
X0076328Y0090686D01*
X0076397Y0090528D01*
X0076462Y0090367D01*
X0076523Y0090205D01*
X0076580Y0090042D01*
X0076633Y0089877D01*
X0076682Y0089711D01*
X0076728Y0089544D01*
X0076769Y0089376D01*
X0076805Y0089207D01*
X0076838Y0089037D01*
X0076867Y0088866D01*
X0019867Y0087367D02*
X0017367Y0084867D01*
X0019867Y0082367D01*
X0019867Y0077367D01*
X0017367Y0074867D01*
X0019867Y0072367D01*
X0019867Y0067367D01*
X0017367Y0064867D01*
X0012367Y0064867D01*
X0009867Y0067367D01*
X0009867Y0072367D01*
X0012367Y0074867D01*
X0009867Y0077367D01*
X0009867Y0082367D01*
X0012367Y0084867D01*
X0009867Y0087367D01*
X0009867Y0092367D01*
X0012367Y0094867D01*
X0009867Y0097367D01*
X0009867Y0102367D01*
X0012367Y0104867D01*
X0009867Y0107367D01*
X0009867Y0112367D01*
X0012367Y0114867D01*
X0009867Y0117367D01*
X0009867Y0122367D01*
X0012367Y0124867D01*
X0009867Y0127367D01*
X0009867Y0132367D01*
X0012367Y0134867D01*
X0009867Y0137367D01*
X0009867Y0142367D01*
X0012367Y0144867D01*
X0017367Y0144867D01*
X0019867Y0142367D01*
X0019867Y0137367D01*
X0017367Y0134867D01*
X0019867Y0132367D01*
X0019867Y0127367D01*
X0017367Y0124867D01*
X0019867Y0122367D01*
X0019867Y0117367D01*
X0017367Y0114867D01*
X0019867Y0112367D01*
X0019867Y0107367D01*
X0017367Y0104867D01*
X0019867Y0102367D01*
X0019867Y0097367D01*
X0017367Y0094867D01*
X0019867Y0092367D01*
X0019867Y0087367D01*
X0076867Y0088867D02*
X0077048Y0087072D01*
X0077188Y0085274D01*
X0077289Y0083473D01*
X0077349Y0081671D01*
X0077369Y0079867D01*
X0077349Y0078063D01*
X0077289Y0076261D01*
X0077188Y0074460D01*
X0077048Y0072662D01*
X0076867Y0070867D01*
X0042367Y0019867D02*
X0037367Y0019867D01*
X0034867Y0017367D01*
X0032367Y0019867D01*
X0027367Y0019867D01*
X0024867Y0017367D01*
X0022367Y0019867D01*
X0017367Y0019867D01*
X0014867Y0017367D01*
X0014867Y0012367D01*
X0017367Y0009867D01*
X0022367Y0009867D01*
X0024867Y0012367D01*
X0027367Y0009867D01*
X0032367Y0009867D01*
X0034867Y0012367D01*
X0037367Y0009867D01*
X0042367Y0009867D01*
X0044867Y0012367D01*
X0044867Y0017367D01*
X0042367Y0019867D01*
X0062867Y0070867D02*
X0062687Y0072662D01*
X0062547Y0074460D01*
X0062447Y0076261D01*
X0062387Y0078063D01*
X0062367Y0079867D01*
X0062387Y0081671D01*
X0062447Y0083473D01*
X0062547Y0085274D01*
X0062687Y0087072D01*
X0062867Y0088867D01*
X0162367Y0189867D02*
X0167367Y0189867D01*
X0169867Y0192367D01*
X0172367Y0189867D01*
X0177367Y0189867D01*
X0179867Y0192367D01*
X0182367Y0189867D01*
X0187367Y0189867D01*
X0189867Y0192367D01*
X0189867Y0197367D01*
X0187367Y0199867D01*
X0182367Y0199867D01*
X0179867Y0197367D01*
X0177367Y0199867D01*
X0172367Y0199867D01*
X0169867Y0197367D01*
X0167367Y0199867D01*
X0162367Y0199867D01*
X0159867Y0197367D01*
X0159867Y0192367D01*
X0162367Y0189867D01*
X0197367Y0192367D02*
X0197367Y0197367D01*
X0199867Y0199867D01*
X0204867Y0199867D01*
X0207367Y0197367D01*
X0207367Y0192367D01*
X0204867Y0189867D01*
X0207367Y0187367D01*
X0207367Y0182367D01*
X0204867Y0179867D01*
X0207367Y0177367D01*
X0207367Y0172367D01*
X0204867Y0169867D01*
X0207367Y0167367D01*
X0207367Y0162367D01*
X0204867Y0159867D01*
X0207367Y0157367D01*
X0207367Y0152367D01*
X0204867Y0149867D01*
X0199867Y0149867D01*
X0197367Y0152367D01*
X0197367Y0157367D01*
X0199867Y0159867D01*
X0197367Y0162367D01*
X0197367Y0167367D01*
X0199867Y0169867D01*
X0197367Y0172367D01*
X0197367Y0177367D01*
X0199867Y0179867D01*
X0197367Y0182367D01*
X0197367Y0187367D01*
X0199867Y0189867D01*
X0197367Y0192367D01*
X0199867Y0144867D02*
X0204867Y0144867D01*
X0207367Y0142367D01*
X0207367Y0137367D01*
X0204867Y0134867D01*
X0207367Y0132367D01*
X0207367Y0127367D01*
X0204867Y0124867D01*
X0207367Y0122367D01*
X0207367Y0117367D01*
X0204867Y0114867D01*
X0207367Y0112367D01*
X0207367Y0107367D01*
X0204867Y0104867D01*
X0207367Y0102367D01*
X0207367Y0097367D01*
X0204867Y0094867D01*
X0207367Y0092367D01*
X0207367Y0087367D01*
X0204867Y0084867D01*
X0207367Y0082367D01*
X0207367Y0077367D01*
X0204867Y0074867D01*
X0207367Y0072367D01*
X0207367Y0067367D01*
X0204867Y0064867D01*
X0199867Y0064867D01*
X0197367Y0067367D01*
X0197367Y0072367D01*
X0199867Y0074867D01*
X0197367Y0077367D01*
X0197367Y0082367D01*
X0199867Y0084867D01*
X0197367Y0087367D01*
X0197367Y0092367D01*
X0199867Y0094867D01*
X0197367Y0097367D01*
X0197367Y0102367D01*
X0199867Y0104867D01*
X0197367Y0107367D01*
X0197367Y0112367D01*
X0199867Y0114867D01*
X0197367Y0117367D01*
X0197367Y0122367D01*
X0199867Y0124867D01*
X0197367Y0127367D01*
X0197367Y0132367D01*
X0199867Y0134867D01*
X0197367Y0137367D01*
X0197367Y0142367D01*
X0199867Y0144867D01*
D15*
X0076813Y0053836D02*
X0076714Y0054005D01*
X0076610Y0054171D01*
X0076503Y0054335D01*
X0076392Y0054496D01*
X0076277Y0054654D01*
X0076158Y0054809D01*
X0076035Y0054962D01*
X0075909Y0055111D01*
X0075779Y0055257D01*
X0075645Y0055400D01*
X0075508Y0055540D01*
X0075368Y0055676D01*
X0075224Y0055809D01*
X0075077Y0055938D01*
X0074927Y0056064D01*
X0074774Y0056185D01*
X0074618Y0056304D01*
X0074459Y0056418D01*
X0074298Y0056528D01*
X0074133Y0056634D01*
X0073967Y0056737D01*
X0073797Y0056835D01*
X0073626Y0056929D01*
X0073452Y0057019D01*
X0073276Y0057104D01*
X0073098Y0057186D01*
X0072918Y0057262D01*
X0072736Y0057335D01*
X0072553Y0057403D01*
X0072368Y0057466D01*
X0072181Y0057525D01*
X0071993Y0057579D01*
X0071804Y0057629D01*
X0071614Y0057674D01*
X0071422Y0057714D01*
X0071230Y0057750D01*
X0071037Y0057781D01*
X0070843Y0057807D01*
X0070648Y0057829D01*
X0070453Y0057845D01*
X0070258Y0057857D01*
X0070062Y0057865D01*
X0069867Y0057867D01*
X0076925Y0046102D02*
X0076832Y0045934D01*
X0076736Y0045768D01*
X0076636Y0045604D01*
X0076531Y0045443D01*
X0076423Y0045284D01*
X0076311Y0045128D01*
X0076195Y0044974D01*
X0076076Y0044824D01*
X0075953Y0044676D01*
X0075827Y0044531D01*
X0075697Y0044390D01*
X0075564Y0044251D01*
X0075427Y0044116D01*
X0075287Y0043984D01*
X0075145Y0043856D01*
X0074999Y0043731D01*
X0074850Y0043609D01*
X0074698Y0043491D01*
X0074544Y0043377D01*
X0074386Y0043267D01*
X0074227Y0043160D01*
X0074064Y0043057D01*
X0073899Y0042958D01*
X0073732Y0042863D01*
X0073563Y0042773D01*
X0073392Y0042686D01*
X0073218Y0042603D01*
X0073043Y0042525D01*
X0072865Y0042451D01*
X0072686Y0042381D01*
X0072506Y0042315D01*
X0072324Y0042254D01*
X0072140Y0042197D01*
X0071955Y0042145D01*
X0071769Y0042097D01*
X0071582Y0042053D01*
X0071394Y0042014D01*
X0071205Y0041980D01*
X0071015Y0041950D01*
X0070825Y0041925D01*
X0070634Y0041904D01*
X0070442Y0041888D01*
X0070250Y0041876D01*
X0070058Y0041869D01*
X0069866Y0041867D01*
X0063760Y0055035D02*
X0063887Y0055181D01*
X0064016Y0055323D01*
X0064150Y0055463D01*
X0064286Y0055599D01*
X0064426Y0055732D01*
X0064569Y0055862D01*
X0064716Y0055988D01*
X0064865Y0056110D01*
X0065017Y0056229D01*
X0065172Y0056344D01*
X0065329Y0056456D01*
X0065489Y0056563D01*
X0065652Y0056667D01*
X0065818Y0056766D01*
X0065985Y0056862D01*
X0066155Y0056954D01*
X0066327Y0057041D01*
X0066501Y0057125D01*
X0066677Y0057204D01*
X0066855Y0057278D01*
X0067035Y0057349D01*
X0067216Y0057415D01*
X0067399Y0057477D01*
X0067583Y0057534D01*
X0067769Y0057587D01*
X0067956Y0057635D01*
X0068144Y0057679D01*
X0068333Y0057718D01*
X0068523Y0057753D01*
X0068713Y0057783D01*
X0068904Y0057809D01*
X0069096Y0057830D01*
X0069289Y0057846D01*
X0069481Y0057858D01*
X0069674Y0057865D01*
X0069867Y0057867D01*
X0063721Y0044745D02*
X0063848Y0044597D01*
X0063978Y0044452D01*
X0064111Y0044311D01*
X0064248Y0044172D01*
X0064388Y0044037D01*
X0064532Y0043906D01*
X0064679Y0043778D01*
X0064828Y0043653D01*
X0064981Y0043532D01*
X0065136Y0043415D01*
X0065295Y0043302D01*
X0065456Y0043193D01*
X0065620Y0043088D01*
X0065786Y0042986D01*
X0065955Y0042889D01*
X0066125Y0042796D01*
X0066299Y0042707D01*
X0066474Y0042622D01*
X0066651Y0042542D01*
X0066830Y0042466D01*
X0067011Y0042394D01*
X0067194Y0042327D01*
X0067378Y0042264D01*
X0067564Y0042206D01*
X0067751Y0042152D01*
X0067939Y0042103D01*
X0068129Y0042058D01*
X0068319Y0042018D01*
X0068511Y0041983D01*
X0068703Y0041952D01*
X0068896Y0041926D01*
X0069090Y0041905D01*
X0069284Y0041888D01*
X0069478Y0041876D01*
X0069672Y0041869D01*
X0069867Y0041867D01*
X0076925Y0016102D02*
X0076832Y0015934D01*
X0076736Y0015768D01*
X0076636Y0015604D01*
X0076531Y0015443D01*
X0076423Y0015284D01*
X0076311Y0015128D01*
X0076195Y0014974D01*
X0076076Y0014824D01*
X0075953Y0014676D01*
X0075827Y0014531D01*
X0075697Y0014390D01*
X0075564Y0014251D01*
X0075427Y0014116D01*
X0075287Y0013984D01*
X0075145Y0013856D01*
X0074999Y0013731D01*
X0074850Y0013609D01*
X0074698Y0013491D01*
X0074544Y0013377D01*
X0074386Y0013267D01*
X0074227Y0013160D01*
X0074064Y0013057D01*
X0073899Y0012958D01*
X0073732Y0012863D01*
X0073563Y0012773D01*
X0073392Y0012686D01*
X0073218Y0012603D01*
X0073043Y0012525D01*
X0072865Y0012451D01*
X0072686Y0012381D01*
X0072506Y0012315D01*
X0072324Y0012254D01*
X0072140Y0012197D01*
X0071955Y0012145D01*
X0071769Y0012097D01*
X0071582Y0012053D01*
X0071394Y0012014D01*
X0071205Y0011980D01*
X0071015Y0011950D01*
X0070825Y0011925D01*
X0070634Y0011904D01*
X0070442Y0011888D01*
X0070250Y0011876D01*
X0070058Y0011869D01*
X0069866Y0011867D01*
X0076813Y0023836D02*
X0076714Y0024005D01*
X0076610Y0024171D01*
X0076503Y0024335D01*
X0076392Y0024496D01*
X0076277Y0024654D01*
X0076158Y0024809D01*
X0076035Y0024962D01*
X0075909Y0025111D01*
X0075779Y0025257D01*
X0075645Y0025400D01*
X0075508Y0025540D01*
X0075368Y0025676D01*
X0075224Y0025809D01*
X0075077Y0025938D01*
X0074927Y0026064D01*
X0074774Y0026185D01*
X0074618Y0026304D01*
X0074459Y0026418D01*
X0074298Y0026528D01*
X0074133Y0026634D01*
X0073967Y0026737D01*
X0073797Y0026835D01*
X0073626Y0026929D01*
X0073452Y0027019D01*
X0073276Y0027104D01*
X0073098Y0027186D01*
X0072918Y0027262D01*
X0072736Y0027335D01*
X0072553Y0027403D01*
X0072368Y0027466D01*
X0072181Y0027525D01*
X0071993Y0027579D01*
X0071804Y0027629D01*
X0071614Y0027674D01*
X0071422Y0027714D01*
X0071230Y0027750D01*
X0071037Y0027781D01*
X0070843Y0027807D01*
X0070648Y0027829D01*
X0070453Y0027845D01*
X0070258Y0027857D01*
X0070062Y0027865D01*
X0069867Y0027867D01*
X0069674Y0027865D01*
X0069481Y0027858D01*
X0069289Y0027846D01*
X0069096Y0027830D01*
X0068904Y0027809D01*
X0068713Y0027783D01*
X0068523Y0027753D01*
X0068333Y0027718D01*
X0068144Y0027679D01*
X0067956Y0027635D01*
X0067769Y0027587D01*
X0067583Y0027534D01*
X0067399Y0027477D01*
X0067216Y0027415D01*
X0067035Y0027349D01*
X0066855Y0027278D01*
X0066677Y0027204D01*
X0066501Y0027125D01*
X0066327Y0027041D01*
X0066155Y0026954D01*
X0065985Y0026862D01*
X0065818Y0026766D01*
X0065652Y0026667D01*
X0065489Y0026563D01*
X0065329Y0026456D01*
X0065172Y0026344D01*
X0065017Y0026229D01*
X0064865Y0026110D01*
X0064716Y0025988D01*
X0064569Y0025862D01*
X0064426Y0025732D01*
X0064286Y0025599D01*
X0064150Y0025463D01*
X0064016Y0025323D01*
X0063887Y0025181D01*
X0063760Y0025035D01*
X0063721Y0014745D02*
X0063848Y0014597D01*
X0063978Y0014452D01*
X0064111Y0014311D01*
X0064248Y0014172D01*
X0064388Y0014037D01*
X0064532Y0013906D01*
X0064679Y0013778D01*
X0064828Y0013653D01*
X0064981Y0013532D01*
X0065136Y0013415D01*
X0065295Y0013302D01*
X0065456Y0013193D01*
X0065620Y0013088D01*
X0065786Y0012986D01*
X0065955Y0012889D01*
X0066125Y0012796D01*
X0066299Y0012707D01*
X0066474Y0012622D01*
X0066651Y0012542D01*
X0066830Y0012466D01*
X0067011Y0012394D01*
X0067194Y0012327D01*
X0067378Y0012264D01*
X0067564Y0012206D01*
X0067751Y0012152D01*
X0067939Y0012103D01*
X0068129Y0012058D01*
X0068319Y0012018D01*
X0068511Y0011983D01*
X0068703Y0011952D01*
X0068896Y0011926D01*
X0069090Y0011905D01*
X0069284Y0011888D01*
X0069478Y0011876D01*
X0069672Y0011869D01*
X0069867Y0011867D01*
D16*
X0108567Y0011867D02*
X0108567Y0017867D01*
X0111067Y0017867D02*
X0111067Y0011867D01*
X0133667Y0011867D02*
X0133667Y0014867D01*
X0133667Y0017867D01*
X0136167Y0017867D02*
X0136167Y0014867D01*
X0136167Y0011867D01*
X0136867Y0098667D02*
X0139867Y0098667D01*
X0142867Y0098667D01*
X0142867Y0101167D02*
X0139867Y0101167D01*
X0136867Y0101167D01*
X0136867Y0153567D02*
X0142867Y0153567D01*
X0142867Y0156067D02*
X0136867Y0156067D01*
X0148567Y0186867D02*
X0148567Y0192867D01*
X0151067Y0192867D02*
X0151067Y0186867D01*
X0107867Y0188567D02*
X0101867Y0188567D01*
X0101867Y0191067D02*
X0107867Y0191067D01*
M02*
