G75*
%MOIN*%
%OFA0B0*%
%FSLAX25Y25*%
%IPPOS*%
%LPD*%
%AMOC8*
5,1,8,0,0,1.08239X$1,22.5*
%
%ADD10C,0.00000*%
%ADD11R,0.07400X0.07400*%
%ADD12C,0.07400*%
%ADD13OC8,0.05200*%
%ADD14C,0.05200*%
%ADD15C,0.05150*%
%ADD16C,0.11220*%
%ADD17C,0.05937*%
%ADD18C,0.01600*%
%ADD19R,0.03562X0.03562*%
D10*
X0009867Y0004867D02*
X0009867Y0201717D01*
X0206717Y0201717D01*
X0206717Y0004867D01*
X0009867Y0004867D01*
D11*
X0014867Y0069867D03*
X0202367Y0069867D03*
D12*
X0202367Y0079867D03*
X0202367Y0089867D03*
X0202367Y0099867D03*
X0202367Y0109867D03*
X0202367Y0119867D03*
X0202367Y0129867D03*
X0202367Y0139867D03*
X0202367Y0154867D03*
X0202367Y0164867D03*
X0202367Y0174867D03*
X0202367Y0184867D03*
X0202367Y0194867D03*
X0184867Y0194867D03*
X0174867Y0194867D03*
X0164867Y0194867D03*
X0069867Y0089867D03*
X0069867Y0079867D03*
X0069867Y0069867D03*
X0014867Y0079867D03*
X0014867Y0089867D03*
X0014867Y0099867D03*
X0014867Y0109867D03*
X0014867Y0119867D03*
X0014867Y0129867D03*
X0014867Y0139867D03*
X0019867Y0014867D03*
X0029867Y0014867D03*
X0039867Y0014867D03*
D13*
X0039867Y0024867D03*
X0049867Y0024867D03*
X0064867Y0019867D03*
X0074867Y0019867D03*
X0049867Y0044867D03*
X0039867Y0044867D03*
X0064867Y0049867D03*
X0074867Y0049867D03*
X0104867Y0014867D03*
X0114867Y0014867D03*
X0124867Y0014867D03*
X0144867Y0014867D03*
X0139867Y0089867D03*
X0139867Y0109867D03*
X0139867Y0149867D03*
X0139867Y0159867D03*
X0144867Y0189867D03*
X0154867Y0189867D03*
X0129867Y0189867D03*
X0124867Y0197367D03*
X0119867Y0189867D03*
X0104867Y0194867D03*
X0104867Y0184867D03*
X0079867Y0179867D03*
X0079867Y0159867D03*
X0059867Y0159867D03*
X0059867Y0179867D03*
D14*
X0092267Y0159867D02*
X0097467Y0159867D01*
X0097467Y0149867D02*
X0092267Y0149867D01*
X0092267Y0139867D02*
X0097467Y0139867D01*
X0097467Y0129867D02*
X0092267Y0129867D01*
X0092267Y0119867D02*
X0097467Y0119867D01*
X0097467Y0109867D02*
X0092267Y0109867D01*
X0092267Y0099867D02*
X0097467Y0099867D01*
X0097467Y0089867D02*
X0092267Y0089867D01*
X0092267Y0079867D02*
X0097467Y0079867D01*
X0097467Y0069867D02*
X0092267Y0069867D01*
X0092267Y0059867D02*
X0097467Y0059867D01*
X0097467Y0049867D02*
X0092267Y0049867D01*
X0092267Y0039867D02*
X0097467Y0039867D01*
X0097467Y0029867D02*
X0092267Y0029867D01*
X0122267Y0029867D02*
X0127467Y0029867D01*
X0127467Y0039867D02*
X0122267Y0039867D01*
X0122267Y0049867D02*
X0127467Y0049867D01*
X0127467Y0059867D02*
X0122267Y0059867D01*
X0122267Y0069867D02*
X0127467Y0069867D01*
X0127467Y0079867D02*
X0122267Y0079867D01*
X0122267Y0089867D02*
X0127467Y0089867D01*
X0127467Y0099867D02*
X0122267Y0099867D01*
X0122267Y0109867D02*
X0127467Y0109867D01*
X0127467Y0119867D02*
X0122267Y0119867D01*
X0122267Y0129867D02*
X0127467Y0129867D01*
X0127467Y0139867D02*
X0122267Y0139867D01*
X0122267Y0149867D02*
X0127467Y0149867D01*
X0127467Y0159867D02*
X0122267Y0159867D01*
D15*
X0082741Y0194867D03*
X0074867Y0194867D03*
X0066993Y0194867D03*
X0044945Y0186166D03*
X0040221Y0183016D03*
X0044945Y0179867D03*
X0040221Y0176717D03*
X0044945Y0173567D03*
D16*
X0024867Y0165497D03*
X0024867Y0194237D03*
D17*
X0059119Y0194867D03*
X0090615Y0194867D03*
D18*
X0095238Y0196688D02*
X0100267Y0196688D01*
X0100267Y0196772D02*
X0100267Y0192961D01*
X0102961Y0190267D01*
X0106772Y0190267D01*
X0109467Y0192961D01*
X0109467Y0196772D01*
X0106772Y0199467D01*
X0102961Y0199467D01*
X0100267Y0196772D01*
X0100267Y0195090D02*
X0095583Y0195090D01*
X0095583Y0195855D02*
X0094827Y0197681D01*
X0093429Y0199079D01*
X0091889Y0199717D01*
X0120711Y0199717D01*
X0120267Y0199272D01*
X0120267Y0195461D01*
X0121461Y0194267D01*
X0119867Y0194267D01*
X0119867Y0189867D01*
X0124267Y0189867D01*
X0124267Y0191689D01*
X0123189Y0192767D01*
X0125507Y0192767D01*
X0125781Y0192493D01*
X0125927Y0192432D01*
X0125267Y0191772D01*
X0125267Y0187961D01*
X0127067Y0186161D01*
X0127067Y0181026D01*
X0108281Y0162240D01*
X0107667Y0161626D01*
X0107667Y0165424D01*
X0107240Y0166453D01*
X0106453Y0167240D01*
X0101453Y0172240D01*
X0100424Y0172667D01*
X0061026Y0172667D01*
X0058426Y0175267D01*
X0061772Y0175267D01*
X0064467Y0177961D01*
X0064467Y0181772D01*
X0061772Y0184467D01*
X0057961Y0184467D01*
X0055267Y0181772D01*
X0055267Y0178426D01*
X0052667Y0181026D01*
X0052667Y0190424D01*
X0052240Y0191453D01*
X0047240Y0196453D01*
X0046453Y0197240D01*
X0045424Y0197667D01*
X0039310Y0197667D01*
X0038281Y0197240D01*
X0033060Y0192019D01*
X0032804Y0191840D01*
X0032670Y0191629D01*
X0032493Y0191453D01*
X0032373Y0191164D01*
X0032206Y0190900D01*
X0032162Y0190654D01*
X0032067Y0190424D01*
X0032067Y0190111D01*
X0032013Y0189803D01*
X0032067Y0189559D01*
X0032067Y0189310D01*
X0032186Y0189021D01*
X0032254Y0188716D01*
X0032397Y0188511D01*
X0032493Y0188281D01*
X0032714Y0188060D01*
X0035646Y0183875D01*
X0035646Y0182106D01*
X0036343Y0180425D01*
X0036901Y0179867D01*
X0036343Y0179308D01*
X0035646Y0177627D01*
X0035646Y0175807D01*
X0036343Y0174126D01*
X0037630Y0172839D01*
X0039311Y0172142D01*
X0040809Y0172142D01*
X0040891Y0171888D01*
X0041204Y0171275D01*
X0041608Y0170717D01*
X0042095Y0170231D01*
X0042652Y0169826D01*
X0043266Y0169513D01*
X0043921Y0169300D01*
X0044601Y0169193D01*
X0044945Y0169193D01*
X0044945Y0173567D01*
X0044945Y0173567D01*
X0044945Y0169193D01*
X0045290Y0169193D01*
X0045970Y0169300D01*
X0046625Y0169513D01*
X0047238Y0169826D01*
X0047795Y0170231D01*
X0048282Y0170717D01*
X0048687Y0171275D01*
X0048961Y0171812D01*
X0057134Y0163639D01*
X0056161Y0162667D01*
X0034966Y0162667D01*
X0034510Y0162699D01*
X0034412Y0162667D01*
X0034310Y0162667D01*
X0033887Y0162492D01*
X0033453Y0162347D01*
X0033375Y0162280D01*
X0033281Y0162240D01*
X0032957Y0161917D01*
X0032611Y0161617D01*
X0032565Y0161525D01*
X0032493Y0161453D01*
X0032318Y0161030D01*
X0027565Y0151525D01*
X0027493Y0151453D01*
X0027318Y0151030D01*
X0027113Y0150621D01*
X0027106Y0150518D01*
X0027067Y0150424D01*
X0027067Y0149966D01*
X0027034Y0149510D01*
X0027067Y0149412D01*
X0027067Y0113457D01*
X0026086Y0112476D01*
X0026086Y0107257D01*
X0027257Y0106086D01*
X0032476Y0106086D01*
X0033648Y0107257D01*
X0033648Y0112476D01*
X0032667Y0113457D01*
X0032667Y0149206D01*
X0036597Y0157067D01*
X0056161Y0157067D01*
X0057961Y0155267D01*
X0061772Y0155267D01*
X0063639Y0157134D01*
X0082067Y0138707D01*
X0082067Y0108060D01*
X0082493Y0107031D01*
X0086243Y0103281D01*
X0087031Y0102493D01*
X0088060Y0102067D01*
X0088199Y0102067D01*
X0087667Y0100782D01*
X0087667Y0098952D01*
X0088367Y0097261D01*
X0089661Y0095967D01*
X0091352Y0095267D01*
X0098382Y0095267D01*
X0100072Y0095967D01*
X0101224Y0097119D01*
X0102257Y0096086D01*
X0107067Y0096086D01*
X0107067Y0056026D01*
X0101995Y0050955D01*
X0101366Y0052472D01*
X0100072Y0053766D01*
X0098382Y0054467D01*
X0091352Y0054467D01*
X0089661Y0053766D01*
X0088367Y0052472D01*
X0087667Y0050782D01*
X0087667Y0048952D01*
X0088367Y0047261D01*
X0089661Y0045967D01*
X0091352Y0045267D01*
X0096307Y0045267D01*
X0095507Y0044467D01*
X0091352Y0044467D01*
X0089661Y0043766D01*
X0088367Y0042472D01*
X0087738Y0040955D01*
X0087667Y0041026D01*
X0087667Y0050424D01*
X0087240Y0051453D01*
X0086453Y0052240D01*
X0086453Y0052240D01*
X0077240Y0061453D01*
X0076453Y0062240D01*
X0075424Y0062667D01*
X0066026Y0062667D01*
X0042667Y0086026D01*
X0042667Y0146276D01*
X0043648Y0147257D01*
X0043648Y0152476D01*
X0042476Y0153648D01*
X0037257Y0153648D01*
X0036086Y0152476D01*
X0036086Y0147257D01*
X0037067Y0146276D01*
X0037067Y0084310D01*
X0037493Y0083281D01*
X0062493Y0058281D01*
X0063281Y0057493D01*
X0064310Y0057067D01*
X0073707Y0057067D01*
X0076307Y0054467D01*
X0072961Y0054467D01*
X0070267Y0051772D01*
X0070267Y0047961D01*
X0072961Y0045267D01*
X0076772Y0045267D01*
X0079467Y0047961D01*
X0079467Y0051307D01*
X0082067Y0048707D01*
X0082067Y0039310D01*
X0082493Y0038281D01*
X0088348Y0032426D01*
X0087667Y0030782D01*
X0087667Y0028952D01*
X0088367Y0027261D01*
X0089661Y0025967D01*
X0091352Y0025267D01*
X0098382Y0025267D01*
X0100072Y0025967D01*
X0101366Y0027261D01*
X0102067Y0028952D01*
X0102067Y0030782D01*
X0101366Y0032472D01*
X0100072Y0033766D01*
X0098382Y0034467D01*
X0094226Y0034467D01*
X0093426Y0035267D01*
X0098382Y0035267D01*
X0100072Y0035967D01*
X0101366Y0037261D01*
X0102067Y0038952D01*
X0102067Y0040782D01*
X0101386Y0042426D01*
X0112240Y0053281D01*
X0112667Y0054310D01*
X0112667Y0128107D01*
X0113281Y0127493D01*
X0118281Y0122493D01*
X0118362Y0122459D01*
X0117667Y0120782D01*
X0117667Y0118952D01*
X0118367Y0117261D01*
X0119661Y0115967D01*
X0121352Y0115267D01*
X0128382Y0115267D01*
X0130072Y0115967D01*
X0131366Y0117261D01*
X0132067Y0118952D01*
X0132067Y0120782D01*
X0131534Y0122067D01*
X0133707Y0122067D01*
X0141507Y0114267D01*
X0139867Y0114267D01*
X0139867Y0109867D01*
X0144267Y0109867D01*
X0144267Y0111507D01*
X0176086Y0079688D01*
X0176086Y0077257D01*
X0177257Y0076086D01*
X0182476Y0076086D01*
X0183648Y0077257D01*
X0183648Y0082476D01*
X0182476Y0083648D01*
X0180045Y0083648D01*
X0137240Y0126453D01*
X0136453Y0127240D01*
X0135424Y0127667D01*
X0131534Y0127667D01*
X0132067Y0128952D01*
X0132067Y0130782D01*
X0131366Y0132472D01*
X0130072Y0133766D01*
X0128382Y0134467D01*
X0121352Y0134467D01*
X0119661Y0133766D01*
X0118367Y0132472D01*
X0117738Y0130955D01*
X0117667Y0131026D01*
X0117667Y0158707D01*
X0117738Y0158779D01*
X0118367Y0157261D01*
X0119661Y0155967D01*
X0121352Y0155267D01*
X0128382Y0155267D01*
X0130072Y0155967D01*
X0131366Y0157261D01*
X0132067Y0158952D01*
X0132067Y0160782D01*
X0131366Y0162472D01*
X0130072Y0163766D01*
X0128382Y0164467D01*
X0123426Y0164467D01*
X0140203Y0181243D01*
X0140990Y0182031D01*
X0141417Y0183060D01*
X0141417Y0186811D01*
X0142961Y0185267D01*
X0146772Y0185267D01*
X0149467Y0187961D01*
X0149467Y0191772D01*
X0146772Y0194467D01*
X0142961Y0194467D01*
X0141051Y0192556D01*
X0140990Y0192703D01*
X0137240Y0196453D01*
X0136453Y0197240D01*
X0135424Y0197667D01*
X0129467Y0197667D01*
X0129467Y0199272D01*
X0129022Y0199717D01*
X0162271Y0199717D01*
X0161984Y0199571D01*
X0161284Y0199062D01*
X0160671Y0198450D01*
X0160163Y0197749D01*
X0159770Y0196978D01*
X0159502Y0196155D01*
X0159367Y0195300D01*
X0159367Y0195067D01*
X0164667Y0195067D01*
X0164667Y0194667D01*
X0165067Y0194667D01*
X0165067Y0189367D01*
X0165300Y0189367D01*
X0166155Y0189502D01*
X0166978Y0189770D01*
X0167749Y0190163D01*
X0168450Y0190671D01*
X0169062Y0191284D01*
X0169571Y0191984D01*
X0169747Y0192331D01*
X0170034Y0191638D01*
X0171638Y0190034D01*
X0173733Y0189167D01*
X0176000Y0189167D01*
X0178095Y0190034D01*
X0179699Y0191638D01*
X0179867Y0192043D01*
X0180034Y0191638D01*
X0181638Y0190034D01*
X0183733Y0189167D01*
X0186000Y0189167D01*
X0188095Y0190034D01*
X0189699Y0191638D01*
X0190567Y0193733D01*
X0190567Y0196000D01*
X0189699Y0198095D01*
X0188095Y0199699D01*
X0188052Y0199717D01*
X0199181Y0199717D01*
X0199138Y0199699D01*
X0197534Y0198095D01*
X0196667Y0196000D01*
X0196667Y0193733D01*
X0197534Y0191638D01*
X0199138Y0190034D01*
X0199543Y0189867D01*
X0199138Y0189699D01*
X0197534Y0188095D01*
X0196667Y0186000D01*
X0196667Y0183733D01*
X0197534Y0181638D01*
X0199138Y0180034D01*
X0199831Y0179747D01*
X0199484Y0179571D01*
X0198784Y0179062D01*
X0198171Y0178450D01*
X0197663Y0177749D01*
X0197270Y0176978D01*
X0197002Y0176155D01*
X0196867Y0175300D01*
X0196867Y0175067D01*
X0202167Y0175067D01*
X0202167Y0174667D01*
X0196867Y0174667D01*
X0196867Y0174434D01*
X0197002Y0173579D01*
X0197270Y0172755D01*
X0197663Y0171984D01*
X0198171Y0171284D01*
X0198784Y0170671D01*
X0199484Y0170163D01*
X0199831Y0169986D01*
X0199138Y0169699D01*
X0197534Y0168095D01*
X0196667Y0166000D01*
X0196667Y0163733D01*
X0197534Y0161638D01*
X0199138Y0160034D01*
X0199543Y0159867D01*
X0199138Y0159699D01*
X0197534Y0158095D01*
X0196667Y0156000D01*
X0196667Y0153733D01*
X0197534Y0151638D01*
X0199138Y0150034D01*
X0201233Y0149167D01*
X0203500Y0149167D01*
X0204717Y0149670D01*
X0204717Y0145063D01*
X0203500Y0145567D01*
X0201233Y0145567D01*
X0199138Y0144699D01*
X0197781Y0143342D01*
X0197476Y0143648D01*
X0192257Y0143648D01*
X0191276Y0142667D01*
X0131172Y0142667D01*
X0130072Y0143766D01*
X0128382Y0144467D01*
X0121352Y0144467D01*
X0119661Y0143766D01*
X0118367Y0142472D01*
X0117667Y0140782D01*
X0117667Y0138952D01*
X0118367Y0137261D01*
X0119661Y0135967D01*
X0121352Y0135267D01*
X0128382Y0135267D01*
X0130072Y0135967D01*
X0131172Y0137067D01*
X0191276Y0137067D01*
X0192257Y0136086D01*
X0197476Y0136086D01*
X0197781Y0136391D01*
X0199138Y0135034D01*
X0199543Y0134867D01*
X0199138Y0134699D01*
X0197534Y0133095D01*
X0196667Y0131000D01*
X0196667Y0128733D01*
X0197534Y0126638D01*
X0199138Y0125034D01*
X0199543Y0124867D01*
X0199138Y0124699D01*
X0197534Y0123095D01*
X0196667Y0121000D01*
X0196667Y0118733D01*
X0197534Y0116638D01*
X0199138Y0115034D01*
X0199543Y0114867D01*
X0199138Y0114699D01*
X0197534Y0113095D01*
X0196667Y0111000D01*
X0196667Y0108733D01*
X0197534Y0106638D01*
X0199138Y0105034D01*
X0199543Y0104867D01*
X0199138Y0104699D01*
X0197534Y0103095D01*
X0196667Y0101000D01*
X0196667Y0098733D01*
X0197534Y0096638D01*
X0199138Y0095034D01*
X0199543Y0094867D01*
X0199138Y0094699D01*
X0197534Y0093095D01*
X0196667Y0091000D01*
X0196667Y0088733D01*
X0197534Y0086638D01*
X0199138Y0085034D01*
X0199543Y0084867D01*
X0199138Y0084699D01*
X0197534Y0083095D01*
X0196667Y0081000D01*
X0196667Y0078733D01*
X0197534Y0076638D01*
X0198806Y0075367D01*
X0198430Y0075367D01*
X0197972Y0075244D01*
X0197561Y0075007D01*
X0197226Y0074672D01*
X0196989Y0074261D01*
X0196867Y0073804D01*
X0196867Y0070067D01*
X0202167Y0070067D01*
X0202167Y0069667D01*
X0202567Y0069667D01*
X0202567Y0064367D01*
X0204717Y0064367D01*
X0204717Y0006867D01*
X0011867Y0006867D01*
X0011867Y0064367D01*
X0014667Y0064367D01*
X0014667Y0069667D01*
X0015067Y0069667D01*
X0015067Y0070067D01*
X0020367Y0070067D01*
X0020367Y0073804D01*
X0020244Y0074261D01*
X0020007Y0074672D01*
X0019672Y0075007D01*
X0019261Y0075244D01*
X0018804Y0075367D01*
X0018428Y0075367D01*
X0019699Y0076638D01*
X0020567Y0078733D01*
X0020567Y0081000D01*
X0019699Y0083095D01*
X0018095Y0084699D01*
X0017690Y0084867D01*
X0018095Y0085034D01*
X0019699Y0086638D01*
X0020567Y0088733D01*
X0020567Y0091000D01*
X0019699Y0093095D01*
X0018095Y0094699D01*
X0017690Y0094867D01*
X0018095Y0095034D01*
X0019417Y0096356D01*
X0022067Y0093707D01*
X0022067Y0030321D01*
X0018815Y0020567D01*
X0018733Y0020567D01*
X0016638Y0019699D01*
X0015034Y0018095D01*
X0014167Y0016000D01*
X0014167Y0013733D01*
X0015034Y0011638D01*
X0016638Y0010034D01*
X0018733Y0009167D01*
X0021000Y0009167D01*
X0023095Y0010034D01*
X0024699Y0011638D01*
X0024867Y0012043D01*
X0025034Y0011638D01*
X0026638Y0010034D01*
X0028733Y0009167D01*
X0031000Y0009167D01*
X0033095Y0010034D01*
X0034699Y0011638D01*
X0034986Y0012331D01*
X0035163Y0011984D01*
X0035671Y0011284D01*
X0036284Y0010671D01*
X0036984Y0010163D01*
X0037755Y0009770D01*
X0038579Y0009502D01*
X0039434Y0009367D01*
X0039667Y0009367D01*
X0039667Y0014667D01*
X0040067Y0014667D01*
X0040067Y0015067D01*
X0039667Y0015067D01*
X0039667Y0020367D01*
X0039434Y0020367D01*
X0038579Y0020231D01*
X0037755Y0019964D01*
X0036984Y0019571D01*
X0036284Y0019062D01*
X0035671Y0018450D01*
X0035163Y0017749D01*
X0034986Y0017402D01*
X0034699Y0018095D01*
X0033095Y0019699D01*
X0031000Y0020567D01*
X0028733Y0020567D01*
X0026638Y0019699D01*
X0025034Y0018095D01*
X0024867Y0017690D01*
X0024699Y0018095D01*
X0024095Y0018699D01*
X0027492Y0028887D01*
X0027667Y0029310D01*
X0027667Y0029412D01*
X0027699Y0029510D01*
X0027667Y0029966D01*
X0027667Y0095424D01*
X0027240Y0096453D01*
X0026453Y0097240D01*
X0021453Y0102240D01*
X0020424Y0102667D01*
X0019876Y0102667D01*
X0019699Y0103095D01*
X0018095Y0104699D01*
X0017690Y0104867D01*
X0018095Y0105034D01*
X0019699Y0106638D01*
X0020567Y0108733D01*
X0020567Y0111000D01*
X0019699Y0113095D01*
X0018095Y0114699D01*
X0017690Y0114867D01*
X0018095Y0115034D01*
X0019699Y0116638D01*
X0020567Y0118733D01*
X0020567Y0121000D01*
X0019699Y0123095D01*
X0018095Y0124699D01*
X0017690Y0124867D01*
X0018095Y0125034D01*
X0019699Y0126638D01*
X0020567Y0128733D01*
X0020567Y0131000D01*
X0019699Y0133095D01*
X0018095Y0134699D01*
X0017690Y0134867D01*
X0018095Y0135034D01*
X0019699Y0136638D01*
X0020567Y0138733D01*
X0020567Y0141000D01*
X0019699Y0143095D01*
X0018095Y0144699D01*
X0016000Y0145567D01*
X0013733Y0145567D01*
X0011867Y0144794D01*
X0011867Y0199717D01*
X0019584Y0199717D01*
X0018415Y0198548D01*
X0017256Y0195751D01*
X0017256Y0192723D01*
X0018415Y0189926D01*
X0020556Y0187785D01*
X0023353Y0186627D01*
X0026380Y0186627D01*
X0029178Y0187785D01*
X0031318Y0189926D01*
X0032477Y0192723D01*
X0032477Y0195751D01*
X0031318Y0198548D01*
X0030149Y0199717D01*
X0057844Y0199717D01*
X0056304Y0199079D01*
X0054907Y0197681D01*
X0054150Y0195855D01*
X0054150Y0193878D01*
X0054907Y0192052D01*
X0056304Y0190655D01*
X0058130Y0189898D01*
X0060107Y0189898D01*
X0061933Y0190655D01*
X0063331Y0192052D01*
X0063333Y0192057D01*
X0064401Y0190988D01*
X0066083Y0190292D01*
X0067903Y0190292D01*
X0069584Y0190988D01*
X0070871Y0192275D01*
X0070930Y0192417D01*
X0070988Y0192275D01*
X0072275Y0190988D01*
X0073957Y0190292D01*
X0075777Y0190292D01*
X0077458Y0190988D01*
X0078745Y0192275D01*
X0078804Y0192417D01*
X0078862Y0192275D01*
X0080149Y0190988D01*
X0081831Y0190292D01*
X0083651Y0190292D01*
X0085332Y0190988D01*
X0086401Y0192057D01*
X0086403Y0192052D01*
X0087800Y0190655D01*
X0089626Y0189898D01*
X0091603Y0189898D01*
X0093429Y0190655D01*
X0094827Y0192052D01*
X0095583Y0193878D01*
X0095583Y0195855D01*
X0095423Y0193491D02*
X0100267Y0193491D01*
X0101335Y0191892D02*
X0094667Y0191892D01*
X0092559Y0190294D02*
X0102934Y0190294D01*
X0103044Y0189267D02*
X0100467Y0186689D01*
X0100467Y0184867D01*
X0104867Y0184867D01*
X0104867Y0184867D01*
X0104867Y0189267D01*
X0106689Y0189267D01*
X0109267Y0186689D01*
X0109267Y0184867D01*
X0104867Y0184867D01*
X0104867Y0184867D01*
X0104867Y0189267D01*
X0103044Y0189267D01*
X0102473Y0188695D02*
X0052667Y0188695D01*
X0052667Y0187097D02*
X0100874Y0187097D01*
X0100467Y0185498D02*
X0052667Y0185498D01*
X0052667Y0183900D02*
X0057395Y0183900D01*
X0055796Y0182301D02*
X0052667Y0182301D01*
X0052990Y0180703D02*
X0055267Y0180703D01*
X0055267Y0179104D02*
X0054589Y0179104D01*
X0059384Y0174309D02*
X0120349Y0174309D01*
X0121948Y0175907D02*
X0082413Y0175907D01*
X0081772Y0175267D02*
X0084467Y0177961D01*
X0084467Y0181772D01*
X0081772Y0184467D01*
X0077961Y0184467D01*
X0075267Y0181772D01*
X0075267Y0177961D01*
X0077961Y0175267D01*
X0081772Y0175267D01*
X0084011Y0177506D02*
X0123546Y0177506D01*
X0125145Y0179104D02*
X0084467Y0179104D01*
X0084467Y0180703D02*
X0102808Y0180703D01*
X0103044Y0180467D02*
X0100467Y0183044D01*
X0100467Y0184867D01*
X0104867Y0184867D01*
X0109267Y0184867D01*
X0109267Y0183044D01*
X0106689Y0180467D01*
X0104867Y0180467D01*
X0104867Y0184867D01*
X0104867Y0184867D01*
X0104867Y0184867D01*
X0104867Y0180467D01*
X0103044Y0180467D01*
X0104867Y0180703D02*
X0104867Y0180703D01*
X0104867Y0182301D02*
X0104867Y0182301D01*
X0104867Y0183900D02*
X0104867Y0183900D01*
X0104867Y0185498D02*
X0104867Y0185498D01*
X0104867Y0187097D02*
X0104867Y0187097D01*
X0104867Y0188695D02*
X0104867Y0188695D01*
X0107260Y0188695D02*
X0115467Y0188695D01*
X0115467Y0188044D02*
X0118044Y0185467D01*
X0119867Y0185467D01*
X0121689Y0185467D01*
X0124267Y0188044D01*
X0124267Y0189867D01*
X0119867Y0189867D01*
X0119867Y0189867D01*
X0119867Y0189867D01*
X0119867Y0194267D01*
X0118044Y0194267D01*
X0115467Y0191689D01*
X0115467Y0189867D01*
X0119867Y0189867D01*
X0119867Y0185467D01*
X0119867Y0189867D01*
X0119867Y0189867D01*
X0119867Y0189867D01*
X0115467Y0189867D01*
X0115467Y0188044D01*
X0116414Y0187097D02*
X0108859Y0187097D01*
X0109267Y0185498D02*
X0118012Y0185498D01*
X0119867Y0185498D02*
X0119867Y0185498D01*
X0119867Y0187097D02*
X0119867Y0187097D01*
X0119867Y0188695D02*
X0119867Y0188695D01*
X0119867Y0190294D02*
X0119867Y0190294D01*
X0119867Y0191892D02*
X0119867Y0191892D01*
X0119867Y0193491D02*
X0119867Y0193491D01*
X0120638Y0195090D02*
X0109467Y0195090D01*
X0109467Y0196688D02*
X0120267Y0196688D01*
X0120267Y0198287D02*
X0107952Y0198287D01*
X0109467Y0193491D02*
X0117268Y0193491D01*
X0115670Y0191892D02*
X0108398Y0191892D01*
X0106799Y0190294D02*
X0115467Y0190294D01*
X0121721Y0185498D02*
X0127067Y0185498D01*
X0127067Y0183900D02*
X0109267Y0183900D01*
X0108524Y0182301D02*
X0127067Y0182301D01*
X0126743Y0180703D02*
X0106925Y0180703D01*
X0101209Y0182301D02*
X0083937Y0182301D01*
X0082339Y0183900D02*
X0100467Y0183900D01*
X0102581Y0171112D02*
X0117152Y0171112D01*
X0118751Y0172710D02*
X0060983Y0172710D01*
X0062413Y0175907D02*
X0077321Y0175907D01*
X0075722Y0177506D02*
X0064011Y0177506D01*
X0064467Y0179104D02*
X0075267Y0179104D01*
X0075267Y0180703D02*
X0064467Y0180703D01*
X0063937Y0182301D02*
X0075796Y0182301D01*
X0077395Y0183900D02*
X0062339Y0183900D01*
X0061062Y0190294D02*
X0066078Y0190294D01*
X0067908Y0190294D02*
X0073952Y0190294D01*
X0075782Y0190294D02*
X0081826Y0190294D01*
X0083656Y0190294D02*
X0088671Y0190294D01*
X0086562Y0191892D02*
X0086236Y0191892D01*
X0079245Y0191892D02*
X0078362Y0191892D01*
X0071371Y0191892D02*
X0070488Y0191892D01*
X0063497Y0191892D02*
X0063171Y0191892D01*
X0057175Y0190294D02*
X0052667Y0190294D01*
X0051801Y0191892D02*
X0055066Y0191892D01*
X0054311Y0193491D02*
X0050202Y0193491D01*
X0048604Y0195090D02*
X0054150Y0195090D01*
X0054495Y0196688D02*
X0047005Y0196688D01*
X0047240Y0196453D02*
X0047240Y0196453D01*
X0044867Y0194867D02*
X0039867Y0194867D01*
X0034867Y0189867D01*
X0038371Y0184867D01*
X0040221Y0183016D01*
X0036227Y0180703D02*
X0011867Y0180703D01*
X0011867Y0182301D02*
X0035646Y0182301D01*
X0035629Y0183900D02*
X0011867Y0183900D01*
X0011867Y0185498D02*
X0034509Y0185498D01*
X0033389Y0187097D02*
X0027516Y0187097D01*
X0030088Y0188695D02*
X0032268Y0188695D01*
X0032067Y0190294D02*
X0031471Y0190294D01*
X0032133Y0191892D02*
X0032879Y0191892D01*
X0032477Y0193491D02*
X0034531Y0193491D01*
X0036130Y0195090D02*
X0032477Y0195090D01*
X0032089Y0196688D02*
X0037728Y0196688D01*
X0031426Y0198287D02*
X0055512Y0198287D01*
X0049867Y0189867D02*
X0044867Y0194867D01*
X0049867Y0189867D02*
X0049867Y0179867D01*
X0059867Y0169867D01*
X0099867Y0169867D01*
X0104867Y0164867D01*
X0104867Y0114867D01*
X0112667Y0115164D02*
X0140610Y0115164D01*
X0139867Y0114267D02*
X0138044Y0114267D01*
X0135467Y0111689D01*
X0135467Y0109867D01*
X0139867Y0109867D01*
X0139867Y0109867D01*
X0139867Y0109867D01*
X0144267Y0109867D01*
X0144267Y0108044D01*
X0141689Y0105467D01*
X0139867Y0105467D01*
X0139867Y0109867D01*
X0139867Y0114267D01*
X0139867Y0113565D02*
X0139867Y0113565D01*
X0139867Y0111967D02*
X0139867Y0111967D01*
X0139867Y0110368D02*
X0139867Y0110368D01*
X0139867Y0109867D02*
X0139867Y0109867D01*
X0139867Y0109867D01*
X0139867Y0105467D01*
X0138044Y0105467D01*
X0135467Y0108044D01*
X0135467Y0109867D01*
X0139867Y0109867D01*
X0139867Y0108770D02*
X0139867Y0108770D01*
X0139867Y0107171D02*
X0139867Y0107171D01*
X0139867Y0105573D02*
X0139867Y0105573D01*
X0141795Y0105573D02*
X0150201Y0105573D01*
X0151799Y0103974D02*
X0129570Y0103974D01*
X0130072Y0103766D02*
X0128382Y0104467D01*
X0121352Y0104467D01*
X0119661Y0103766D01*
X0118367Y0102472D01*
X0117667Y0100782D01*
X0117667Y0098952D01*
X0118367Y0097261D01*
X0119661Y0095967D01*
X0121352Y0095267D01*
X0128382Y0095267D01*
X0130072Y0095967D01*
X0131366Y0097261D01*
X0132067Y0098952D01*
X0132067Y0100782D01*
X0131366Y0102472D01*
X0130072Y0103766D01*
X0131406Y0102376D02*
X0153398Y0102376D01*
X0154996Y0100777D02*
X0132067Y0100777D01*
X0132067Y0099179D02*
X0156595Y0099179D01*
X0158193Y0097580D02*
X0131499Y0097580D01*
X0130087Y0095982D02*
X0159792Y0095982D01*
X0161390Y0094383D02*
X0141855Y0094383D01*
X0141772Y0094467D02*
X0137961Y0094467D01*
X0135267Y0091772D01*
X0135267Y0087961D01*
X0137961Y0085267D01*
X0141772Y0085267D01*
X0144467Y0087961D01*
X0144467Y0091772D01*
X0141772Y0094467D01*
X0143454Y0092785D02*
X0162989Y0092785D01*
X0164587Y0091186D02*
X0144467Y0091186D01*
X0144467Y0089588D02*
X0166186Y0089588D01*
X0167784Y0087989D02*
X0144467Y0087989D01*
X0142896Y0086391D02*
X0169383Y0086391D01*
X0170981Y0084792D02*
X0112667Y0084792D01*
X0112667Y0083194D02*
X0119088Y0083194D01*
X0119661Y0083766D02*
X0118367Y0082472D01*
X0117667Y0080782D01*
X0117667Y0078952D01*
X0118367Y0077261D01*
X0119661Y0075967D01*
X0121352Y0075267D01*
X0128382Y0075267D01*
X0130072Y0075967D01*
X0131366Y0077261D01*
X0132067Y0078952D01*
X0132067Y0080782D01*
X0131366Y0082472D01*
X0130072Y0083766D01*
X0128382Y0084467D01*
X0121352Y0084467D01*
X0119661Y0083766D01*
X0119661Y0085967D02*
X0121352Y0085267D01*
X0128382Y0085267D01*
X0130072Y0085967D01*
X0131366Y0087261D01*
X0132067Y0088952D01*
X0132067Y0090782D01*
X0131366Y0092472D01*
X0130072Y0093766D01*
X0128382Y0094467D01*
X0121352Y0094467D01*
X0119661Y0093766D01*
X0118367Y0092472D01*
X0117667Y0090782D01*
X0117667Y0088952D01*
X0118367Y0087261D01*
X0119661Y0085967D01*
X0119237Y0086391D02*
X0112667Y0086391D01*
X0112667Y0087989D02*
X0118065Y0087989D01*
X0117667Y0089588D02*
X0112667Y0089588D01*
X0112667Y0091186D02*
X0117834Y0091186D01*
X0118679Y0092785D02*
X0112667Y0092785D01*
X0112667Y0094383D02*
X0121150Y0094383D01*
X0119646Y0095982D02*
X0112667Y0095982D01*
X0112667Y0097580D02*
X0118235Y0097580D01*
X0117667Y0099179D02*
X0112667Y0099179D01*
X0112667Y0100777D02*
X0117667Y0100777D01*
X0118327Y0102376D02*
X0112667Y0102376D01*
X0112667Y0103974D02*
X0120163Y0103974D01*
X0120612Y0105573D02*
X0112667Y0105573D01*
X0112667Y0107171D02*
X0118457Y0107171D01*
X0118367Y0107261D02*
X0119661Y0105967D01*
X0121352Y0105267D01*
X0128382Y0105267D01*
X0130072Y0105967D01*
X0131366Y0107261D01*
X0132067Y0108952D01*
X0132067Y0110782D01*
X0131366Y0112472D01*
X0130072Y0113766D01*
X0128382Y0114467D01*
X0121352Y0114467D01*
X0119661Y0113766D01*
X0118367Y0112472D01*
X0117667Y0110782D01*
X0117667Y0108952D01*
X0118367Y0107261D01*
X0117742Y0108770D02*
X0112667Y0108770D01*
X0112667Y0110368D02*
X0117667Y0110368D01*
X0118158Y0111967D02*
X0112667Y0111967D01*
X0112667Y0113565D02*
X0119460Y0113565D01*
X0118865Y0116762D02*
X0112667Y0116762D01*
X0112667Y0118361D02*
X0117911Y0118361D01*
X0117667Y0119959D02*
X0112667Y0119959D01*
X0112667Y0121558D02*
X0117988Y0121558D01*
X0117617Y0123156D02*
X0112667Y0123156D01*
X0112667Y0124755D02*
X0116019Y0124755D01*
X0114420Y0126354D02*
X0112667Y0126354D01*
X0112667Y0127952D02*
X0112821Y0127952D01*
X0114867Y0129867D02*
X0114867Y0159867D01*
X0138617Y0183617D01*
X0138617Y0191117D01*
X0134867Y0194867D01*
X0127367Y0194867D01*
X0124867Y0197367D01*
X0129467Y0198287D02*
X0160553Y0198287D01*
X0159675Y0196688D02*
X0137005Y0196688D01*
X0138604Y0195090D02*
X0159367Y0195090D01*
X0159367Y0194667D02*
X0159367Y0194434D01*
X0159502Y0193579D01*
X0159770Y0192755D01*
X0160163Y0191984D01*
X0160671Y0191284D01*
X0161284Y0190671D01*
X0161984Y0190163D01*
X0162755Y0189770D01*
X0163579Y0189502D01*
X0164434Y0189367D01*
X0164667Y0189367D01*
X0164667Y0194667D01*
X0159367Y0194667D01*
X0159531Y0193491D02*
X0157465Y0193491D01*
X0156689Y0194267D02*
X0154867Y0194267D01*
X0154867Y0189867D01*
X0159267Y0189867D01*
X0159267Y0191689D01*
X0156689Y0194267D01*
X0154867Y0194267D02*
X0153044Y0194267D01*
X0150467Y0191689D01*
X0150467Y0189867D01*
X0154867Y0189867D01*
X0154867Y0189867D01*
X0154867Y0189867D01*
X0159267Y0189867D01*
X0159267Y0188044D01*
X0156689Y0185467D01*
X0154867Y0185467D01*
X0154867Y0189867D01*
X0154867Y0194267D01*
X0154867Y0193491D02*
X0154867Y0193491D01*
X0154867Y0191892D02*
X0154867Y0191892D01*
X0154867Y0190294D02*
X0154867Y0190294D01*
X0154867Y0189867D02*
X0154867Y0189867D01*
X0154867Y0189867D01*
X0154867Y0185467D01*
X0153044Y0185467D01*
X0150467Y0188044D01*
X0150467Y0189867D01*
X0154867Y0189867D01*
X0154867Y0188695D02*
X0154867Y0188695D01*
X0154867Y0187097D02*
X0154867Y0187097D01*
X0154867Y0185498D02*
X0154867Y0185498D01*
X0156721Y0185498D02*
X0196667Y0185498D01*
X0196667Y0183900D02*
X0141417Y0183900D01*
X0141417Y0185498D02*
X0142729Y0185498D01*
X0141103Y0182301D02*
X0197260Y0182301D01*
X0198469Y0180703D02*
X0139663Y0180703D01*
X0138064Y0179104D02*
X0198842Y0179104D01*
X0197539Y0177506D02*
X0136466Y0177506D01*
X0134867Y0175907D02*
X0196963Y0175907D01*
X0196886Y0174309D02*
X0133269Y0174309D01*
X0131670Y0172710D02*
X0197293Y0172710D01*
X0198343Y0171112D02*
X0130072Y0171112D01*
X0128473Y0169513D02*
X0198952Y0169513D01*
X0197460Y0167915D02*
X0126875Y0167915D01*
X0125276Y0166316D02*
X0196797Y0166316D01*
X0196667Y0164718D02*
X0123678Y0164718D01*
X0117927Y0158324D02*
X0117667Y0158324D01*
X0117667Y0156725D02*
X0118903Y0156725D01*
X0117667Y0155127D02*
X0196667Y0155127D01*
X0196751Y0153528D02*
X0142428Y0153528D01*
X0141689Y0154267D02*
X0139867Y0154267D01*
X0139867Y0149867D01*
X0139867Y0149867D01*
X0144267Y0149867D01*
X0144267Y0151689D01*
X0141689Y0154267D01*
X0141772Y0155267D02*
X0144467Y0157961D01*
X0144467Y0161772D01*
X0141772Y0164467D01*
X0137961Y0164467D01*
X0135267Y0161772D01*
X0135267Y0157961D01*
X0137961Y0155267D01*
X0141772Y0155267D01*
X0143231Y0156725D02*
X0196967Y0156725D01*
X0197763Y0158324D02*
X0144467Y0158324D01*
X0144467Y0159922D02*
X0199409Y0159922D01*
X0197652Y0161521D02*
X0144467Y0161521D01*
X0143119Y0163119D02*
X0196921Y0163119D01*
X0197414Y0151930D02*
X0144026Y0151930D01*
X0144267Y0150331D02*
X0198841Y0150331D01*
X0201158Y0145536D02*
X0141758Y0145536D01*
X0141689Y0145467D02*
X0144267Y0148044D01*
X0144267Y0149867D01*
X0139867Y0149867D01*
X0139867Y0149867D01*
X0139867Y0154267D01*
X0138044Y0154267D01*
X0135467Y0151689D01*
X0135467Y0149867D01*
X0139867Y0149867D01*
X0139867Y0149867D01*
X0139867Y0145467D01*
X0141689Y0145467D01*
X0139867Y0145467D02*
X0139867Y0149867D01*
X0139867Y0149867D01*
X0135467Y0149867D01*
X0135467Y0148044D01*
X0138044Y0145467D01*
X0139867Y0145467D01*
X0139867Y0145536D02*
X0139867Y0145536D01*
X0139867Y0147134D02*
X0139867Y0147134D01*
X0139867Y0148733D02*
X0139867Y0148733D01*
X0139867Y0150331D02*
X0139867Y0150331D01*
X0139867Y0151930D02*
X0139867Y0151930D01*
X0139867Y0153528D02*
X0139867Y0153528D01*
X0137306Y0153528D02*
X0129913Y0153528D01*
X0129773Y0153630D02*
X0129156Y0153944D01*
X0128497Y0154158D01*
X0127813Y0154267D01*
X0124867Y0154267D01*
X0124867Y0149867D01*
X0124867Y0149867D01*
X0131867Y0149867D01*
X0131867Y0150213D01*
X0131758Y0150897D01*
X0131544Y0151556D01*
X0131230Y0152173D01*
X0130823Y0152733D01*
X0130333Y0153223D01*
X0129773Y0153630D01*
X0131354Y0151930D02*
X0135707Y0151930D01*
X0135467Y0150331D02*
X0131848Y0150331D01*
X0131867Y0149867D02*
X0124867Y0149867D01*
X0124867Y0149867D01*
X0124867Y0154267D01*
X0121920Y0154267D01*
X0121236Y0154158D01*
X0120578Y0153944D01*
X0119961Y0153630D01*
X0119400Y0153223D01*
X0118911Y0152733D01*
X0118503Y0152173D01*
X0118189Y0151556D01*
X0117975Y0150897D01*
X0117867Y0150213D01*
X0117867Y0149867D01*
X0124867Y0149867D01*
X0124867Y0145467D01*
X0127813Y0145467D01*
X0128497Y0145575D01*
X0129156Y0145789D01*
X0129773Y0146103D01*
X0130333Y0146511D01*
X0130823Y0147000D01*
X0131230Y0147561D01*
X0131544Y0148178D01*
X0131758Y0148836D01*
X0131867Y0149520D01*
X0131867Y0149867D01*
X0131725Y0148733D02*
X0135467Y0148733D01*
X0136377Y0147134D02*
X0130920Y0147134D01*
X0128249Y0145536D02*
X0137975Y0145536D01*
X0143357Y0147134D02*
X0204717Y0147134D01*
X0204717Y0145536D02*
X0203575Y0145536D01*
X0204717Y0148733D02*
X0144267Y0148733D01*
X0136503Y0156725D02*
X0130831Y0156725D01*
X0131807Y0158324D02*
X0135267Y0158324D01*
X0135267Y0159922D02*
X0132067Y0159922D01*
X0131761Y0161521D02*
X0135267Y0161521D01*
X0136614Y0163119D02*
X0130719Y0163119D01*
X0124867Y0153528D02*
X0124867Y0153528D01*
X0124867Y0151930D02*
X0124867Y0151930D01*
X0124867Y0150331D02*
X0124867Y0150331D01*
X0124867Y0149867D02*
X0124867Y0149867D01*
X0124867Y0149867D01*
X0124867Y0145467D01*
X0121920Y0145467D01*
X0121236Y0145575D01*
X0120578Y0145789D01*
X0119961Y0146103D01*
X0119400Y0146511D01*
X0118911Y0147000D01*
X0118503Y0147561D01*
X0118189Y0148178D01*
X0117975Y0148836D01*
X0117867Y0149520D01*
X0117867Y0149867D01*
X0124867Y0149867D01*
X0124867Y0148733D02*
X0124867Y0148733D01*
X0124867Y0147134D02*
X0124867Y0147134D01*
X0124867Y0145536D02*
X0124867Y0145536D01*
X0121485Y0145536D02*
X0117667Y0145536D01*
X0117667Y0147134D02*
X0118813Y0147134D01*
X0118009Y0148733D02*
X0117667Y0148733D01*
X0117667Y0150331D02*
X0117885Y0150331D01*
X0117667Y0151930D02*
X0118380Y0151930D01*
X0117667Y0153528D02*
X0119821Y0153528D01*
X0120073Y0143937D02*
X0117667Y0143937D01*
X0117667Y0142339D02*
X0118312Y0142339D01*
X0117667Y0140740D02*
X0117667Y0140740D01*
X0117667Y0139142D02*
X0117667Y0139142D01*
X0117667Y0137543D02*
X0118250Y0137543D01*
X0117667Y0135945D02*
X0119715Y0135945D01*
X0121061Y0134346D02*
X0117667Y0134346D01*
X0117667Y0132748D02*
X0118642Y0132748D01*
X0117819Y0131149D02*
X0117667Y0131149D01*
X0114867Y0129867D02*
X0119867Y0124867D01*
X0134867Y0124867D01*
X0179867Y0079867D01*
X0176086Y0078398D02*
X0131837Y0078398D01*
X0132067Y0079997D02*
X0175777Y0079997D01*
X0174178Y0081595D02*
X0131730Y0081595D01*
X0130645Y0083194D02*
X0172580Y0083194D01*
X0177302Y0086391D02*
X0197782Y0086391D01*
X0196975Y0087989D02*
X0175704Y0087989D01*
X0174105Y0089588D02*
X0196667Y0089588D01*
X0196744Y0091186D02*
X0172507Y0091186D01*
X0170908Y0092785D02*
X0197406Y0092785D01*
X0198822Y0094383D02*
X0169310Y0094383D01*
X0167711Y0095982D02*
X0198190Y0095982D01*
X0197144Y0097580D02*
X0166113Y0097580D01*
X0164514Y0099179D02*
X0196667Y0099179D01*
X0196667Y0100777D02*
X0162916Y0100777D01*
X0161317Y0102376D02*
X0197236Y0102376D01*
X0198413Y0103974D02*
X0159719Y0103974D01*
X0158120Y0105573D02*
X0198599Y0105573D01*
X0197313Y0107171D02*
X0156522Y0107171D01*
X0154923Y0108770D02*
X0196667Y0108770D01*
X0196667Y0110368D02*
X0153325Y0110368D01*
X0151726Y0111967D02*
X0197067Y0111967D01*
X0198004Y0113565D02*
X0150128Y0113565D01*
X0148529Y0115164D02*
X0199008Y0115164D01*
X0197483Y0116762D02*
X0146931Y0116762D01*
X0145332Y0118361D02*
X0196821Y0118361D01*
X0196667Y0119959D02*
X0143734Y0119959D01*
X0142135Y0121558D02*
X0196898Y0121558D01*
X0197595Y0123156D02*
X0140537Y0123156D01*
X0138938Y0124755D02*
X0199273Y0124755D01*
X0197819Y0126354D02*
X0137340Y0126354D01*
X0134216Y0121558D02*
X0131745Y0121558D01*
X0132067Y0119959D02*
X0135814Y0119959D01*
X0137413Y0118361D02*
X0131822Y0118361D01*
X0130868Y0116762D02*
X0139011Y0116762D01*
X0137343Y0113565D02*
X0130273Y0113565D01*
X0131576Y0111967D02*
X0135744Y0111967D01*
X0135467Y0110368D02*
X0132067Y0110368D01*
X0131991Y0108770D02*
X0135467Y0108770D01*
X0136339Y0107171D02*
X0131277Y0107171D01*
X0129121Y0105573D02*
X0137938Y0105573D01*
X0143394Y0107171D02*
X0148602Y0107171D01*
X0147004Y0108770D02*
X0144267Y0108770D01*
X0144267Y0110368D02*
X0145405Y0110368D01*
X0137878Y0094383D02*
X0128583Y0094383D01*
X0131054Y0092785D02*
X0136279Y0092785D01*
X0135267Y0091186D02*
X0131899Y0091186D01*
X0132067Y0089588D02*
X0135267Y0089588D01*
X0135267Y0087989D02*
X0131668Y0087989D01*
X0130496Y0086391D02*
X0136837Y0086391D01*
X0130905Y0076800D02*
X0176543Y0076800D01*
X0183190Y0076800D02*
X0197467Y0076800D01*
X0197898Y0075201D02*
X0112667Y0075201D01*
X0112667Y0073603D02*
X0119923Y0073603D01*
X0119961Y0073630D02*
X0119400Y0073223D01*
X0118911Y0072733D01*
X0118503Y0072173D01*
X0118189Y0071556D01*
X0117975Y0070897D01*
X0117867Y0070213D01*
X0117867Y0069867D01*
X0124867Y0069867D01*
X0124867Y0069867D01*
X0124867Y0074267D01*
X0127813Y0074267D01*
X0128497Y0074158D01*
X0129156Y0073944D01*
X0129773Y0073630D01*
X0130333Y0073223D01*
X0130823Y0072733D01*
X0131230Y0072173D01*
X0131544Y0071556D01*
X0131758Y0070897D01*
X0131867Y0070213D01*
X0131867Y0069867D01*
X0124867Y0069867D01*
X0124867Y0069867D01*
X0124867Y0074267D01*
X0121920Y0074267D01*
X0121236Y0074158D01*
X0120578Y0073944D01*
X0119961Y0073630D01*
X0118418Y0072004D02*
X0112667Y0072004D01*
X0112667Y0070406D02*
X0117897Y0070406D01*
X0117867Y0069867D02*
X0117867Y0069520D01*
X0117975Y0068836D01*
X0118189Y0068178D01*
X0118503Y0067561D01*
X0118911Y0067000D01*
X0119400Y0066511D01*
X0119961Y0066103D01*
X0120578Y0065789D01*
X0121236Y0065575D01*
X0121920Y0065467D01*
X0124867Y0065467D01*
X0127813Y0065467D01*
X0128497Y0065575D01*
X0129156Y0065789D01*
X0129773Y0066103D01*
X0130333Y0066511D01*
X0130823Y0067000D01*
X0131230Y0067561D01*
X0131544Y0068178D01*
X0131758Y0068836D01*
X0131867Y0069520D01*
X0131867Y0069867D01*
X0124867Y0069867D01*
X0124867Y0065467D01*
X0124867Y0069867D01*
X0124867Y0069867D01*
X0124867Y0069867D01*
X0117867Y0069867D01*
X0117984Y0068807D02*
X0112667Y0068807D01*
X0112667Y0067209D02*
X0118759Y0067209D01*
X0121128Y0065610D02*
X0112667Y0065610D01*
X0112667Y0064012D02*
X0120253Y0064012D01*
X0119661Y0063766D02*
X0118367Y0062472D01*
X0117667Y0060782D01*
X0117667Y0058952D01*
X0118367Y0057261D01*
X0119661Y0055967D01*
X0121352Y0055267D01*
X0128382Y0055267D01*
X0130072Y0055967D01*
X0131366Y0057261D01*
X0132067Y0058952D01*
X0132067Y0060782D01*
X0131366Y0062472D01*
X0130072Y0063766D01*
X0128382Y0064467D01*
X0121352Y0064467D01*
X0119661Y0063766D01*
X0118342Y0062413D02*
X0112667Y0062413D01*
X0112667Y0060815D02*
X0117680Y0060815D01*
X0117667Y0059216D02*
X0112667Y0059216D01*
X0112667Y0057618D02*
X0118219Y0057618D01*
X0119609Y0056019D02*
X0112667Y0056019D01*
X0112667Y0054421D02*
X0121240Y0054421D01*
X0121352Y0054467D02*
X0119661Y0053766D01*
X0118367Y0052472D01*
X0117667Y0050782D01*
X0117667Y0048952D01*
X0118367Y0047261D01*
X0119661Y0045967D01*
X0121352Y0045267D01*
X0128382Y0045267D01*
X0130072Y0045967D01*
X0131366Y0047261D01*
X0132067Y0048952D01*
X0132067Y0050782D01*
X0131366Y0052472D01*
X0130072Y0053766D01*
X0128382Y0054467D01*
X0121352Y0054467D01*
X0118717Y0052822D02*
X0111782Y0052822D01*
X0110183Y0051223D02*
X0117850Y0051223D01*
X0117667Y0049625D02*
X0108585Y0049625D01*
X0106986Y0048026D02*
X0118050Y0048026D01*
X0119200Y0046428D02*
X0105388Y0046428D01*
X0103789Y0044829D02*
X0204717Y0044829D01*
X0204717Y0043231D02*
X0130608Y0043231D01*
X0130072Y0043766D02*
X0131366Y0042472D01*
X0132067Y0040782D01*
X0132067Y0038952D01*
X0131366Y0037261D01*
X0130072Y0035967D01*
X0128382Y0035267D01*
X0121352Y0035267D01*
X0119661Y0035967D01*
X0118367Y0037261D01*
X0117667Y0038952D01*
X0117667Y0040782D01*
X0118367Y0042472D01*
X0119661Y0043766D01*
X0121352Y0044467D01*
X0128382Y0044467D01*
X0130072Y0043766D01*
X0131714Y0041632D02*
X0204717Y0041632D01*
X0204717Y0040034D02*
X0132067Y0040034D01*
X0131853Y0038435D02*
X0204717Y0038435D01*
X0204717Y0036837D02*
X0130942Y0036837D01*
X0130072Y0033766D02*
X0128382Y0034467D01*
X0121352Y0034467D01*
X0119661Y0033766D01*
X0118367Y0032472D01*
X0117667Y0030782D01*
X0117667Y0028952D01*
X0118367Y0027261D01*
X0119661Y0025967D01*
X0121352Y0025267D01*
X0128382Y0025267D01*
X0130072Y0025967D01*
X0131366Y0027261D01*
X0132067Y0028952D01*
X0132067Y0030782D01*
X0131366Y0032472D01*
X0130072Y0033766D01*
X0130199Y0033640D02*
X0204717Y0033640D01*
X0204717Y0035238D02*
X0093455Y0035238D01*
X0094867Y0029867D02*
X0084867Y0039867D01*
X0084867Y0049867D01*
X0074867Y0059867D01*
X0064867Y0059867D01*
X0039867Y0084867D01*
X0039867Y0149867D01*
X0043648Y0150331D02*
X0046086Y0150331D01*
X0046086Y0148733D02*
X0043648Y0148733D01*
X0043525Y0147134D02*
X0046209Y0147134D01*
X0046086Y0147257D02*
X0047257Y0146086D01*
X0052476Y0146086D01*
X0053648Y0147257D01*
X0053648Y0152476D01*
X0052476Y0153648D01*
X0047257Y0153648D01*
X0046086Y0152476D01*
X0046086Y0147257D01*
X0042667Y0145536D02*
X0075238Y0145536D01*
X0073639Y0147134D02*
X0053525Y0147134D01*
X0053648Y0148733D02*
X0072041Y0148733D01*
X0070442Y0150331D02*
X0053648Y0150331D01*
X0053648Y0151930D02*
X0068844Y0151930D01*
X0067245Y0153528D02*
X0052596Y0153528D01*
X0056503Y0156725D02*
X0036426Y0156725D01*
X0035627Y0155127D02*
X0065647Y0155127D01*
X0064048Y0156725D02*
X0063231Y0156725D01*
X0064867Y0159867D02*
X0084867Y0139867D01*
X0084867Y0108617D01*
X0088617Y0104867D01*
X0102367Y0104867D01*
X0104867Y0102367D01*
X0104867Y0099867D01*
X0107067Y0095982D02*
X0100087Y0095982D01*
X0099156Y0093944D02*
X0098497Y0094158D01*
X0097813Y0094267D01*
X0094867Y0094267D01*
X0094867Y0089867D01*
X0094867Y0089867D01*
X0101867Y0089867D01*
X0101867Y0090213D01*
X0101758Y0090897D01*
X0101544Y0091556D01*
X0101230Y0092173D01*
X0100823Y0092733D01*
X0100333Y0093223D01*
X0099773Y0093630D01*
X0099156Y0093944D01*
X0100771Y0092785D02*
X0107067Y0092785D01*
X0107067Y0094383D02*
X0073411Y0094383D01*
X0073095Y0094699D02*
X0071000Y0095567D01*
X0068733Y0095567D01*
X0066638Y0094699D01*
X0065034Y0093095D01*
X0064167Y0091000D01*
X0064167Y0088733D01*
X0065034Y0086638D01*
X0066638Y0085034D01*
X0067331Y0084747D01*
X0066984Y0084571D01*
X0066284Y0084062D01*
X0065671Y0083450D01*
X0065163Y0082749D01*
X0064770Y0081978D01*
X0064502Y0081155D01*
X0064367Y0080300D01*
X0064367Y0079867D01*
X0069867Y0079867D01*
X0075367Y0079867D01*
X0075367Y0080300D01*
X0075231Y0081155D01*
X0074964Y0081978D01*
X0074571Y0082749D01*
X0074062Y0083450D01*
X0073450Y0084062D01*
X0072749Y0084571D01*
X0072402Y0084747D01*
X0073095Y0085034D01*
X0074699Y0086638D01*
X0075567Y0088733D01*
X0075567Y0091000D01*
X0074699Y0093095D01*
X0073095Y0094699D01*
X0074828Y0092785D02*
X0088962Y0092785D01*
X0088911Y0092733D02*
X0088503Y0092173D01*
X0088189Y0091556D01*
X0087975Y0090897D01*
X0087867Y0090213D01*
X0087867Y0089867D01*
X0094867Y0089867D01*
X0094867Y0089867D01*
X0094867Y0094267D01*
X0091920Y0094267D01*
X0091236Y0094158D01*
X0090578Y0093944D01*
X0089961Y0093630D01*
X0089400Y0093223D01*
X0088911Y0092733D01*
X0088069Y0091186D02*
X0075490Y0091186D01*
X0075567Y0089588D02*
X0087867Y0089588D01*
X0087867Y0089520D02*
X0087975Y0088836D01*
X0088189Y0088178D01*
X0088503Y0087561D01*
X0088911Y0087000D01*
X0089400Y0086511D01*
X0089961Y0086103D01*
X0090578Y0085789D01*
X0091236Y0085575D01*
X0091920Y0085467D01*
X0094867Y0085467D01*
X0097813Y0085467D01*
X0098497Y0085575D01*
X0099156Y0085789D01*
X0099773Y0086103D01*
X0100333Y0086511D01*
X0100823Y0087000D01*
X0101230Y0087561D01*
X0101544Y0088178D01*
X0101758Y0088836D01*
X0101867Y0089520D01*
X0101867Y0089867D01*
X0094867Y0089867D01*
X0094867Y0085467D01*
X0094867Y0089867D01*
X0094867Y0089867D01*
X0094867Y0089867D01*
X0087867Y0089867D01*
X0087867Y0089520D01*
X0088285Y0087989D02*
X0075259Y0087989D01*
X0074452Y0086391D02*
X0089565Y0086391D01*
X0091352Y0084467D02*
X0089661Y0083766D01*
X0088367Y0082472D01*
X0087667Y0080782D01*
X0087667Y0078952D01*
X0088367Y0077261D01*
X0089661Y0075967D01*
X0091352Y0075267D01*
X0098382Y0075267D01*
X0100072Y0075967D01*
X0101366Y0077261D01*
X0102067Y0078952D01*
X0102067Y0080782D01*
X0101366Y0082472D01*
X0100072Y0083766D01*
X0098382Y0084467D01*
X0091352Y0084467D01*
X0089088Y0083194D02*
X0074248Y0083194D01*
X0075088Y0081595D02*
X0088004Y0081595D01*
X0087667Y0079997D02*
X0075367Y0079997D01*
X0075367Y0079867D02*
X0069867Y0079867D01*
X0069867Y0079867D01*
X0069867Y0079867D01*
X0064367Y0079867D01*
X0064367Y0079434D01*
X0064502Y0078579D01*
X0064770Y0077755D01*
X0065163Y0076984D01*
X0065671Y0076284D01*
X0066284Y0075671D01*
X0066984Y0075163D01*
X0067331Y0074986D01*
X0066638Y0074699D01*
X0065034Y0073095D01*
X0064167Y0071000D01*
X0064167Y0068733D01*
X0065034Y0066638D01*
X0066638Y0065034D01*
X0068733Y0064167D01*
X0071000Y0064167D01*
X0073095Y0065034D01*
X0074699Y0066638D01*
X0075567Y0068733D01*
X0075567Y0071000D01*
X0074699Y0073095D01*
X0073095Y0074699D01*
X0072402Y0074986D01*
X0072749Y0075163D01*
X0073450Y0075671D01*
X0074062Y0076284D01*
X0074571Y0076984D01*
X0074964Y0077755D01*
X0075231Y0078579D01*
X0075367Y0079434D01*
X0075367Y0079867D01*
X0075173Y0078398D02*
X0087896Y0078398D01*
X0088828Y0076800D02*
X0074437Y0076800D01*
X0072802Y0075201D02*
X0107067Y0075201D01*
X0107067Y0073603D02*
X0100236Y0073603D01*
X0100072Y0073766D02*
X0098382Y0074467D01*
X0091352Y0074467D01*
X0089661Y0073766D01*
X0088367Y0072472D01*
X0087667Y0070782D01*
X0087667Y0068952D01*
X0088367Y0067261D01*
X0089661Y0065967D01*
X0091352Y0065267D01*
X0098382Y0065267D01*
X0100072Y0065967D01*
X0101366Y0067261D01*
X0102067Y0068952D01*
X0102067Y0070782D01*
X0101366Y0072472D01*
X0100072Y0073766D01*
X0101560Y0072004D02*
X0107067Y0072004D01*
X0107067Y0070406D02*
X0102067Y0070406D01*
X0102007Y0068807D02*
X0107067Y0068807D01*
X0107067Y0067209D02*
X0101314Y0067209D01*
X0099211Y0065610D02*
X0107067Y0065610D01*
X0107067Y0064012D02*
X0099480Y0064012D01*
X0100072Y0063766D02*
X0098382Y0064467D01*
X0091352Y0064467D01*
X0089661Y0063766D01*
X0088367Y0062472D01*
X0087667Y0060782D01*
X0087667Y0058952D01*
X0088367Y0057261D01*
X0089661Y0055967D01*
X0091352Y0055267D01*
X0098382Y0055267D01*
X0100072Y0055967D01*
X0101366Y0057261D01*
X0102067Y0058952D01*
X0102067Y0060782D01*
X0101366Y0062472D01*
X0100072Y0063766D01*
X0101391Y0062413D02*
X0107067Y0062413D01*
X0107067Y0060815D02*
X0102053Y0060815D01*
X0102067Y0059216D02*
X0107067Y0059216D01*
X0107067Y0057618D02*
X0101514Y0057618D01*
X0100124Y0056019D02*
X0107059Y0056019D01*
X0105461Y0054421D02*
X0098493Y0054421D01*
X0101017Y0052822D02*
X0103862Y0052822D01*
X0102264Y0051223D02*
X0101884Y0051223D01*
X0095870Y0044829D02*
X0087667Y0044829D01*
X0087667Y0043231D02*
X0089126Y0043231D01*
X0088019Y0041632D02*
X0087667Y0041632D01*
X0083937Y0036837D02*
X0027667Y0036837D01*
X0027667Y0038435D02*
X0082429Y0038435D01*
X0082067Y0040034D02*
X0027667Y0040034D01*
X0027667Y0041632D02*
X0036596Y0041632D01*
X0035267Y0042961D02*
X0037961Y0040267D01*
X0041772Y0040267D01*
X0044467Y0042961D01*
X0044467Y0045507D01*
X0045467Y0046507D01*
X0045467Y0044867D01*
X0049867Y0044867D01*
X0054267Y0044867D01*
X0054267Y0046689D01*
X0053889Y0047067D01*
X0061161Y0047067D01*
X0062961Y0045267D01*
X0066772Y0045267D01*
X0069467Y0047961D01*
X0069467Y0051772D01*
X0066772Y0054467D01*
X0062961Y0054467D01*
X0061161Y0052667D01*
X0044310Y0052667D01*
X0043281Y0052240D01*
X0040507Y0049467D01*
X0037961Y0049467D01*
X0035267Y0046772D01*
X0035267Y0042961D01*
X0035267Y0043231D02*
X0027667Y0043231D01*
X0027667Y0044829D02*
X0035267Y0044829D01*
X0035267Y0046428D02*
X0027667Y0046428D01*
X0027667Y0048026D02*
X0036521Y0048026D01*
X0040665Y0049625D02*
X0027667Y0049625D01*
X0027667Y0051223D02*
X0042264Y0051223D01*
X0044867Y0049867D02*
X0039867Y0044867D01*
X0044467Y0044829D02*
X0045467Y0044829D01*
X0045467Y0044867D02*
X0045467Y0043044D01*
X0048044Y0040467D01*
X0049867Y0040467D01*
X0051689Y0040467D01*
X0054267Y0043044D01*
X0054267Y0044867D01*
X0049867Y0044867D01*
X0049867Y0044867D01*
X0044867Y0039867D01*
X0044867Y0034867D01*
X0047961Y0029467D02*
X0045267Y0026772D01*
X0045267Y0022961D01*
X0047961Y0020267D01*
X0051772Y0020267D01*
X0054467Y0022961D01*
X0054467Y0026772D01*
X0051772Y0029467D01*
X0047961Y0029467D01*
X0047339Y0028844D02*
X0042112Y0028844D01*
X0041689Y0029267D02*
X0039867Y0029267D01*
X0039867Y0024867D01*
X0039867Y0024867D01*
X0044267Y0024867D01*
X0044267Y0026689D01*
X0041689Y0029267D01*
X0039867Y0029267D02*
X0038044Y0029267D01*
X0035467Y0026689D01*
X0035467Y0024867D01*
X0039867Y0024867D01*
X0039867Y0024867D01*
X0039867Y0029267D01*
X0039867Y0028844D02*
X0039867Y0028844D01*
X0039867Y0027246D02*
X0039867Y0027246D01*
X0039867Y0025647D02*
X0039867Y0025647D01*
X0039867Y0024867D02*
X0039867Y0024867D01*
X0044267Y0024867D01*
X0044267Y0023044D01*
X0041689Y0020467D01*
X0039867Y0020467D01*
X0039867Y0024867D01*
X0039867Y0024867D01*
X0035467Y0024867D01*
X0035467Y0023044D01*
X0038044Y0020467D01*
X0039867Y0020467D01*
X0039867Y0024867D01*
X0039867Y0024049D02*
X0039867Y0024049D01*
X0039867Y0022450D02*
X0039867Y0022450D01*
X0039867Y0020852D02*
X0039867Y0020852D01*
X0040067Y0020367D02*
X0040067Y0015067D01*
X0045367Y0015067D01*
X0045367Y0015300D01*
X0045231Y0016155D01*
X0044964Y0016978D01*
X0044571Y0017749D01*
X0044062Y0018450D01*
X0043450Y0019062D01*
X0042749Y0019571D01*
X0041978Y0019964D01*
X0041155Y0020231D01*
X0040300Y0020367D01*
X0040067Y0020367D01*
X0040067Y0019253D02*
X0039667Y0019253D01*
X0039667Y0017655D02*
X0040067Y0017655D01*
X0040067Y0016056D02*
X0039667Y0016056D01*
X0040067Y0014667D02*
X0045367Y0014667D01*
X0045367Y0014434D01*
X0045231Y0013579D01*
X0044964Y0012755D01*
X0044571Y0011984D01*
X0044062Y0011284D01*
X0043450Y0010671D01*
X0042749Y0010163D01*
X0041978Y0009770D01*
X0041155Y0009502D01*
X0040300Y0009367D01*
X0040067Y0009367D01*
X0040067Y0014667D01*
X0040067Y0014458D02*
X0039667Y0014458D01*
X0039667Y0012859D02*
X0040067Y0012859D01*
X0040067Y0011261D02*
X0039667Y0011261D01*
X0039667Y0009662D02*
X0040067Y0009662D01*
X0041647Y0009662D02*
X0204717Y0009662D01*
X0204717Y0008064D02*
X0011867Y0008064D01*
X0011867Y0009662D02*
X0017537Y0009662D01*
X0015412Y0011261D02*
X0011867Y0011261D01*
X0011867Y0012859D02*
X0014529Y0012859D01*
X0014167Y0014458D02*
X0011867Y0014458D01*
X0011867Y0016056D02*
X0014190Y0016056D01*
X0014852Y0017655D02*
X0011867Y0017655D01*
X0011867Y0019253D02*
X0016192Y0019253D01*
X0018910Y0020852D02*
X0011867Y0020852D01*
X0011867Y0022450D02*
X0019443Y0022450D01*
X0019976Y0024049D02*
X0011867Y0024049D01*
X0011867Y0025647D02*
X0020509Y0025647D01*
X0021042Y0027246D02*
X0011867Y0027246D01*
X0011867Y0028844D02*
X0021574Y0028844D01*
X0022067Y0030443D02*
X0011867Y0030443D01*
X0011867Y0032041D02*
X0022067Y0032041D01*
X0022067Y0033640D02*
X0011867Y0033640D01*
X0011867Y0035238D02*
X0022067Y0035238D01*
X0022067Y0036837D02*
X0011867Y0036837D01*
X0011867Y0038435D02*
X0022067Y0038435D01*
X0022067Y0040034D02*
X0011867Y0040034D01*
X0011867Y0041632D02*
X0022067Y0041632D01*
X0022067Y0043231D02*
X0011867Y0043231D01*
X0011867Y0044829D02*
X0022067Y0044829D01*
X0022067Y0046428D02*
X0011867Y0046428D01*
X0011867Y0048026D02*
X0022067Y0048026D01*
X0022067Y0049625D02*
X0011867Y0049625D01*
X0011867Y0051223D02*
X0022067Y0051223D01*
X0022067Y0052822D02*
X0011867Y0052822D01*
X0011867Y0054421D02*
X0022067Y0054421D01*
X0022067Y0056019D02*
X0011867Y0056019D01*
X0011867Y0057618D02*
X0022067Y0057618D01*
X0022067Y0059216D02*
X0011867Y0059216D01*
X0011867Y0060815D02*
X0022067Y0060815D01*
X0022067Y0062413D02*
X0011867Y0062413D01*
X0011867Y0064012D02*
X0022067Y0064012D01*
X0022067Y0065610D02*
X0020281Y0065610D01*
X0020244Y0065472D02*
X0020367Y0065930D01*
X0020367Y0069667D01*
X0015067Y0069667D01*
X0015067Y0064367D01*
X0018804Y0064367D01*
X0019261Y0064489D01*
X0019672Y0064726D01*
X0020007Y0065061D01*
X0020244Y0065472D01*
X0020367Y0067209D02*
X0022067Y0067209D01*
X0022067Y0068807D02*
X0020367Y0068807D01*
X0020367Y0070406D02*
X0022067Y0070406D01*
X0022067Y0072004D02*
X0020367Y0072004D01*
X0020367Y0073603D02*
X0022067Y0073603D01*
X0022067Y0075201D02*
X0019336Y0075201D01*
X0019766Y0076800D02*
X0022067Y0076800D01*
X0022067Y0078398D02*
X0020428Y0078398D01*
X0020567Y0079997D02*
X0022067Y0079997D01*
X0022067Y0081595D02*
X0020320Y0081595D01*
X0019601Y0083194D02*
X0022067Y0083194D01*
X0022067Y0084792D02*
X0017870Y0084792D01*
X0019452Y0086391D02*
X0022067Y0086391D01*
X0022067Y0087989D02*
X0020259Y0087989D01*
X0020567Y0089588D02*
X0022067Y0089588D01*
X0022067Y0091186D02*
X0020490Y0091186D01*
X0019828Y0092785D02*
X0022067Y0092785D01*
X0021390Y0094383D02*
X0018411Y0094383D01*
X0019043Y0095982D02*
X0019792Y0095982D01*
X0019867Y0099867D02*
X0024867Y0094867D01*
X0024867Y0029867D01*
X0019867Y0014867D01*
X0024322Y0011261D02*
X0025412Y0011261D01*
X0027537Y0009662D02*
X0022197Y0009662D01*
X0032197Y0009662D02*
X0038086Y0009662D01*
X0035694Y0011261D02*
X0034322Y0011261D01*
X0034881Y0017655D02*
X0035114Y0017655D01*
X0036547Y0019253D02*
X0033541Y0019253D01*
X0036060Y0022450D02*
X0025346Y0022450D01*
X0024813Y0020852D02*
X0037659Y0020852D01*
X0035467Y0024049D02*
X0025879Y0024049D01*
X0026412Y0025647D02*
X0035467Y0025647D01*
X0036023Y0027246D02*
X0026944Y0027246D01*
X0027477Y0028844D02*
X0037622Y0028844D01*
X0043710Y0027246D02*
X0045740Y0027246D01*
X0045267Y0025647D02*
X0044267Y0025647D01*
X0044267Y0024049D02*
X0045267Y0024049D01*
X0045778Y0022450D02*
X0043673Y0022450D01*
X0042074Y0020852D02*
X0047376Y0020852D01*
X0044619Y0017655D02*
X0060573Y0017655D01*
X0060267Y0017961D02*
X0062961Y0015267D01*
X0066772Y0015267D01*
X0069467Y0017961D01*
X0069467Y0021772D01*
X0066772Y0024467D01*
X0062961Y0024467D01*
X0060267Y0021772D01*
X0060267Y0017961D01*
X0060267Y0019253D02*
X0043186Y0019253D01*
X0045247Y0016056D02*
X0062172Y0016056D01*
X0060267Y0020852D02*
X0052357Y0020852D01*
X0053956Y0022450D02*
X0060945Y0022450D01*
X0062543Y0024049D02*
X0054467Y0024049D01*
X0054467Y0025647D02*
X0090433Y0025647D01*
X0088382Y0027246D02*
X0053993Y0027246D01*
X0052394Y0028844D02*
X0087711Y0028844D01*
X0087667Y0030443D02*
X0027667Y0030443D01*
X0027667Y0032041D02*
X0088188Y0032041D01*
X0087134Y0033640D02*
X0027667Y0033640D01*
X0027667Y0035238D02*
X0085535Y0035238D01*
X0082067Y0041632D02*
X0052855Y0041632D01*
X0054267Y0043231D02*
X0082067Y0043231D01*
X0082067Y0044829D02*
X0054267Y0044829D01*
X0054267Y0046428D02*
X0061800Y0046428D01*
X0064867Y0049867D02*
X0044867Y0049867D01*
X0045388Y0046428D02*
X0045467Y0046428D01*
X0045467Y0044867D02*
X0049867Y0044867D01*
X0049867Y0039867D01*
X0049867Y0040467D02*
X0049867Y0044867D01*
X0049867Y0040467D01*
X0049867Y0041632D02*
X0049867Y0041632D01*
X0049867Y0043231D02*
X0049867Y0043231D01*
X0049867Y0044829D02*
X0049867Y0044829D01*
X0049867Y0044867D02*
X0049867Y0044867D01*
X0049867Y0044867D01*
X0046878Y0041632D02*
X0043138Y0041632D01*
X0044467Y0043231D02*
X0045467Y0043231D01*
X0061317Y0052822D02*
X0027667Y0052822D01*
X0027667Y0054421D02*
X0062915Y0054421D01*
X0063156Y0057618D02*
X0027667Y0057618D01*
X0027667Y0059216D02*
X0061557Y0059216D01*
X0059959Y0060815D02*
X0027667Y0060815D01*
X0027667Y0062413D02*
X0058360Y0062413D01*
X0056762Y0064012D02*
X0027667Y0064012D01*
X0027667Y0065610D02*
X0055163Y0065610D01*
X0053565Y0067209D02*
X0027667Y0067209D01*
X0027667Y0068807D02*
X0051966Y0068807D01*
X0050368Y0070406D02*
X0027667Y0070406D01*
X0027667Y0072004D02*
X0048769Y0072004D01*
X0047171Y0073603D02*
X0027667Y0073603D01*
X0027667Y0075201D02*
X0045572Y0075201D01*
X0043974Y0076800D02*
X0027667Y0076800D01*
X0027667Y0078398D02*
X0042375Y0078398D01*
X0040777Y0079997D02*
X0027667Y0079997D01*
X0027667Y0081595D02*
X0039178Y0081595D01*
X0037580Y0083194D02*
X0027667Y0083194D01*
X0027667Y0084792D02*
X0037067Y0084792D01*
X0037067Y0086391D02*
X0027667Y0086391D01*
X0027667Y0087989D02*
X0037067Y0087989D01*
X0037067Y0089588D02*
X0027667Y0089588D01*
X0027667Y0091186D02*
X0037067Y0091186D01*
X0037067Y0092785D02*
X0027667Y0092785D01*
X0027667Y0094383D02*
X0037067Y0094383D01*
X0037067Y0095982D02*
X0027435Y0095982D01*
X0026113Y0097580D02*
X0037067Y0097580D01*
X0037067Y0099179D02*
X0024514Y0099179D01*
X0022916Y0100777D02*
X0037067Y0100777D01*
X0037067Y0102376D02*
X0021126Y0102376D01*
X0018820Y0103974D02*
X0037067Y0103974D01*
X0037067Y0105573D02*
X0018634Y0105573D01*
X0019920Y0107171D02*
X0026171Y0107171D01*
X0026086Y0108770D02*
X0020567Y0108770D01*
X0020567Y0110368D02*
X0026086Y0110368D01*
X0026086Y0111967D02*
X0020166Y0111967D01*
X0019229Y0113565D02*
X0027067Y0113565D01*
X0027067Y0115164D02*
X0018225Y0115164D01*
X0019750Y0116762D02*
X0027067Y0116762D01*
X0027067Y0118361D02*
X0020413Y0118361D01*
X0020567Y0119959D02*
X0027067Y0119959D01*
X0027067Y0121558D02*
X0020336Y0121558D01*
X0019638Y0123156D02*
X0027067Y0123156D01*
X0027067Y0124755D02*
X0017960Y0124755D01*
X0019415Y0126354D02*
X0027067Y0126354D01*
X0027067Y0127952D02*
X0020243Y0127952D01*
X0020567Y0129551D02*
X0027067Y0129551D01*
X0027067Y0131149D02*
X0020505Y0131149D01*
X0019843Y0132748D02*
X0027067Y0132748D01*
X0027067Y0134346D02*
X0018448Y0134346D01*
X0019006Y0135945D02*
X0027067Y0135945D01*
X0027067Y0137543D02*
X0020074Y0137543D01*
X0020567Y0139142D02*
X0027067Y0139142D01*
X0027067Y0140740D02*
X0020567Y0140740D01*
X0020012Y0142339D02*
X0027067Y0142339D01*
X0027067Y0143937D02*
X0018857Y0143937D01*
X0016075Y0145536D02*
X0027067Y0145536D01*
X0027067Y0147134D02*
X0011867Y0147134D01*
X0011867Y0145536D02*
X0013658Y0145536D01*
X0011867Y0148733D02*
X0027067Y0148733D01*
X0027067Y0150331D02*
X0011867Y0150331D01*
X0011867Y0151930D02*
X0027768Y0151930D01*
X0028567Y0153528D02*
X0011867Y0153528D01*
X0011867Y0155127D02*
X0029366Y0155127D01*
X0030165Y0156725D02*
X0011867Y0156725D01*
X0011867Y0158324D02*
X0022297Y0158324D01*
X0023353Y0157886D02*
X0026380Y0157886D01*
X0029178Y0159045D01*
X0031318Y0161186D01*
X0032477Y0163983D01*
X0032477Y0167010D01*
X0031318Y0169807D01*
X0029178Y0171948D01*
X0026380Y0173107D01*
X0023353Y0173107D01*
X0020556Y0171948D01*
X0018415Y0169807D01*
X0017256Y0167010D01*
X0017256Y0163983D01*
X0018415Y0161186D01*
X0020556Y0159045D01*
X0023353Y0157886D01*
X0019678Y0159922D02*
X0011867Y0159922D01*
X0011867Y0161521D02*
X0018276Y0161521D01*
X0017614Y0163119D02*
X0011867Y0163119D01*
X0011867Y0164718D02*
X0017256Y0164718D01*
X0017256Y0166316D02*
X0011867Y0166316D01*
X0011867Y0167915D02*
X0017631Y0167915D01*
X0018293Y0169513D02*
X0011867Y0169513D01*
X0011867Y0171112D02*
X0019719Y0171112D01*
X0022396Y0172710D02*
X0011867Y0172710D01*
X0011867Y0174309D02*
X0036267Y0174309D01*
X0035646Y0175907D02*
X0011867Y0175907D01*
X0011867Y0177506D02*
X0035646Y0177506D01*
X0036258Y0179104D02*
X0011867Y0179104D01*
X0011867Y0187097D02*
X0022217Y0187097D01*
X0019645Y0188695D02*
X0011867Y0188695D01*
X0011867Y0190294D02*
X0018263Y0190294D01*
X0017600Y0191892D02*
X0011867Y0191892D01*
X0011867Y0193491D02*
X0017256Y0193491D01*
X0017256Y0195090D02*
X0011867Y0195090D01*
X0011867Y0196688D02*
X0017645Y0196688D01*
X0018307Y0198287D02*
X0011867Y0198287D01*
X0027338Y0172710D02*
X0037939Y0172710D01*
X0041322Y0171112D02*
X0030014Y0171112D01*
X0031440Y0169513D02*
X0043266Y0169513D01*
X0044945Y0169513D02*
X0044945Y0169513D01*
X0044945Y0171112D02*
X0044945Y0171112D01*
X0044945Y0172710D02*
X0044945Y0172710D01*
X0046625Y0169513D02*
X0051260Y0169513D01*
X0052859Y0167915D02*
X0032102Y0167915D01*
X0032477Y0166316D02*
X0054457Y0166316D01*
X0056056Y0164718D02*
X0032477Y0164718D01*
X0032119Y0163119D02*
X0056614Y0163119D01*
X0059867Y0164867D02*
X0064867Y0164867D01*
X0064867Y0159867D01*
X0059867Y0159867D02*
X0034867Y0159867D01*
X0029867Y0149867D01*
X0029867Y0109867D01*
X0033648Y0110368D02*
X0037067Y0110368D01*
X0037067Y0108770D02*
X0033648Y0108770D01*
X0033562Y0107171D02*
X0037067Y0107171D01*
X0037067Y0111967D02*
X0033648Y0111967D01*
X0032667Y0113565D02*
X0037067Y0113565D01*
X0037067Y0115164D02*
X0032667Y0115164D01*
X0032667Y0116762D02*
X0037067Y0116762D01*
X0037067Y0118361D02*
X0032667Y0118361D01*
X0032667Y0119959D02*
X0037067Y0119959D01*
X0037067Y0121558D02*
X0032667Y0121558D01*
X0032667Y0123156D02*
X0037067Y0123156D01*
X0037067Y0124755D02*
X0032667Y0124755D01*
X0032667Y0126354D02*
X0037067Y0126354D01*
X0037067Y0127952D02*
X0032667Y0127952D01*
X0032667Y0129551D02*
X0037067Y0129551D01*
X0037067Y0131149D02*
X0032667Y0131149D01*
X0032667Y0132748D02*
X0037067Y0132748D01*
X0037067Y0134346D02*
X0032667Y0134346D01*
X0032667Y0135945D02*
X0037067Y0135945D01*
X0037067Y0137543D02*
X0032667Y0137543D01*
X0032667Y0139142D02*
X0037067Y0139142D01*
X0037067Y0140740D02*
X0032667Y0140740D01*
X0032667Y0142339D02*
X0037067Y0142339D01*
X0037067Y0143937D02*
X0032667Y0143937D01*
X0032667Y0145536D02*
X0037067Y0145536D01*
X0036209Y0147134D02*
X0032667Y0147134D01*
X0032667Y0148733D02*
X0036086Y0148733D01*
X0036086Y0150331D02*
X0033229Y0150331D01*
X0034029Y0151930D02*
X0036086Y0151930D01*
X0037138Y0153528D02*
X0034828Y0153528D01*
X0030965Y0158324D02*
X0027436Y0158324D01*
X0030055Y0159922D02*
X0031764Y0159922D01*
X0031457Y0161521D02*
X0032561Y0161521D01*
X0042596Y0153528D02*
X0047138Y0153528D01*
X0046086Y0151930D02*
X0043648Y0151930D01*
X0042667Y0143937D02*
X0076836Y0143937D01*
X0078435Y0142339D02*
X0042667Y0142339D01*
X0042667Y0140740D02*
X0080033Y0140740D01*
X0081632Y0139142D02*
X0042667Y0139142D01*
X0042667Y0137543D02*
X0082067Y0137543D01*
X0082067Y0135945D02*
X0042667Y0135945D01*
X0042667Y0134346D02*
X0082067Y0134346D01*
X0082067Y0132748D02*
X0042667Y0132748D01*
X0042667Y0131149D02*
X0082067Y0131149D01*
X0082067Y0129551D02*
X0042667Y0129551D01*
X0042667Y0127952D02*
X0082067Y0127952D01*
X0082067Y0126354D02*
X0042667Y0126354D01*
X0042667Y0124755D02*
X0082067Y0124755D01*
X0082067Y0123156D02*
X0042667Y0123156D01*
X0042667Y0121558D02*
X0082067Y0121558D01*
X0082067Y0119959D02*
X0042667Y0119959D01*
X0042667Y0118361D02*
X0082067Y0118361D01*
X0082067Y0116762D02*
X0042667Y0116762D01*
X0042667Y0115164D02*
X0082067Y0115164D01*
X0082067Y0113565D02*
X0042667Y0113565D01*
X0042667Y0111967D02*
X0082067Y0111967D01*
X0082067Y0110368D02*
X0042667Y0110368D01*
X0042667Y0108770D02*
X0082067Y0108770D01*
X0082435Y0107171D02*
X0042667Y0107171D01*
X0042667Y0105573D02*
X0083951Y0105573D01*
X0085549Y0103974D02*
X0042667Y0103974D01*
X0042667Y0102376D02*
X0087313Y0102376D01*
X0087667Y0100777D02*
X0042667Y0100777D01*
X0042667Y0099179D02*
X0087667Y0099179D01*
X0088235Y0097580D02*
X0042667Y0097580D01*
X0042667Y0095982D02*
X0089646Y0095982D01*
X0094867Y0092785D02*
X0094867Y0092785D01*
X0094867Y0091186D02*
X0094867Y0091186D01*
X0094867Y0089588D02*
X0094867Y0089588D01*
X0094867Y0087989D02*
X0094867Y0087989D01*
X0094867Y0086391D02*
X0094867Y0086391D01*
X0100168Y0086391D02*
X0107067Y0086391D01*
X0107067Y0087989D02*
X0101448Y0087989D01*
X0101867Y0089588D02*
X0107067Y0089588D01*
X0107067Y0091186D02*
X0101664Y0091186D01*
X0107067Y0084792D02*
X0072511Y0084792D01*
X0067223Y0084792D02*
X0043901Y0084792D01*
X0042667Y0086391D02*
X0065282Y0086391D01*
X0064475Y0087989D02*
X0042667Y0087989D01*
X0042667Y0089588D02*
X0064167Y0089588D01*
X0064244Y0091186D02*
X0042667Y0091186D01*
X0042667Y0092785D02*
X0064906Y0092785D01*
X0066322Y0094383D02*
X0042667Y0094383D01*
X0045499Y0083194D02*
X0065486Y0083194D01*
X0064645Y0081595D02*
X0047098Y0081595D01*
X0048696Y0079997D02*
X0064367Y0079997D01*
X0064561Y0078398D02*
X0050295Y0078398D01*
X0051893Y0076800D02*
X0065297Y0076800D01*
X0066931Y0075201D02*
X0053492Y0075201D01*
X0055090Y0073603D02*
X0065542Y0073603D01*
X0064582Y0072004D02*
X0056689Y0072004D01*
X0058287Y0070406D02*
X0064167Y0070406D01*
X0064167Y0068807D02*
X0059886Y0068807D01*
X0061484Y0067209D02*
X0064798Y0067209D01*
X0066062Y0065610D02*
X0063083Y0065610D01*
X0064682Y0064012D02*
X0090253Y0064012D01*
X0090523Y0065610D02*
X0073671Y0065610D01*
X0074935Y0067209D02*
X0088419Y0067209D01*
X0087727Y0068807D02*
X0075567Y0068807D01*
X0075567Y0070406D02*
X0087667Y0070406D01*
X0088173Y0072004D02*
X0075151Y0072004D01*
X0074192Y0073603D02*
X0089497Y0073603D01*
X0100905Y0076800D02*
X0107067Y0076800D01*
X0107067Y0078398D02*
X0101837Y0078398D01*
X0102067Y0079997D02*
X0107067Y0079997D01*
X0107067Y0081595D02*
X0101730Y0081595D01*
X0100645Y0083194D02*
X0107067Y0083194D01*
X0112667Y0081595D02*
X0118004Y0081595D01*
X0117667Y0079997D02*
X0112667Y0079997D01*
X0112667Y0078398D02*
X0117896Y0078398D01*
X0118828Y0076800D02*
X0112667Y0076800D01*
X0124867Y0073603D02*
X0124867Y0073603D01*
X0124867Y0072004D02*
X0124867Y0072004D01*
X0124867Y0070406D02*
X0124867Y0070406D01*
X0124867Y0068807D02*
X0124867Y0068807D01*
X0124867Y0067209D02*
X0124867Y0067209D01*
X0124867Y0065610D02*
X0124867Y0065610D01*
X0128605Y0065610D02*
X0196952Y0065610D01*
X0196989Y0065472D02*
X0197226Y0065061D01*
X0197561Y0064726D01*
X0197972Y0064489D01*
X0198430Y0064367D01*
X0202167Y0064367D01*
X0202167Y0069667D01*
X0196867Y0069667D01*
X0196867Y0065930D01*
X0196989Y0065472D01*
X0196867Y0067209D02*
X0130974Y0067209D01*
X0131749Y0068807D02*
X0196867Y0068807D01*
X0196867Y0070406D02*
X0131836Y0070406D01*
X0131316Y0072004D02*
X0196867Y0072004D01*
X0196867Y0073603D02*
X0129810Y0073603D01*
X0129480Y0064012D02*
X0204717Y0064012D01*
X0204717Y0062413D02*
X0131391Y0062413D01*
X0132053Y0060815D02*
X0204717Y0060815D01*
X0204717Y0059216D02*
X0132067Y0059216D01*
X0131514Y0057618D02*
X0204717Y0057618D01*
X0204717Y0056019D02*
X0130124Y0056019D01*
X0128493Y0054421D02*
X0204717Y0054421D01*
X0204717Y0052822D02*
X0131017Y0052822D01*
X0131884Y0051223D02*
X0204717Y0051223D01*
X0204717Y0049625D02*
X0132067Y0049625D01*
X0131683Y0048026D02*
X0204717Y0048026D01*
X0204717Y0046428D02*
X0130533Y0046428D01*
X0119126Y0043231D02*
X0102191Y0043231D01*
X0101714Y0041632D02*
X0118019Y0041632D01*
X0117667Y0040034D02*
X0102067Y0040034D01*
X0101853Y0038435D02*
X0117880Y0038435D01*
X0118791Y0036837D02*
X0100942Y0036837D01*
X0100199Y0033640D02*
X0119534Y0033640D01*
X0118188Y0032041D02*
X0101545Y0032041D01*
X0102067Y0030443D02*
X0117667Y0030443D01*
X0117711Y0028844D02*
X0102022Y0028844D01*
X0101351Y0027246D02*
X0118382Y0027246D01*
X0120433Y0025647D02*
X0099301Y0025647D01*
X0103044Y0019267D02*
X0100467Y0016689D01*
X0100467Y0014867D01*
X0104867Y0014867D01*
X0109267Y0014867D01*
X0109267Y0016689D01*
X0106689Y0019267D01*
X0104867Y0019267D01*
X0104867Y0014867D01*
X0104867Y0014867D01*
X0104867Y0014867D01*
X0109267Y0014867D01*
X0109267Y0013044D01*
X0106689Y0010467D01*
X0104867Y0010467D01*
X0104867Y0014867D01*
X0104867Y0019267D01*
X0103044Y0019267D01*
X0103031Y0019253D02*
X0079467Y0019253D01*
X0079467Y0017961D02*
X0076772Y0015267D01*
X0072961Y0015267D01*
X0070267Y0017961D01*
X0070267Y0021772D01*
X0072961Y0024467D01*
X0076772Y0024467D01*
X0079467Y0021772D01*
X0079467Y0017961D01*
X0079160Y0017655D02*
X0101432Y0017655D01*
X0100467Y0016056D02*
X0077562Y0016056D01*
X0079467Y0020852D02*
X0204717Y0020852D01*
X0204717Y0022450D02*
X0078788Y0022450D01*
X0077190Y0024049D02*
X0204717Y0024049D01*
X0204717Y0025647D02*
X0129301Y0025647D01*
X0131351Y0027246D02*
X0204717Y0027246D01*
X0204717Y0028844D02*
X0132022Y0028844D01*
X0132067Y0030443D02*
X0204717Y0030443D01*
X0204717Y0032041D02*
X0131545Y0032041D01*
X0126772Y0019467D02*
X0122961Y0019467D01*
X0120267Y0016772D01*
X0120267Y0012961D01*
X0122961Y0010267D01*
X0126772Y0010267D01*
X0129467Y0012961D01*
X0129467Y0016772D01*
X0126772Y0019467D01*
X0126985Y0019253D02*
X0143031Y0019253D01*
X0143044Y0019267D02*
X0140467Y0016689D01*
X0140467Y0014867D01*
X0144867Y0014867D01*
X0149267Y0014867D01*
X0149267Y0016689D01*
X0146689Y0019267D01*
X0144867Y0019267D01*
X0144867Y0014867D01*
X0144867Y0014867D01*
X0144867Y0014867D01*
X0149267Y0014867D01*
X0149267Y0013044D01*
X0146689Y0010467D01*
X0144867Y0010467D01*
X0144867Y0014867D01*
X0144867Y0019267D01*
X0143044Y0019267D01*
X0144867Y0019253D02*
X0144867Y0019253D01*
X0144867Y0017655D02*
X0144867Y0017655D01*
X0144867Y0016056D02*
X0144867Y0016056D01*
X0144867Y0014867D02*
X0144867Y0014867D01*
X0144867Y0014867D01*
X0144867Y0010467D01*
X0143044Y0010467D01*
X0140467Y0013044D01*
X0140467Y0014867D01*
X0144867Y0014867D01*
X0144867Y0014458D02*
X0144867Y0014458D01*
X0144867Y0012859D02*
X0144867Y0012859D01*
X0144867Y0011261D02*
X0144867Y0011261D01*
X0147483Y0011261D02*
X0204717Y0011261D01*
X0204717Y0012859D02*
X0149082Y0012859D01*
X0149267Y0014458D02*
X0204717Y0014458D01*
X0204717Y0016056D02*
X0149267Y0016056D01*
X0148301Y0017655D02*
X0204717Y0017655D01*
X0204717Y0019253D02*
X0146703Y0019253D01*
X0141432Y0017655D02*
X0128584Y0017655D01*
X0129467Y0016056D02*
X0140467Y0016056D01*
X0140467Y0014458D02*
X0129467Y0014458D01*
X0129365Y0012859D02*
X0140652Y0012859D01*
X0142250Y0011261D02*
X0127766Y0011261D01*
X0121967Y0011261D02*
X0117766Y0011261D01*
X0116772Y0010267D02*
X0119467Y0012961D01*
X0119467Y0016772D01*
X0116772Y0019467D01*
X0112961Y0019467D01*
X0110267Y0016772D01*
X0110267Y0012961D01*
X0112961Y0010267D01*
X0116772Y0010267D01*
X0119365Y0012859D02*
X0120369Y0012859D01*
X0120267Y0014458D02*
X0119467Y0014458D01*
X0119467Y0016056D02*
X0120267Y0016056D01*
X0121149Y0017655D02*
X0118584Y0017655D01*
X0116985Y0019253D02*
X0122748Y0019253D01*
X0112748Y0019253D02*
X0106703Y0019253D01*
X0104867Y0019253D02*
X0104867Y0019253D01*
X0104867Y0017655D02*
X0104867Y0017655D01*
X0104867Y0016056D02*
X0104867Y0016056D01*
X0104867Y0014867D02*
X0104867Y0014867D01*
X0104867Y0014867D01*
X0104867Y0010467D01*
X0103044Y0010467D01*
X0100467Y0013044D01*
X0100467Y0014867D01*
X0104867Y0014867D01*
X0104867Y0014458D02*
X0104867Y0014458D01*
X0104867Y0012859D02*
X0104867Y0012859D01*
X0104867Y0011261D02*
X0104867Y0011261D01*
X0107483Y0011261D02*
X0111967Y0011261D01*
X0110369Y0012859D02*
X0109082Y0012859D01*
X0109267Y0014458D02*
X0110267Y0014458D01*
X0110267Y0016056D02*
X0109267Y0016056D01*
X0108301Y0017655D02*
X0111149Y0017655D01*
X0102250Y0011261D02*
X0044039Y0011261D01*
X0044997Y0012859D02*
X0100652Y0012859D01*
X0100467Y0014458D02*
X0045367Y0014458D01*
X0026192Y0019253D02*
X0024280Y0019253D01*
X0027667Y0056019D02*
X0074755Y0056019D01*
X0072915Y0054421D02*
X0066818Y0054421D01*
X0068417Y0052822D02*
X0071317Y0052822D01*
X0070267Y0051223D02*
X0069467Y0051223D01*
X0069467Y0049625D02*
X0070267Y0049625D01*
X0070267Y0048026D02*
X0069467Y0048026D01*
X0067933Y0046428D02*
X0071800Y0046428D01*
X0077933Y0046428D02*
X0082067Y0046428D01*
X0082067Y0048026D02*
X0079467Y0048026D01*
X0079467Y0049625D02*
X0081149Y0049625D01*
X0079550Y0051223D02*
X0079467Y0051223D01*
X0082674Y0056019D02*
X0089609Y0056019D01*
X0088219Y0057618D02*
X0081076Y0057618D01*
X0079477Y0059216D02*
X0087667Y0059216D01*
X0087680Y0060815D02*
X0077879Y0060815D01*
X0077240Y0061453D02*
X0077240Y0061453D01*
X0076036Y0062413D02*
X0088342Y0062413D01*
X0091240Y0054421D02*
X0084273Y0054421D01*
X0085871Y0052822D02*
X0088717Y0052822D01*
X0087850Y0051223D02*
X0087335Y0051223D01*
X0087667Y0049625D02*
X0087667Y0049625D01*
X0087667Y0048026D02*
X0088050Y0048026D01*
X0087667Y0046428D02*
X0089200Y0046428D01*
X0094867Y0039867D02*
X0109867Y0054867D01*
X0109867Y0159867D01*
X0129867Y0179867D01*
X0129867Y0189867D01*
X0126131Y0187097D02*
X0123319Y0187097D01*
X0124267Y0188695D02*
X0125267Y0188695D01*
X0125267Y0190294D02*
X0124267Y0190294D01*
X0124063Y0191892D02*
X0125387Y0191892D01*
X0140202Y0193491D02*
X0141986Y0193491D01*
X0147748Y0193491D02*
X0152268Y0193491D01*
X0150670Y0191892D02*
X0149346Y0191892D01*
X0149467Y0190294D02*
X0150467Y0190294D01*
X0150467Y0188695D02*
X0149467Y0188695D01*
X0148602Y0187097D02*
X0151414Y0187097D01*
X0153012Y0185498D02*
X0147004Y0185498D01*
X0158319Y0187097D02*
X0197121Y0187097D01*
X0198134Y0188695D02*
X0159267Y0188695D01*
X0159267Y0190294D02*
X0161803Y0190294D01*
X0160229Y0191892D02*
X0159063Y0191892D01*
X0164667Y0191892D02*
X0165067Y0191892D01*
X0165067Y0190294D02*
X0164667Y0190294D01*
X0164667Y0193491D02*
X0165067Y0193491D01*
X0167930Y0190294D02*
X0171378Y0190294D01*
X0169929Y0191892D02*
X0169504Y0191892D01*
X0178355Y0190294D02*
X0181378Y0190294D01*
X0179929Y0191892D02*
X0179804Y0191892D01*
X0188355Y0190294D02*
X0198878Y0190294D01*
X0197429Y0191892D02*
X0189804Y0191892D01*
X0190466Y0193491D02*
X0196767Y0193491D01*
X0196667Y0195090D02*
X0190567Y0195090D01*
X0190282Y0196688D02*
X0196951Y0196688D01*
X0197726Y0198287D02*
X0189508Y0198287D01*
X0198376Y0143937D02*
X0129660Y0143937D01*
X0124867Y0139867D02*
X0194867Y0139867D01*
X0198228Y0135945D02*
X0130018Y0135945D01*
X0128673Y0134346D02*
X0198785Y0134346D01*
X0197390Y0132748D02*
X0131091Y0132748D01*
X0131914Y0131149D02*
X0196728Y0131149D01*
X0196667Y0129551D02*
X0132067Y0129551D01*
X0131653Y0127952D02*
X0196990Y0127952D01*
X0199363Y0084792D02*
X0178901Y0084792D01*
X0182930Y0083194D02*
X0197633Y0083194D01*
X0196913Y0081595D02*
X0183648Y0081595D01*
X0183648Y0079997D02*
X0196667Y0079997D01*
X0196805Y0078398D02*
X0183648Y0078398D01*
X0202167Y0068807D02*
X0202567Y0068807D01*
X0202567Y0067209D02*
X0202167Y0067209D01*
X0202167Y0065610D02*
X0202567Y0065610D01*
X0109159Y0163119D02*
X0107667Y0163119D01*
X0107667Y0164718D02*
X0110758Y0164718D01*
X0112357Y0166316D02*
X0107297Y0166316D01*
X0105778Y0167915D02*
X0113955Y0167915D01*
X0115554Y0169513D02*
X0104180Y0169513D01*
X0101781Y0198287D02*
X0094221Y0198287D01*
X0059867Y0164867D02*
X0044945Y0179788D01*
X0044945Y0179867D01*
X0048569Y0171112D02*
X0049662Y0171112D01*
X0019867Y0099867D02*
X0014867Y0099867D01*
X0014667Y0068807D02*
X0015067Y0068807D01*
X0015067Y0067209D02*
X0014667Y0067209D01*
X0014667Y0065610D02*
X0015067Y0065610D01*
X0067190Y0024049D02*
X0072543Y0024049D01*
X0070945Y0022450D02*
X0068788Y0022450D01*
X0069467Y0020852D02*
X0070267Y0020852D01*
X0070267Y0019253D02*
X0069467Y0019253D01*
X0069160Y0017655D02*
X0070573Y0017655D01*
X0072172Y0016056D02*
X0067562Y0016056D01*
D19*
X0044867Y0034867D03*
X0104867Y0099867D03*
X0104867Y0114867D03*
X0049867Y0149867D03*
X0039867Y0149867D03*
X0029867Y0109867D03*
X0179867Y0079867D03*
X0194867Y0139867D03*
M02*
